<mxfile host="app.diagrams.net" agent="Mozilla/5.0 (Windows NT 10.0; Win64; x64) AppleWebKit/537.36 (KHTML, like Gecko) Chrome/137.0.0.0 Safari/537.36" version="27.1.4">
  <diagram name="第 1 页" id="blOz6xhr2V0IBy_l0lPH">
    <mxGraphModel dx="2505" dy="874" grid="1" gridSize="10" guides="1" tooltips="1" connect="1" arrows="1" fold="1" page="1" pageScale="1" pageWidth="827" pageHeight="1169" math="0" shadow="0">
      <root>
        <mxCell id="0" />
        <mxCell id="1" parent="0" />
        <mxCell id="tViWV4BQa0rAtpK_9Age-4" value="" style="rounded=0;whiteSpace=wrap;html=1;" vertex="1" parent="1">
          <mxGeometry x="330" y="110" width="870" height="470" as="geometry" />
        </mxCell>
        <mxCell id="tViWV4BQa0rAtpK_9Age-6" value="" style="shape=image;verticalLabelPosition=bottom;labelBackgroundColor=default;verticalAlign=top;aspect=fixed;imageAspect=0;image=data:image/png,iVBORw0KGgoAAAANSUhEUgAAA1oAAAFFCAYAAAD1vZz5AAAAAXNSR0IArs4c6QAAAARnQU1BAACxjwv8YQUAAAAJcEhZcwAADsMAAA7DAcdvqGQAAJk9SURBVHhe7N15XBXV//jxF5tJKlpfc0FRslxRMUAFXEBcS00LhLLcMpfUj2KUWX5SsSwzyaVNLTNtE7fULFe2UkAEcwM1TUFwSQkBd1nu74/PvfO7d7j3AsrO+/l4nAfec+bMmRm447znnDljodFoNAghhBDCJAsLCwC8vLzURUIYlZycTEpKChEREXh7exuUWVhYULt2bVq1amWQL4Qphw4dAkAu2ysXCwm0hBBCCPN0gZYQxWUq0BLifshle+UigZYQQghRiMjISHWWEEXSqVMn6tWrZ5Anf0/ifqmDdlGxSaAlhBBCCCGEECVMAq0KIDk5meTkZHW2EEIIIYQQ983R0RFHR0d1tigjEmhVAHPnziU4OFidLYQQQgghxH2bM2cOc+fOVWeLMiKBVgWgC7T8/Pxo2rSpulgIIYQQQogiS0tLY+PGjRJolTMJtCoAXaAVGhqKu7u7ulgIIYQQQogii42NJSAgQAKtcmapzhBCCCGEEEII8WAk0BJCCCGEEEKIEiaBlhBCCCGEEEKUMAm0RIn44IMPWL9+vTpbCCGEEEKIakkCrSrk33//5fjx49y7d88g/+bNmyQmJvLvv/8qeRqNhsuXLwOQkZHB33//jUajISMjg+zsbGW527dvc+XKFeWzMVlZWYSGhrJz507S09OV/MLavXTpEmfPnkXmYxFCCCGEEFWNBFpVRHBwMK6urgwcOJDu3buTk5MDwKeffkqHDh145plncHFxYdasWQAcP36crl27MmXKFFxcXPDx8eG1115j7Nix9OnTRwl+pk+fTr9+/QzaUvP19SUzM5OwsDBcXV1JTU0ttN2pU6fi4eFBr169GDFiBHl5eerVCiGEEEIIUWlJoFUFxMTE8M033/Dqq68SGxvL+PHjsbS0JCEhgUWLFjFmzBiOHDnC2LFj+f7779m3b58SSJ08eZJ169bh4+PDjh078Pb25p9//uHIkSPcu3eP33//nb59+6qbNLBy5Urq1KmDp6cn27dv58qVK4W2+9dff7Ft2zaGDRvGH3/8wR9//KFerRBCCCGEEJWWBFpVwJ9//gnAyy+/TOPGjXn11VexsrIiJiYGgJEjR1KvXj1efPFFAI4cOaLUHT16NO7u7vTp0weA3r17A7Bnzx7279/PzZs3GThwoLK8MS1atMDa2pq6devSoUOHIrX78ssv07FjR0aMGAHAqVOnlDIhhBBCCCEqOwm0qoDc3FwA8vPzDfJ1vUe6YXm64YS2trYGywFYWVmBdh0dO3Zk9+7d7N69Gzs7O7p3765e3KyitKtbxliZEEIIIYQQlZ0EWlWAs7MzAMuWLSM+Pp7//ve/3Lp1CxcXFwCWL1/OqVOnWL58OZaWloUGTgMHDlSG9vXr1w9ra2v1IgXY2tpy8uRJoqKicHJygkLaXblyJbt37+bzzz8HULZVCCGEEEKIqkACrSrAy8uLkSNHsnXrVnx9fYmPj8fGxoZu3boxefJkNm3aRL9+/QgPD+eDDz6gVatW2NjYACg/dcGUjY0NgwYNwtramhs3bvDss88atGVKQEAA586dY8yYMTg5OZlsV6d+/fq89tprREZGMm7cONq3b2+wPiGEEEIIISozC43MrV3u5s6dS3BwMKGhobi7u6uLi+zOnTtkZWXRsGFDg/zc3FwyMjJ47LHHsLCwMMjX763S/5yXl4dGoylSb5ZOVlYWFhYW2NnZgYl2jx49yuDBg5k/fz5DhgzB0tKSWrVqqdYkhBBCCCHuV2xsLAEBAcyZM4e5c+eqi0UZkR6tKqRmzZoFgiy0vVUNGjQwCLJ0+aY+W1lZKZ9zc3Px8fGhZ8+eBdKPP/6o1Klbt64SZGGmXZ06depIkCWEEEIIIaokCbREoaytrZk1a5bR1KNHD/XiZrVq1Yo1a9bw9NNPq4uEEEIIIYSoMiTQEkXSu3dv+vfvXyA5ODioFzWrZs2aeHt783//93/qIiGEEEIIIaoMCbSEEEIIIYQQooRJoCWEEEIIIYQQJUwCLSGEEEIIIYQoYRJoCSGEEEIIIUQJk0BLCCGEEEIIIUqYvLC4AjD2wmLdi+aKIyUlhcWLF7NkyRJ1kRBClLrAwECmT58OQPPmzdXFRj3oeU8IISo7/fOgzv2cQ/XJC4srBgm0KgBzgVadOnUMXgJszIULF0AVaDVt2rTYU68LIcT9yM7KIjEpyWig1aRJE9XS/5Odnc3169eNnvfs7OxwcnJSVxFCiColNTWVtLQ0o8HS/ZxD9UmgVTFIoFUBmAu0unbtavQLpG/p0qWgCrSCgoJ4IyhIvagQQpS46OhofP38jAZa06ZNUy39P7GxsRw4cMDoec/Dw4PNmzapqwghRJWyKCSEkJAQo8HS/ZxD1eUSaJU/eUZLCCGEEEIIIUqYBFpCCCGEEEIIUcIk0BJCCCGEEEKIEiaBlhBCCCGEEEKUMAm0hBBCCCGEEKKESaAlhBBCCCGEECVMAi0hhBBCz3vvv8+60FB1thBCCFEsEmgJIUQldPjwYQYPHoyXtzcxMTH49O7N7j171ItVCxqNhsuXLwNw6dIl/v77b9SviLxx4wbHjx8nPT3dID8nJ4fEpCSSk5MByMrK4scff+S3337j6tWrUMj6dWUajYakEye4ceMGmGkPID09nWPHjnHv3j11kRBCiCpEAi0hRKWkH2ikpaWpi4utIgQuxelJCZ43j+SUFF4aPhxLS0tOnDjB5UuX1ItVC8eOHeMpFxcmT56Mq5sb3Xv04MUXXyQvLw+AJUuW0KZtW/r260eHjh15a+ZMAFJTU3H38GDo0KF4eXuzdu1anh0yhMzMTPbs2UNHZ2fOnz9vdv26shEjR9K7d2/Wb9hgsj2A2bNn09HZmX79+9O1a1dycnKUMiGEEFWLBFqiTN28eZOIiAh27tzJP//8oy4uoLjL67t9+zb79u0zekc5MzOTqKgoduzYwb///qsuLpajR48SFxfHrVu31EWKc8nJ5XLhXpXpBxo2NjbFClKMKYnAJTMzk2vXrimf09PTuXnzpvL58uXL3LlzB41Gw9mzZzlz5gxXrlwhKyvLaE+KKdnZ2SQnJ9O2TRv8/PyoWbOmepFqRde7dPLkSXb89hsBAQFE/f47UVFRHIyP56OFCxk7diwnkpIYN24ca9eu5fc//uDXX3/l4sWL7PvjD04kJdGnTx9Wf/MNdnZ2dO/enV07d9K0aVOz69eVJSUl8fVXX9GubVuT7e3fv5+vvv6a8ePHcyghgddeew1LS/lvWAghqio5w4syc+rUKZ5yceGll19mzCuv0KVrVw4cOKBeTFHc5fXt27ePXj4+DPP357fffjMoi4iIoKu7Oy+9/DKvTZrEO7NmQTF7E3R27NhB/wEDGDJ0KHv27lUXK7Kzsu7rwl0YZyzQUAcppoZ0GWNsffdj2rRpuHt4kJeXx82bN3FxdeWll18GbUD+lIsLP/z4I08/8wx9+valp5cXzp06MeDpp432pJjy3HPPcfnyZf7Ytw+3zp3VxdXWqFGjcHZ2ZvSoUaANjKKjowEYM3o09erV4+WXXgJtD6arqyvW1tYMGDCAFStW8Oijj9KiRQusrKyoW7cuHTt2NAiEjK1fZ/LkyQwcOJADcXFgor1Df/6prKdx48aMHz8eKysrZR1CCCGqFgm0hAFjzw4Ye9ZA/5mFjIwMzpw5o9zZzcjIIDs7W1n29u3b/PPPP9jY2LD4k09ISU7m02XLuHfvHhs3bQLtha5ufWi3Izcvz+Ty5ty6dYsxr7xCu3bt1EXcvXuXyVOm0MnZmRNJSZw7e5YP5s8325tgbP/RPtvx3nvv0bFjR9C7q46J46hz9epVg+Mlik8daBgLUowN6TJFvb775e3tTXZ2Nn8ePkxcXBw5OTkcOnSImzdv8vsff4D27ykxMZGDcXH89NNPACxbutRoT4opX339NfXr16dLly789uuv6uJqS/ed0g3Hs7W1RZOfD0C+9qd+WefOndm9axc9evbk40WLmDN3rrIuY4ytX8fG2vp/y5hpL1f773ztkEYhhBBVmwRaQmHs2QFTzxroLmInTpxI+w4d6NGzJ+PGjwft3VovLy/louQ/U6fSy8eHFi1aMHDgQGxsbJS7xE3s7QH45ptveMrFhd179nD23DmecnEhev9+k8ub8/DDD3MwLo7Ro0eri9i/fz/Xrl1j8pQpXLt2jezsbP7v//7P6IU6Zp7tAFi1ahXXb9xg2tSpei0YP446P61bx1MuLvTo2ZPxEyYY1BNFpw40jAUp6iFdvXr1Uq9GoV7f/erTpw8AUZGRREdH07JlS3JycoiJiWHfvn20b9+eJ594gtzcXMLCwog/eBALCwuaNGlitidFrcXjj2NtbY2dnR1t2rRRF1dbXy5fzs5du1j26acAuLm54ermBsDnn3/OyZMn+eKLL7C0tKRnjx7ExsaiAd5/7z0cHBy4ePEiaM8hJ5KSiIyM5M6dO2bXr2auvaeeegqAxUuWcPDgQWa+/bbZIcdCCCEqN9P/k4tqxdizA4cPHzb5rIHuIvbEyZNs2riRPn368Ouvv3Lp0iUGPP00l//5h8OHD3Pv3j0iIyMZ0L8/APPnz6dHz55M+c9/6NatG5MmTQJg/PjxNGzYkA8++IAPP/yQRo0aMWrUKJPLF6ZevXrqLADOnjsHwGuvvUZXd3fatG3L+++/b/RC3dyzHRkZGSxesoS3Zsygdp06yvqNHUf9C+Zbt26xYf16+vTpw/bt2w168UTRqQMNc0GKbkjX446OBuvQp17f/XJwcKB169ZE/f47+6Oj8fX15cknn2RvWBhxcXH07duXRo0aYWNjw9Jly9iydSsfL1yIfRFuIIjCPVa/PuPHjyc8PJwJEybQoUMHenTvztT//IcNGzfSy8eHvWFhLPzoI1q3bs3Zc+fo168frdu04c6dO0yZPBmAF194gbPnzvHyiBFkZmWZXb+1jQ2A8tNce97e3owePZqff/6ZZ4cMIf7gQWy09YQQQlQ9EmgJAKPPDkTHxICJZw10xr7yCh4eHvTr2xe0Q+aeHTwYgF27dvHHH39w8+ZNBg0aBECPnj15afhwevbowf79+5n13/+C9g7ym2+8walTp9i+fTtvvvEGNWrUMLn8/crRDuX7z5QpHIiNxdvbmy++/BI7O7sCF+rmnu1YumwZjRo1wtfXVxkOlJuTY/Q46j+DoT5e6mGKouTphnSVlT69e/Pnn39y7NgxunfrRi9vb9atW8ft27fp26cPe8PCsLW1ZfTo0Uz9z38MAjtTPSmiaIYNG8bxY8c4dfIkc+fMUfLffvttzv79N4f//JOTJ07wkva7PPzFFzl18iSHEhI4lJBA165dAQgKCuLkiRMkJSbSqGFDs+t3ateO1PPnGf7ii8pyptoD+PCDD/j7zBn+/PNP9u7dK4GWEEJUYRJoCdAGCaieHTD3rIGapTaYyM/Px8HBAWdnZ3bu2sXOXbuws7OjR48eAPTs0YOJEyfyww8/YGtrS2hoqNI7lpqWplx0nDlzptDl70ddbU9XOycnmjVrhqenJxqNxuCZMh1z+3/kyBH++usvWjzxhDLZwX+mTuXe3bv/q1PIMxj6x0uUjIoSpPTv35+8vDwefvhhnJ2d6d2nD3fv3qVRo0Z06tQJN1dXsrOz+eWXX1i+fDmDBg8meN48MNOTYoyNjQ3W2iBS3atSndnZ2VG7dm11NtbW1jRs2BALCwuD/Fq1atG4ceMCk1LUrVsXOzs7gzxMrF/3e1DnGWsPoGbNmgYBnBBCiKpJAi0BYPTZgfbt24OJZw0KM3jwYE6dOsXWrVsZMGAANjY27N27l2+//ZZDhw6xZu1abt++TevWrbGwsODixYusWLGCcePG4eXlxVdff8369etNLl+Y3//4gyNHjgDw119/Kb1Tbq6uAPz4ww8cPXqUrVu30qhRI5o3b17gQt3csxbvzZvH2jVrWLtmDTPfeguAyZMm4aQ9ZvIMRunTDzQwEqQUN/goqcClc+fOnE9JISkxEWtra7x69iT1/Hnleaxln36Ks7Mz27ZuZe/evTg4OPCntifUVE+KMTHR0XyzahWY6FWpTlq3bs2PP/zAM888oy4qEaW9fiGEEFWTBFoCtLOlqZ8d8PLyMvmsgfpCVDc8S/f52cGDsba25vr16zw3dOj/lrGxYcFHHzFw0CBmzZpFhw4d+Ez7UPmiRYuoUaMGUyZP5p233+bevXuEfPKJyeXNycnJYfjw4XzwwQcArPrmG14eMQKAVq1a8frrr/Prb7/Rf8AAsrOzWf7ll1hZWRW4UDf3rEWHDh3o27cvffv2pUuXLqANVgf071/gONrY2BR6vETx6QcaGAlSiht8lGTgYm1tbdBDov/Zw92dI0eO4OnpSVd3dzIzM/nPlCnKsrqelNzcXHr07ImHp2eB9P3332NlZWVw08FYr0p1UbNmTXr16kX9+vXVRSWitNcvhBCiarLQPMg4LFEi5s6dS3BwMKGhobi7uwMQGxtLQEAAXbt2VfJMWbp0KQApKSksXryYJUuWEBQUxBtBQepFC3Xnzh0ys7IM7qbn5uby77//0qBBA4MLu9zcXIOLO/XnvLw88vPzDZ5ByMvL4/Lly9SpU8dgWE5eXh4ajUapn5OTg5WVlTKNvHr5B3X79m1u3LjBY489ZpCflZWFhYWFQVum9l9fTk6OwX6aOo7mjpcoPbm5ufTy8SE3N1ddxORJk3hZO/yzrCQnJ5OcnIytrS1OTk4FhqLp7Nmzhzwjw1DbtWtHs2bN1NnlJjo6Gl8/PwIDA5k+fToAzZs3B+27xYyJjY3lwIEDRs97Hh4ebC7CqxyEEKIyWxQSQkhIiMF5UOd+zqHq8oCAAObMmcPcQl5dIUqP9GgJA8aeHTD1rIE6SFB/trKyKvCgt5WVFU2aNCkQNFlZWRnU103pbmz5wu70F4WtrW2BIAsTz2WY2n996v00dRzNfRalx9ramtnvvsuc2bMLpJ49e6oXL3WOjo54e3vTtWtXk0EWQN++fRkwYECBVJGCLCGEEEIYJ4GWqHQq2kWzqBwkaBFCCCFEWZJAS1RKctEshBBCCCEqMgm0hBBCCCGEEKKESaAlhKj2oqOjSUxMVGeXmUUhITS2t1deQyCEEEKIyk8CLSFEtefr58e7s2ers4UQQggh7psEWkIIIYQQQghRwiTQEkIIIYQQQogSJoGWEEIIIYQQQpQwCbSEEEIIIYQQooRJoCWEEEIIIYQQJUwCLSGEEKKCO3z4MIMHD8bL25u0tDR1cbHorysmJgaf3r3ZvWePerFKp6T369KlS7w1cyaHDh1SF7Fr924GPP00Fy9eVBcVqqS3s7xUlf0QojRJoCWEEEJUcMHz5pGcksJLw4djY2PDe++/z7rQUPViRaK/LktLS06cOMHlS5fUi1UIxdnPkt6vs2fPsnbtWv48fFhdxIULFzhy5AjZ2dlQzttZkqrKfghRUUigJYQQQlRg2dnZJCcn07ZNG/z8/KhZsyY//vgjv/32G1evXkWj0XD58mU0Gg1JJ05w48YN9SoUxtZVmjIzM7l27ZryOT09nZs3byqfL1++zJ07d9BoNJw9e5YzZ85w5coVsrKyyMrKMthPc0pjvzw9Pdm/fz8jR4xQ8lJSUrikCibKezvNuXHjBsePHyc9PV3Jy8/P59KlS+Tm5gKQk5PDpUuXKvR+CFFZSaAlhBBCVGDPPfccly9f5o99+3Dr3JlnhwwhMzOTPXv20NHZmWPHjvGUiwsjRo6kd+/erN+wQb0KhXpdpW3atGm4e3iQl5fHzZs3cXF15aWXXwbg6NGjPOXiwg8//sjTzzxDn7596enlhXOnTgx4+ukC+3n+/Hn16hWlsV/Hjh2jW7duhIaGotFoeHXcONw9PHB1c+P7779Xlivv7TRlyZIltGnblr79+tGhY0femjkTgISEBFxcXdm2bRsA33//PS6urrRp27ZC7ocQlZkEWkIIIUQF9tXXX1O/fn26dOnCb7/+yupvvsHOzo7u3buza+dO8vLyAEhKSuLrr76iV69e6lUo1Osqbd7e3mRnZ/Pn4cPExcWRk5PDoUOHuHnzJr//8Qdoe10SExM5GBfHTz/9BMCypUsL7GfTpk1Va///SmO/NBoNaHuAfv/9d3799VdeGTOG7b/8ohxzoNy305iD8fF8tHAhY8eO5URSEuPGjWPt2rX8/scfyn4pP7V1wsLCKtx+CFHZSaAlhKhWnvf1pbG9vUECiImJKZBfVikkJAQAXz+/AmUVLUVHR6uOqChtLR5/HGtra+zs7GjTpg0tWrTAysqKunXr0rFjRywt//df+eTJkxk4cCCPOzqqV6FQr6u09enTB4CoyEiio6Np2bIlOTk5xMTEsG/fPtq3b8+TTzxBbm4uYWFhxB88iIWFBU2aNDG5n8aU9n4dOXoUgFfHjcPFxYVRo0YpZRVpO3V039Mxo0dTr149Xn7pJdBOYGGKpYVFhdsPISo7098iIYSowry8vJQEUK9ePYO8skzNmzcHwNnZuUBZRUl169ZVHUFR0dhYW6uzyp2DgwOtW7cm6vff2R8dja+vL08++SR7w8KIi4ujb9++NGrUCBsbG5YuW8aWrVv5eOFC7LU3QCoKTX4+AHna55p0vUEVlW5787U/c3JyALC1tcXSygpAeUarou+LEJWZBFpCiGopIiJCSWiDHP28skyjR48GYPHixQXKKkrq1KmT6giK8vTwww9zIimJyMhI7ty5oy6uUPr07s2ff/7JsWPH6N6tG728vVm3bh23b9+mb58+7A0Lw9bWltGjRzP1P/8x6CGpKPvZoUMHAJZ9+ilhYWEsX77coLyibKeOq5sbAJ9//jknT57kiy++wNLSkp49etCwQQMAtmzdypatW/nss8+UehVtP4So7Cw0ciuj3M2dO5fg4GBCQ0Nxd3cHIDY2loCAALp27arkmbJ06VLQzoa0ePFilixZQlBQEG8EBakXrVQSExN5d/ZsdbaoJgL8/QkICFBnF1toaCipeu8dCg0NJS0tjTlz5ih5wcHBNG/eXAl4ylpkZCRRUVGMGjUKRzPDvsqDbpt69epFVFQUmzZuxNPT02CZ6OhofP38CAwMZPr06QBKL920adMMltWJjY3lwIEDRs97Hh4ebN60SV2lWuvStStOTk6s/uYbAEJCQlgUEoKVlRUb1q/neV9fQkJCGP7ii+qqBeivKzEpiT59+hS57v04ePAgQ4YOpU6dOiQeP87+6GheeOEFGjVqxKGEBMLDw3l5xAg6d+7MzRs3SDpxgokTJzJn9myD/YyPj6dRw4bq1StKer/01/HiCy8wZcoUft6yhZo1a/LySy/x1ddf83tUFC1btizX7TTlww8/5Mvly8nJycHOzo7Z777LS9ohhIHTpxMaGkqtWrV48YUX+HrVKv74/Xe2bt1a4fajKlsUEkJISIjBeVDnfs6h6vKAgADmzJnD3Llz1cWijEigVQFIoGWc7uJNVE8l9Tf8vK8vMTEx6mxRROHh4Xh7e0ugVc7y8vKwtLTEwsJCycvKysLCwgI7Oztyc3OxLuLQQfW6ilP3fuXm5mKhfQZI/XnI0KHcvXuXnTt2oNFo6Orujr29PVt+/hlU+2lOaeyXeh3Z2dnY2tpiY2NDTk4ONjY2Sll5bqcpubm5/PvvvzRo0MDgbwft1Pu1atXCxsbGYBsq4n5UVRJoVX0SaFUAEmgZp7t4c3FxYeXKlepiUUUlJCQwYcKEEvsb1gVa4eHh6iKFj48Pzs7OLF68WF1UJtasWcOaNWv45JNPKswQPd02SaBV+eTm5tLLx0d5Bkff5EmTeFk7vXpFsWDBApYuW8bjjo7k5uWRmZnJl198Qe/evQ2Wqwz7VRm2saiq0r5UVBJoVX0SaFUAEmgZJ4FW9VRagZbuoXBjLC0t8fLyIkL7vFZZCw4OJjg4WAlqKgL1NkmgVbns2bPHYApynXbt2tGsWTN1drlLTk4mOTkZW1tbnJycqF27tnoRqCT7VRm2saiq0r5URBJoVX0yGYYQokpRT9+uGzZoaWlpMgFERUUVyC+rFBwcDNqeNXVZWSdRNfTt25cBAwYUSBX14tjR0RFvb2+6du1qMsiikuxXZdjGoqpK+yJEeZD/VYUQQogq5nlfX2ZX0smEEhMTed7Xl9DQUHVRpRAaGsrzvr4kJiaqiyqF2bNn87yvrzpbCHEfZOhgBVDdhw7KpBfV2/jx4xk/frzy+UGHDhZlqKCObnicvm+++aZMZx8cM2YMa9asUT7PmTPHYEbEsqLrzdIdNxk6WLk1trevtMdR9/d0v+eA8qYbDmbsu1IZ6M6hly5eVBeJEiZDB6s+CbQqAAm0JNCqzh400AotwvTtpty5c4clS5Zw9+5dAOrWrUtgYKB6sVKVmZmpfIcfeughAgMDqVmzpnqxUqE/pb0EWlWLBFrlRwItUVQSaFV9EmhVABJoyaQX1ZEuoHrQQEumb79/+hOASKBVtUigVX4k0BJFJYFW1SeBVgUggZYEWtVRSQdaRenBMkbXq1WzZs0y783SyczMZPny5WXamxUcHCyBVhUmgVb5kUBLFJUEWlWfBFoVgARaEmhVRyUdaBXlmSxTgoODDYbRlYfk5GQcHR3V2aXGUjWlvQRaVYsEWuVHAi1RVBJoVX0SaFUA1SnQWhQSos4iNTWV9evX07hxYwYPHqwuFlWE+vdbkQKt6kgCrapNAq3yI4GWKCoJtKo+CbQqgOoUaDW2t1dniWpC3WMpgVb5kkCrapNAq/xIoCWKSgKtqk8CrQqgOgZa+hfWoupbuXKlBFoVjARaVZsEWuVHAi1RVBJoVX0SaFUA1THQio+PVxeJKszNzU0CrQpGAq2qaVpgIOvXrzfIM/Y7q6jUs4ja2dlxMC4OOzs7g+UqotTUVLp07WqQV5n+lnXfY31FPQ+L+yOBVtX3v/9ZhRBCCFHpqS+KPTw8Kk2QhZHtHzduXKUIsgAcHBzw9/c3yFPvT0Xm6emJh4eH8tnOzo7x48YZLCOEKB4JtIQQQogqQn2xX5ku9FFd7FfGC339413ZglxU21+ZglwhKioJtIQQQogqRHexXBkv9NHb/sp4oa8f6Fa2IBe9QLcyBrlCVETyjFYFIM9ola07d+5w7NgxnnjiCR599FF1sVH3Uwcz9bKzs0lKSuL27dt06tSJRx55xKBecZw4cYK7d+/SunVrbG1t1cWgfXbgzTffZNKkSfTs2VNdXOrkGa2KR57RgtDQUEJVzzNVFWfOnKFBgwaVLlDROXXqFE888QTW1tbqogrv7t27nDlzBicnJ3VRpZCdnU1WVhYODg7qoiqjvZMT8+bNU2eXOXlGq+qTQKsCkECr7Bw8eJD333+fCxcu8Pbbb+Pr66tepID7qYOZetHR0cyaNYubN29ibW2Nl5cXH374IQDLli3D0dGRZ599VrU24yIiInjzzTcB+OCDD+jXr596EQCSkpIYOXJksba/JEmgVfFIoPX/L3KEENVLWZ1jCiOBVtUnQwdFhZKRkcHJkye5d++eknfr1i1OnTpFRkaGkqfRaLhy5QoAmZmZJCcno7tnkJmZyfXr15Vl79y5Q3p6Ordv3yYoKIhWrVopZTo3btxQ1od2O27cuGG2jjmm6t27d493332Xtm3bEhERwf79+5kxYwZo7yJu2bKFiIgIg301tv8AOTk5LFu2jLZt2xrkY+I46pfpHy8hqrvw8HDy8/MlSZJUDZIQZUkCLVGivvrqKxITE9XZRRISEkL//v15+eWXGTJkCDk5OaxatQpvb29eeukl+vXrp/T8nDx5kmeeeYZ33nmHvn374ufnx1tvvQXA66+/jr+/vxJIzJ49m4CAAGxtbdm+fTvDhg0zaBftEKJnnnmG33//nfPnz/P000+zbds2s3XMMVUvPj6erKwsRo8eTVZWFtevX1eGDb766qtkZ2fzxx9/0K9fPy5evGhy/9Fu882bNxkzZoxeC8aPo87WrVsZMGAAfn5+zJw506CeEEIIIYQoORJoiRIzLTCQ2XPmkJWVpS4qVHx8PD/99BPDhw/nt99+Y8SIESQlJfHll1/ywgsvEB4ezvDhw9m0aRNxcXFKEHXmzBlWrFhB9+7dCQ8P58qVK3h7e3P16lWSkpK4d+8esbGxeHl5gXYWK2OGDx9O/fr1+eyzz/j8889p0KABftr3iZiqUxhj9c6fPw/AO++8w7PPPouPjw/Lli0DYNGiRdSuXZvOnTvz3XffkZ6ebnL/MzMzWbVqFRMnTqR27drK+o0dRysrK6X8zp07LF++nO7duxMWFmbQiyeEEEIIIUqOBFrigWVnZzNmzJgCL8ksjuPHjwPg5+dHgwYNGD58OAkJCQD4+/tjZ2fH0KFDAQx6zAICAnBxcVEmeMjIyKBPnz4AREVFcfDgQW7duqXkmWJra8uECRM4e/YsYWFhTJgwgRo1aqgXe2C63qXRo0ezbds2PDw8+O6778jIyKBZs2ZYWVlRp04d2rZtqzzHZmz/v/nmGx577DGeeeYZcnNzAcjNzTV6HHXP3mDieAkhhBBCiJIngZZ4INnZ2Tz//PPs3LVLXVQsumBBf/y0rtdKl6dbpmbNmsoyOvoP8tvb29OuXTsiIyOJioqiTp06dOnSRV2lgEuXLikzXCUnJ6uLS4Sul6tVq1bY29vj6uqKRqPhxo0b6kXN7v+JEyc4e/Ys3bt3Z+rUqaAdIql7JquwcejqiQ+EEEIIIUTJkkBL3LfExETcOncmMSmJFi1a0KJFC/UiRaabBnfVqlUcOXKEBQsW0Lp1awDWrFnD33//zdq1a7G0tKRr166q2gX16dOHs2fPsmvXLry8vJQAKi4ujqSkJADOnj2r9Jr9888//PDDDwwfPhx3d3d++uknZVidqTqFMVavQ4cOAGzZsoUTJ06we/duGjRoQNOmTUHbs3bmzBliYmLM7n9QUBCLFy9m8eLFTJo0CYCRI0cqdfSP4+3bt7VbJIQQQgghyooEWuK+REdH89zzz3P9+nU8PDxYuHAhtWrVUi9WZB4eHgwbNoydO3cyduxYjh49SteuXRkzZgy//vorAQEB7Nu3j7fffpsWLVoogZOpn3369MHKyoqbN2/Sv39/0A7bmzJlCp999hloJ5PQTZu6YsUKbGxsGDVqFJMnTyYnJ4evv/7abB1zTNVr0aIF48aNIywsjBEjRnDjxg3mz5+v9DA9++yznD9/nmnTptG6dWuT+9+mTRt69OhBjx496NSpEwDt27fHy8urwHG0trYucHzUP4UQQgghRMmSQEsUW2hoKL5+fly/fp0+ffowe/bsBwqydN566y3++OMPduzYwY8//oiNjQ2TJ09m//797Ny5k4iICJ577jnQDr07cOAAQ4YMAWDQoEEcOHBAmU7d3t6emJgYYmNj8fDwAMDGxoa4uDji4+OVtG/fPgD++9//EhYWRt26dWnbti3R0dHMnDnTbB1zzNWbMGECUVFR7N69m23btvHUU08p9caPH094eDhhYWE89thjJvdfn4uLC7Gxsfj4+ICJ41jY8RJCCCGEECVLAi1RLLNnzyZQ+0JS3UtlS9JDDz3EY489ZpBnZWVF/fr1sbCwKJBv7rOlpWWRe2wsLS0N6ltbWxtMIqEvLy8PPz8/hg4dWiBt3rxZvbhRNWvW5NFHH1Vng/Y5rjp16iifTe2/PvV+mjqO5j4LIYQQQoiSY/xKUgiV7OxspgUG8tXXX1OrVi1ef/11ZRa86sbKyopp06YRGBhYIBl7O7sQQgghhKh+JNAShdLNLLh+/Xpq1arFwoUL6du3r3qxaqVHjx54e3sXSPb29upFhRBCCCFENSSBljArMTGR555/XplZcOHChQ80u6AQQgghhBDVgQRawiRdkJVUSkGWm5ubpCqYhBCipJ05cwZnZ2d++eUXdRFpaWlMmjSJAwcOAHDw4EG6detG+/btSUlJUS9e4sxtmxCiepNASxgVGhpKn759lZkFP//88xKZWVDN1taWli1bllnSUeeXZiqv/SyPNoUQojRkZmZy7NgxLly4oC7i9OnTLF++nLi4OADefPNN/v77b8aOHUuNGjV46623WL16tbpakRVW39y2CSGqNwuNRqNRZ4qyNXfuXIKDgwkNDVUmU4iNjSUgIICuXbsWOsHC0qVLAUhJSWHx4sUsWbKEoKAg3rjPGQG/+uorZs+ZA8DQoUOZMGGCehGjZsyYwbFjx9i0cSOenp7qYgAaa59hio+Px83NjZYtWxbpvVQlZcqUKQDK+63KwpQpU8plP8ujTbS/WzU3NzdcXFxYuXKlkpeQkMCECRMYP34848ePL5Bf1L/h5319iYmJIT8/X10kzLC0tMTLy4uIiAjlM6Acx+DgYIKDgwkPD8fb25tevXoRFRVl9PsdHR2Nr58fgYGBTNfOStq8eXMAk3+DsbGxHDhwwOh5z8PDg82bNqmrlLhFISGEhIQo+ygqjnv37nHixAlq167NE088QXx8PF26dOGLL77gueee49q1a7Ru3RoLCws0Gg1nzpzB0dGRmzdv0qFDB9q0acNPP/2ElZUVLVu2xNPTk6+++oqGDRuqmyrgypUrpKWl4eTkxK1btwrU12g0XLx4EXt7e44dO0ZWVhZeXl588cUXTJw4Ub06UcFYWlqW2TmmMLpzkP55UOd+zqHq8oCAAObMmcPcuXPVxaKMSI+WMDAtMFAJsl5//fUiB1lCCCFESUhOTqZly5b07NmT9u3bs3z5cqVs9erVNG3alHbt2hEQEADAoUOHaN26NatXr8bb25sLFy4QFhaGo6MjPXr0ICMjg+3bt9O4cWPOnTun11JB06dPp3Hjxri5ufHEE0/QrVu3AvUPHTqEg4MDgwcPplOnTkRFRalXI4QQIIGW0MnOzuZ5X19lZsGPPvqo2s8sKIQQouxt2rSJ1NRUTp48SXp6OgMHDlTKbt68yd69exk4cCAbN27kwoUL6Abm5Ofns2HDBho0aED37t2JjY1l8+bN1K1bFx8fHw4ePKj0EhgTERHB0qVLmT59OufPnycoKIiff/65QH1de0ePHmXDhg0MGDBAvSohhAAJtARAamoqzz3/PDExMTRo0ICFCxfSsWNH9WJCCCFEqXN3d8fa2prOnTvzySefUL9+faVsypQpeHl5MWjQIAD++ecfvZr/e/7WxsaGunXr0r59e1q1aoW1tTWPPPIIrq6uJl9EDyiTaUycOJGmTZsyffp0WrdubbL+m2++ia+vr94ahBDCkOkzjqgWEhMT6d2njzKz4BdffFGiMwumpqaqs4R4INHR0XTu0oXQ0FB1kRCiCujWrRsJCQn06dOHuXPnEmTkWU0rKyvQe6awJOTk5ACQl5enLjLKxsZGnSWEEAYk0KrGdu7cyXPPP8/169fx8PBg4cKFJT6z4LTAQJ739SU6OlpdJKqZS5cusXLlSiXppkJOSEgwmh8dHc2ikJACKXT9etLS0gicPp3OXbpw9epVVUtCiMrs999/R6PRsGTJEhwdHR/4hl2tWrU4evQou3bt4vbt2+piRZcuXQCYP38++/fvZ/Lkydy8ebPI9YUQQk0CrWoqNDSUMa+8okzfPnv27BILskLXr1cuilNTU4mJicHXz4/nZYhFtaYOtLZv3w5GAi1dfkxMDCHaGZn00/r165V1pqWlcebMGeWzEKLyO336NK6urjz66KPcvn2bGTNmKL1Hxn6aywMYM2YMp0+fZtCgQVy7dk3JV+vfvz+TJk3ixx9/pEePHkRHR2NjY1OgvrH29H8KIYSOBFrV0LTAQAK1UzC//vrrRodlPIj169crF8VpaWlKfkxMjMFyonpp2bIlK1asUJLu727QoEFG8/39/dm0cWOBNC84WFmnh4cHTk5OymchROU3duxYrl27xvnz50lNTaVHjx44Oztz7949xo4dC8CoUaO4d+8ezs7OBcpOnz7NJr2pu+fMmcO///7L1atXsde+YsSUzz77jOvXr5OWlsaff/5JjRo1CtRXt6f+LIQQOhJoVTPTAgOVmQVff/31UplZcF5wsHJR7NSuHQB2dnYlHtCJyqVOnTq4uroqqVWrVgDY29sbzXdwcMDT07NAcnJywsPDg00bN7J50ybs7OxULQkhKrvatWvTtGlT5VksAGtra4Nl9D/r/9vKygoLCwvlM8AjjzxCvXr1yM3NpV27dgVeuN6yZUvlPX+2trYFAjJdfR1z2yKEEDoSaFUzuiBr4cKFpRJkATg5OSkXxQ4ODgQFBXEwLq5IL58VojCenp5s3rSpwEtzhRCiMNbW1ixcuJCPP/64QCqt/xOFENWXBFrVUIsWLUp0ZkFzVq9ezRtBQdLrIIQQokIYNGgQQ4cOLZAef/xx9aJCCPFAJNASlc79TOd74MAB9u7dq84uMmnTtAdtUwghhBCiKpJAS5S7/Px8NBoNt2/fRqPRkJeXx927d5XyO3fucOvWLQCOHz/O0qVL0Wg0ZuvpytG+EyUrK4uMjAxlnebqIm2arVdYm0IIIYQQQgItUQGEhYWxYMEC5s+fz8cff8yiRYuYNWsWycnJxMbG8sUXX7Bw4ULCw8PZvXs3qampbNiwwWy9HTt2sGXLFgDeeOMNNBqNtFlGbQohhBBCCAm0RAWg0Who3Lgxs2bN4vz580ycOJFOnTrx999/4+rqSv/+/WnTpg2nTp2iX79+NG3aFH9/f7P10BsGp9FoCgQD5upKmw/WphBCCCGEkEBLVBAPP/ywMj3uww8/TI0aNcjLy2PLli0cPnyYWrVqKRf3up/m6llaWpKTk8OtW7cMltdnqq60ab5eUdoUQgghhKjuJNAS5c7S0hILC4sCydLSkrp163Lu3DnOnj2LhYUFjRo14vLly4SGhpqt16pVK+Lj4/n000+pVasW1tbWBu9VMVdX2nywNoUQQgghBFhoZNxPuZs7dy7BwcGEhobi7u4OQGxsLAEBAXTt2lXJM2Xp0qUApKSksHjxYpYsWUJQUJDR91Y1trenQ4cOLFy4UF30wGbMmMGxY8fYtHGjyXccNda+BDI+Ph43NzdatmzJ1KlTAbCwsCA/Px9LS0tlOJqFhQV3797loYceUspyc3NB+1JKc/VycnIKvETyP//5DwCffvqp2bol3WZ57Gd5tIn2d6vm5uaGi4uL8kJQgISEBCZMmMD48eMZP358gXxTf8Nqz/v6EhMTI71rxWRpaYmXlxcRERHKZ/R6NYODgwkODiY8PBxvb2969epFVFSU0e93dHQ0vn5+BAYGMn36dACaN28OwLRp0wyW1YmNjeXAgQNGz3seHh5s3rRJXaXELQoJISQkRNlHIUTVZ2lpWWbnmMLozkH650Gd+zmHqssDAgKYM2cOc+fOVReLMiKBVgVQ3QMtUyeR0jBlyhQAPvvsM3VRqZkyZUq57Gd5tIkEWpWGBFr//yLnk08+oVOnTupiIUQV5OPjU2bnmMJIoFX1SaBVAUigZfwkUhok0Co9EmhVLhJo/f+LHCFE9VJW55jCSKBV9UmgVQFIoGX8JFIaJNAqPRJoVS4SaP1vu6NjYtTZogqIjo4mJiYGf39/HBwc1MUCCA0NJS0tjaAinGerGoemTQkICFBnlzkJtKo+CbQqAAm0jJ9ESoMEWqVHAq3KRQItUZXpLmCN/b2K/9GdOy9dvKguEmVEAq2qT2YdFEKUq4sXL5KQkKCkU6dOqRcRQgghhKh0JNASQpSr7du3M2HCBCV98skn6kWEEEIIISodCbSEEOXKw8ODoKCgAsnTw0O9qBBCPLBLly7x1syZHDp0SF3Ert27GfD001yU4XTlwtzvpjSdS07Gp3dvdu/Zoy4qsE2HDx9m8ODBeHl7k5aWpl5cCAMSaAkhypWnpydvaJ/H0k/yXIUQJUd9saj2oAGGuQtVc8zVU29zSV3gnj17lrVr1/Ln4cPqIi5cuMCRI0fIzs4G4L3332ddaKh6MVFC1MfX3O+mNGVnZXHixAkuX7qkLiqwTcHz5pGcksJLw4djY2NTYB+E0CeBlhBCCFHFqS8W1dQBRnGZu1A1x1w99TarL3AxcqFeFJ6enuzfv5+RI0YoeSkpKVxSbUNWVhY//vgjv/32G1evXjUoq+pSU1M5f/48Go2Gy5cvo9FoyM/P59KlS8qL7XNycgyOWX5+PqdOnSIxMZFbt24BKPUBMjIyOHPmDLo52IwdX/3fzb1797hy5YqSbt++rbSVkZFBYlJSgXY0Gg1JJ05w48YNZVljcnJySExKIjk5WV3E1atXDbZTf5uys7NJTk6mbZs2+Pn5UbNmzQL7IIQ+CbREubp16xanT58us6Sjzi/NVF77WR5t3o/U1NT/TbOtSqmpqepFhai2zF1Iqi86MXIhaSy4wESAcT8X1EWl3i59xbnAbdiwodEL9aI4duwY3bp1IzQ0FI1Gw6vjxuHu4YGrmxvff/+9styzQ4aQmZnJnj176OjszPnz5w3WU1W99tprdOnaFXcPD8a++ipPubjw119/kZCQgIurK9u2bQPg+++/x8XVlVOnTpGWloarqyu9fHzo07cvbp07k5iUxLFjx3jKxYWJEyfSvkMHevTsyTjtLLPGjq/+7+bbb7/FuVMnJc0NDgZg/vz5tO/QgaFDh9LpqacIDw9X2hkxciS9e/dm/YYNBvukLzU1FXcPD4YOHYqXtzdr165Vyn5at46nXFzo0bMn4ydMANXfy3PPPcfly5f5Y98+3Dp3NroPQuiT6d0rgOo8vbuoekxN7964cWMGDx6s5F28eJHt27cbLKfP1N+wmkzvfn9kevfK5ejRo/QfMIDevXsTFhbG/PnzeWXMGObPn8/nX3xBrVq1sLCwYPmXX9KyZUuGPvcc2dnZ3Lt3j/fmzaNTp070HzCAjxcu5OWXX0aj0TBu/Hh+/fVXLCwsaNOmDSdOnCAiPJzr16/z7JAhfP7ZZzz//POsXr2ad2bNIjIiglq1ajF48GD+uXIFjUbDI488woYNG8jNyWHA00/z0YIFjBw5Ur35oL3AVW+Xs7MzA55+mk6dOnHs2DHy8vIYNGgQX61cqezzxwsXsnr1apJOnADA1taWs3//jZe3N3/99Zey/gOxsTRr1gwKmd79yJEjyrY2b96cF158kVfGjMHX15fpr7/OX3/9RUR4ODVq1ODpZ56hY8eOvPvf/9K+fXvle1IVGJvefd++fQzz9zd6PLKzsxkydCifffopvr6+fLN6NbNmzSIiPJxHH32UP/74g6effppr167R1d2dsWPH8vxzzzHg6adp1aoVCz78kC++/JK9e/dyKCGB27dvFzi+x44dU343Q4cOJTU1lQ0bN7JixQq+WrmShg0b8uyQIXz26ac899xzDH/pJdLS0vj8s88Y8PTTNG7cmPfmzaOdkxOPOzoa7K/O8uXLCZ43j8N//kmdOnXIzMzk6tWrRrfzz0OH+Oeff5Rt6t6jB0OGDKFFixZ8tGDBA/+NyPTuVZ8EWhVAdQ209N+pVFYSEhIAcHV1VReVmurSpo7+O7F0zAXVrq6uBtupC8BM/Q2rSaB1fyTQqlx0wYH+hWT61atGLzpffuklkxeSukAoKirKZIDxIBfU5gKtkrzAbdOmDWfPnjV5kVvUQCszK4sPP/yQ6OhoHnd0NNjXNm3a0M7JCU9PT77+6iuDdVQFxgKtzz7/nPnz5xs9Hub+Ltq0aUNsbCwRERGkp6ezYeNGnnvuOV4ZM8bg7+K7775jxltvsXvXLjp06FDg+Or/bkaOHMk///xDTy8v3Lt2Zc2aNXz+xRe8//77+Pj4YGtry8mTJzl37hy/bNvGwEGDeP/99xn7yit6e1nQwYMHed7Xl/r/93+MHDmS1157jVOnTpnczvz8fIOyp1xcaN++Pd9pe8LU+1AcEmhVfUUPu4UoYboX1ZZlWrFiBStWrCiQX5qpurSpS6Y0bty4wLLGkn6vlxDC0OTJkxk4cCCPOzoSd/AgAJt//pnxEyaQlpbGuXPncHV1xdramgEDBrBixQoeffRR9Wo4cvQoAK+OG4eLiwujRo1SL2JUgwYNaNKkCUuXLuWTTz7B0tKSzMxM9WJGmduusa+8goeHB/369gXtMEJ9LR5/HGtra+zs7GjTps3/8lq0wMrKirp169KxY8di9SToaLQ3FvK0wySr+71n3XEwdjwsrawAlCGl+mV79uzhueef59+MDNw6d8ZKu6yabh1FvTE28+230Wg0fPTRR6DXplfPnjw9YADTAwNZvXq10p6NtbVBfWM6d+7M7l276NGzJx8vWsQcI0FIcbdTCFOKf1Yqovz8fKKjo7lw4YK6qMykpaXx2muvceDAAXXRfSnp9QlRnZgKtMqj102Iykr/QtLURWdRLiTNBRglcUFtTFG2q6wvcDt06ADAsk8/JSwsjOXLlxuUP/zww5xISiIyMpI7d+4YlFVF7du3BxPHo2GDBgBs2bqVLVu38tlnnyllx44dA23A/ESLFuTl5Sll5pg7vjt27GDnzp3069ePEydOkJiUhMtTTwFw6fJlunfvTseOHYsUXOmLjY1FA7z/3ns4ODjc90ybOub2QYhSC7QuXbpEt27dWLBggbqo1MyYMYPVq1crn0+fPs3y5cuJi4szWK6oSnp9QgghREkxddFZlAtJcwFGaVxQUwoXuNznRa61dsZCaxsbevXqxfPPPcfGjRsZN348Tw8YAKAEkC++8AJnz53j5REjyMzKMlhPVdSrVy+GPPssGzZs4NVx42jatKlS5uDgQEBAAJGRkbzxxhsMGjgQAGtra4YMGUKjhg3x6d2b/0ydyuOPP46VpaXBsUbvRoHus/r46i9/5MgRADZt2sTwl17ivffew9PTk2lTp7Jq1So6PfUUXt7e/LZjR4F2zDl77hz9+vWjdZs23LlzhymTJxeor7+dBcpsbLDWC+7U+yCEvlILtHR3wDQaDRqNRunZSk9P5+TJk0Xuns/PzycxMZHDhw9z8+ZNg7IrV65w6NAh7t69y7Vr11i1ahWbN2/mn3/+AcBb+6DsxIkTSU9PNxjecOvWLWUWJWNtFLY+nevXr/Pnn39y5coVJe9B9leIqurGjRskJCQUSCVxsSVEVae+2EM7K5+xi86iXEiaCzBK4oLamKJsV3EucLnPi1yndu1IPX+e4S++iIWFBZ9//jknT5zg1MmTzJs3j/MpKbRs2RK0k/KcPHGCpMREGjVsqF5VlWNpacny5cs5kZTE8WPHCgzlXrJ4MSeSkjiRlMR7771H6vnzPPnkkzzxxBMcPHiQw3/+SWxMDOFhYSxatMjgWAP4+/uTev48Tu3agZHjq7/8zJkzuXTxopLW/fQTADNnzuTs33+TEB/PX6dO8fHChQXaMWf4iy9y6uRJDiUkcCghga5duxaor7+d6rKY6Gi+WbVKWZ96H4TQV2qTYaSlpeHg4MDkyZMZM2YMbm5uBAQEsH79ejQaDb6+vmzcuFFdzUBKSgqenp5cunQJjUbD//3f/xEWFoazszOBgYEsW7YMjUaDvb09dnZ2nDx5Uql79uxZMjIycHNzY8WKFXz77bekpKSQlpaGhYUFfn5+REZGkpCQYLSN4cOHk5SUZHJ948eP5/3332fu3LnKHb2JEyfy5ZdfkpCQUKz9rY6TYQihoxtCqJOQkMCECRNM/g2ryWQY90cmw6h8cnNzCwQauvwrV65gZ2dH7dq1Abh58ybZ2dk0aNBA6Z0xVj87OxtbW1tsbGzIyclR3k8FkJmZSa1atbCxsTGom5uby7///kuDBg3Iz8/HwsICS0tLo+tXK8p2qdvS/TsvLw9LS0ssLCyUZdG+j8nCwgI7Ozslz9xkGOJ/jE2Goaae8KKyyM3NpZePjzL8Vd/kSZN4+eWX1dnlQibDqPpKrUdLny6WO3bsGBEREQwcOJBNmzYV+mb3hx56iI8++ojr16+TkpJCZmYma9asISIigqVLlzJ9+nRSU1N544032LJlC3Xr1sXHx4f4+HiaN2+utJufn8/QoUO5ePEiBw8e5O7du+zatYshQ4aYbOPnn382u77o6Gjeffddpk6dyr///ktgYCDLly9n7969972/1YGHh0eBpLuzVaNGDRo3biypiqb27dsbPJs1aNAg9Z+HEMIMU0GMtbU19vb2SpAFUKtWLRo3bmzwDJWx+nZ2dkpwpR9kAdSrV0/J069rbW1Nw4YNsbCwwMrKSgnSra2tyc3NpUfPnnh4ehZI33//fZG2S92WjpWVVYEgC6Bu3boGQdb9iI6OprG9PYtCQtRF1dqggQP58YcfaNGihbqoQrO2tmb2u+8yZ/bsAqlnz57qxYUoNWXSozV69Gg6d+7Ml19+ycSJE1mxYgUTJ07838vvXFzUVQ38/vvv7Ny5kytXrrB27VqGDx9OmzZtePvttzl9+jRPPvmksmz9+vXx9vZWeo7i4+OVdgcMGMDjjz/OO++8Q7du3Rg4cCC//fYbTz/9tNE2vv32W7Pry8jIYNasWZw5c4YnnniCpKQknJyc+OCDD+jbt2+x9rc69WgZo7sb7uLiUi5Tvovyoeu5kh6t8iE9WqK07Nmzx+izW+3atVPec1XaitujpfsbLup5p7KJjo5WZzF79mwSk5LYZGK0jSie9u3bFzvglx6tqq9MerTUdHeyCrsw2r59O15eXqSnp+Pp6anc2crJyQHtMIKicnR0xM3Nja1bt7J161bq1atHnz59TLZRGN2267bh3r17oH0wV62o+yuEEEJUdn379mXAgAEFUlkFWaIgXz+/AilR+3iEOl/S/aXjx4+rD7sQ5dOj9fXXXzNu3DgOHjxo9kWm8+bNY86cORw9epSsrCx8fHwYPnw4L774IgMGDODll19m4sSJ/PDDD3z88ce0a9eOhx56iE8//ZSePXuSmJho0O7ChQt56623sLOz47nnnuPbb7812ca3335L8+bNTa6vZcuW9OnTh7FjxxIYGMiHH37IunXrOHr0KLdv3y7W/kqPlvRoVUfSo1W+pEdLPCh55vbBmXs+qiQ1trenefPmjB49WsnTPbs+Z84cg2VF8URGRpo8NxZGerSqvlILtC5fvoy9vT2BgYGMGjWKTp068fXXXzN27FjWrFnD6NGjOXz4MM7OzuqqilOnTuHj48PFixd5/PHHsbW1xd3dnVWrVjF58mSWL19Ofn4+zs7OxMXF8eGHHzJ37lysrKw4f/48V69eNWg3OTmZli1bkpuby86dO+nfv7/ZNoKDg82u75133mHRokXk5ORQt25dPv74Y8aNG8eRI0eKtb/VKdCS/5irL3UgLYFW+ZJASzwoOZ8/uLIMtPS/72hnnoyKipJz5wPSnSuNnRsLI4FW1VdqQwcbNWrEvXv3+OSTT3B2diYnJ4exY8cCMGrUKHJycowGHfpat25NSkoKFy9e5O+//+bo0aN89dVXAHz++efcuHGDCxcucPjwYWrUqMGcOXPIyMggPT0de3v7Au06Ojpy584d7t27R//+/Qtto7D1ffDBB9y6dYuLFy9y7do1xo0bB1BguaLurxBCCFGZeHl5kZ+fX+GSrpcmPDy8QJmxFB4eDtr/99VlpZG8vLxUR1IIURWVWqCFmZmDdJ9zc3Np27YtTz75ZIGku/NtbW1N48aNC8xuBGBra4u96o7aI488Qr169ZTP6natrKwKzKxkro3C1qdfV51v7nN1Fx8fL6kaJSGEEEKI6qZUA63CWFtb8/HHH7No0aICqW/fvurFhRBCCFEOsrOziY6ONkho37UVGRlZ4VJycjIAhw8fLlBmLB0+fBiA5OTkAmUlmcrCopAQGtvbGySAqKgoLC0tlRQVFQXaYcOSipd69eqlOupCGFdqz2iJoquOz2hJL0f14ubmJs9oVTCW8oyWKAbd71g8GN33S/d9Ko1ntHTP/Tg7OxuMyNHJzMzkyJEjBnnNmzfH0dHRIE8UpDt2+udOeUZLmCOBVgUggZao6iTQqngk0BLFofsdq2euq2ju3LnDkiVLuHv3rpJX2DavW7eOzMxM/vnnH+rWrUu9evXMLn8/dDP8lWWgpfvuGqNrH+0Ln8+dO2c0KBOGIiMj8fHxkUBLFJkEWhWABFqiqpNAq+KRQEsUh+53rJ65riLS/e3qmAs4MLL8qFGjWL16tcEyD0o9w195B1q6gAHtBCAyxXvRSKAliqtcn9ESojzcuXOHgwcPkpGRoS4y6X7qYKZednY2sbGxREREcO3aNYOy4jpx4gSHDx/m9u3b6iJFamoqL7zwAr///ru6SAghqpRp06ZRt25d0M6KaCrY0NFfHm3gUVkYe3YuNTUVCnk+De0MybVq1cLV1bVAuSTDlJmZqTryQhSN9GhVAKXVoxXg709qaqrBHZbq3qN18OBB3n//fS5cuMDbb7+Nr6+vepEC7qcOZupFR0cza9Ysbt68ibW1NV5eXnz44YcALFu2DEdHR5599lnV2oyLiIjgzTffBO3rBvr166deBICkpCRGjhxZrO0vSdKjVfFU5h6tRSEh6iyhEuDvj4ODgzq7yFJTUwldv97g8/r16wsdhldRRGpfIjtq1KgiPXukW97Z2ZmhQ4eqi++bLmgrrR4teXaubOjOg5HSoyWKSQKtCqC0Ai1PDw98/fzw8PDgjaAgPD09K3yglZGRwZUrV2jRogU1atQA4NatW6SmpvLYY4/x6KOPAqDRaLh69SoNGjQgMzOTzMxMmjdvjoWFBZmZmVhZWVGnTh3Q9irduHGDWrVq0b9/f7p27UpERIRB0HHjxg1u3bpFgwYNlO2oUaMGVlZWJuuYc/v2baP17t27x9NPP03r1q35+OOPefjhh8nMzOSRRx4hOzuboUOH4uzszLvvvqvsq7H9B8jJycHf35/atWtz4sQJg0BLfRz1A61evXqRnZ2tHK+yIIFWxVOZAy15UW7hjP2eikMu4EuGOrBSfy6pQKtu3bp06tRJXSwe0OHDh8nKypJAS9w3CbTKQWRkpNmpQevUqYODgwNJSUnFCrTc3d1JS0sjLS2Npk2bUtfOjsSkJGU5Dw8PYmJiKmygFRISwrp169BoNDz22GNs27aNtWvXsmLFCuU/J19fX95++21OnDjBiBEj6NevH3v27EGj0eDj48PChQt55ZVXuHTpEr/99hsWFhbMmDGDhIQEwsLCyM7O5uTJk0yaNMkgaFq1ahVffvkln3zyCY6OjgwbNoxp06YxfPhwk3UKY6xedHQ0U6dO5YsvvqBp06bUrl0bOzs7APz9/Tl79qxSf9u2bezYscPo/gN8//33rF27lpkzZzJjxgwl0DJ2HE+fPs3IkSNp164dJ0+eJD8/n969e/PRRx8p7ZUmCbQqnsoeaLVq1YqgIvx9VDe//PIL27dvN/p7Kg7d79TZ2ZnFixeri6ukM2fO8OSTT6qz78v06dM5cuRIgcBK/bmkAq3K8OxcZaT7PUmgJe6XPKNVAV2/fp0kvQCpqGJjY0lLSwMgLS3NIMgCSExMNPhckcTHx/PTTz8xfPhwfvvtN0aMGEFSUhJffvklL7zwAuHh4QwfPpxNmzYRFxeH7v7AmTNnWLFiBd27dyc8PJwrV67g7e3N1atXSUpK4t69e8TGxuLl5QWgBDVqw4cPp379+nz22Wd8/vnnNGjQAD/t3VxTdQpjrN758+cBeOedd3j22Wfx8fFh2bJlACxatIjatWvTuXNnvvvuO9LT003uf2ZmJqtWrWLixInUrl1bWb+x42hlZaWU37lzh+XLl9O9e3fCwsK4cuWKUiZEZVK7dm1cXV0lqZJ9Cff21atXD29v72qRXn311QJ595tkBj8hBBJolQ9vb280Go2SdGO4Q0NDSUlJISUlhdDQUHW1QqWkpBAYGAhAUFAQmzZuBKBp06YsWbyYg3FxqhoVx/HjxwHw8/OjQYMGDB8+nISEBND29NjZ2Snj5vUDxoCAAFxcXOjZsydoh8z16dMHtC9nPHjwILdu3VLyTLG1tWXChAmcPXuWsLAwJkyYoAxdLEk5OTkAjB49mm3btuHh4cF3331HRkYGzZo1U4Y8tm3bVun1M7b/33zzDY899hjPPPMMubm5AOTm5ho9jrqeCkwcLyGEEEIIUfIk0KrC6tatqwRYAQEBRntYKgpdsKA//EvXa6XL0y1Ts2ZNZRkd/WFP9vb2tGvXTnm4uU6dOnTp0kVdpYBLly5hbW0NQHJysrq4ROh+B61atcLe3h5XV1c0Gg03btxQL2p2/0+cOMHZs2fp3r07U6dOBWD27Nncu3fPoI4p6mFiQojqLTo6msb29krSPZ8VFRWFpaWlpCKm0jZ79mye9/VV0uzZswE4cuQIvXr1klQC6dtvv1UfdiHuW+mfFUS5cXJyIiAgQJ1dITk5OYH2WakjR46wYMECWrduDcCaNWv4+++/Wbt2LZaWlnTt2lVVu6A+ffpw9uxZdu3ahZeXlxJAxcXFKcMyz549q/Sa/fPPP/zwww8MHz4cd3d3fvrpJ2VYnak6hTFWr0OHDgBs2bKFEydOsHv3bho0aEDTpk1B27N25swZYmJizO5/UFAQixcvZvHixUyaNAmAkSNHKnX0j6O5ad+FEEJUHscTE4mJiVGS7hGBzMxMoqKiJJVASklJUR92Ie6bBFqiQvDw8GDYsGHs3LmTsWPHcvToUbp27cqYMWP49ddfCQgIYN++fbz99tu0aNFCCZxM/ezTpw9WVlbcvHmT/v37g3bY3pQpU/jss89AO1RT95DpihUrsLGxYdSoUUyePJmcnBy+/vprs3XMMVWvRYsWjBs3jrCwMEaMGMGNGzeYP3++cif02Wef5fz580ybNo3WrVub3P82bdrQo0cPevToocw01b59e7y8vAocR2tr6wLHR/1TCCHQTkeen58vqZiprKnbl/TgKTw8XH2YhXhgEmiJCuOtt97ijz/+YMeOHfz444/Y2NgwefJk9u/fz86dO4mIiOC5554D7dC7AwcOMGTIEAAGDRrEgQMHaNWqFQD29vbExMQQGxuLh4cHADY2NsTFxREfH6+kffv2AfDf//6XsLAw6tatS9u2bYmOjmbmzJlm65hjrt6ECROIiopi9+7dbNu2jaeeekqpN378eMLDwwkLC+Oxxx4zuf/6XFxciI2NxcfHB0wcx8KOlxBCCCGEKFkSaIkK5aGHHuKxxx4zyLOysqJ+/foF3vmkP5uesc+WlpZF7rGxtLQ0qG9tbW1yvH1eXh5+fn4MHTq0QNq8ebN6caNq1qxp8E4sfXZ2dso7wDCz//rU+2nqOJr7LIQQQgghSo7xK0khhElWVlZMmzaNwMDAAsnYuyyEEEIIIUT1I4GWEPehR48eBd6b4u3tXeLvsBFCCCGEEJWThUY3h7QoN3PnziU4ONjg7d66N3p37dq10F6SpUuXgvY9WosXL2bJkiUEBQXxRlCQelEa29vToUMHFi5cqC56YDNmzODYsWNm347eWBuIxMfHs3LlSnVxqdPNGOjq6qouKjXVpU2d8ePHq7Nwc3PDxcXF4HeekJDAhAkTGD9+vEEdXb6pv2G15319iYmJIb8cHkivzCwtLfHy8iIiIkL5jN6U/8HBwQQHBxMeHo63tze9evUiKirK6Pc7OjoaXz8/AgMDmT59OgDNmzcHMDl5TGxsLAcOHDB63vPw8GDzpk3qKorG9vYF/p7E/6xcuZKVK1ca/T2Zo/sdzpkzR3m3oyg69fdH930p7POlixf11lI4Od+VnsjISHx8fAy+A7rfk+48qFtG/9ypO1cW9zsHsCgkhJCQEIPzoM79nEPV5QEBAcyZM4e5c+eqi0UZkUCrAqiugZabm5u6WFQBuhct65NAq+KRQKtqkkCrfKi/P6YCK/VnCbQqDgm0RGmQQKsCqM6BVpMmTfDTvhizLOiOlakTV2lYunRpuexnebSJBFqVhgRaVZMEWuVD/f0xFVipP0ugVXFIoCVKgzyjJcrVww8/TMuWLcss6ajzSzOV136WR5tCCCGEEOJ/JNASQgghhBBCiBImgZYQolJJTExkUUgI2dnZ6iIhhBBCiApDAi1RqqYFBpKamqrOFtXQ9evXSUhIUNJff/0FwMWLF43mp6amEh0dbTSFhITQuUsXFoWEkJubq2pJCCGEEKL8SaBlQlpaGq+99hoHDhxQFynOnDlDx44d+eWXX9RF1VJeXh5oexx0F8Tr16+nS9euEnAJTp8+zYQJE5QUEhICwPbt243mr1+/Hl8/vwJptvYh5ezsbEJCQjh06JBBO0IIIYQQFYEEWiacPn2a5cuXExcXpy5SZGZmcuzYMS5cuKAuAu0sfKtXr1ZnV1l37twBYPacOcpFsY4u4BLVV+3atXFxcVFSq1atAGjcuLHR/KZNm+Lh4VEgObVrp6zTzs6Oxo0bK58ro23bttGlSxejNyLMlQkhhBCiYquygVZGRgb//vuv8vnKlSvcuHFD+XzhwgVu376tfE5PT+fIkSPcvHkTAG9vb/766y8mTpwIgEaj4a+//uLkyZNcvnyZa9euKXUB/vnnH06ePIlutvxr166xatUqNm/ezD///GOwbFVlZWUFgFO7dspFsT71Z1G9tGrVSpl6euXKlQRpp24fPHiw0fyAgAA2b9pUIM2bNw87OzuCgoI4GBeHg4ODqqXK5fz588THx5OVlaUuMlsmhBBCiIqtygZao0eP5oknniAvL48bN27QtGlTnnnmGdC+p6dp06aEhoYCMHPmTBo0aECPHj2wt7dnx44dHDp0iFatWrF69WquX79Oly5deOqpp2jXrh2NGzemc+fOSlvffPMNTZo0oW3btvj7+wPQvXt3MjIy2L59O40aNeLcuXPK8lVVzZo1AZg3b55yUYw2wNq0caPZ9+IIUVTt27fnYFwcbwQFYWdnpy4u4MqVKxw6dIi7d+8a5F+/fp0///yTK1eugPZmiq53Oj093eDGSXp6OpmZmUrdW7ducenSJeWzKfn5+SQmJnL48GHlJo7O2bNnSUtLM8jTMVemvimk226NRsPRo0e5fv26uooQQgghykGVDbT69+9PVlYWcXFx7Nu3j5ycHGJjY7lx4wZ79+4FoF+/fuzfv5+PPvqItWvXkpmZibu7O9OnT1cusPLz89m0aROHDx8mOTmZXbt2AbBmzRqlrZs3bxIWFsbAgQPZuHEjFy5c4Oeff6Zu3br4+PgQHx+vvHiuutm7Zw+bN20q9kv8hDDFzs6uSAEWwPTp02ncuDFubm488cQT3Lt3D4D333+fRx99FFdXVxo1asSkSZM4dOgQDg4OvPjiizRs2JB27dopN06GDBlC+/btlfPCqFGj6Nixo0FbaikpKTRr1oyOHTvi4uKCo6MjR44cQaPRMGzYMJ588kmaN2/OV199pdQxVwbw9ttv07BhQ3r27EmTJk2Um0IODg4MHjyYTp06GZybhBBCCFF+qmygNXDgQAB2795NZGQkbdu2JScnR3nD91NPPYW9vT379+8H4Mcff8Tf35+UlBROnz6tTOwAUKdOHXJzc/ntt9+Ijo7GwsKCZs2aKeX/+c9/8PLyYvDgwaAdRtiqVSusra155JFHcHV1Vd4aX904OTmps4QoExERESxdupTp06dz/vx5goKCsLKyIjo6mtmzZzN16lTS09MJDAxk+fLlREREAHDs2DHCw8MZOHAgmzZtIi0tjSFDhnDx4kUOHjzI3bt32bVrF0OGDFE3aeChhx5iwYIFZGdnk5ycTGZmJmvXrmXPnj1s2rSJKVOmEB0dbXCuMVemuym0Zs0arl27hru7O6+//roS/B09epQNGzYwYMAApY4QQgghyk+Vvfp3dHTEycmJPXv2EBERwcsvv0ybNm349ddf2bdvH4MGDQLtHWSAvn37MnToUP773/+yZcsW5XkjgCZNmlCjRg0++OAD1q1bx4oVK4w+F6Krk5+fry4SQpQx3YyhEydOpGnTpkyfPh0rKysiIyMBmDRpEo8++iivvvoqgPLM5pQpU/Dy8lLOEVeuXFF6trZt20ZYWBg3btzA19dX25JxjRo1olmzZnzwwQe89957WFpakpGRQUJCAgBTp06la9euynOgaIc1myrT3RT66aefCAgIKHBT6M0338TX15cnn3xSqSOEEEKI8lNlAy20vVoHDhzg0KFD+Pj40L9/f1avXs2tW7eUi6iu2pnwLly4QO/evXF1dcXGxsZgPb/++iu2trZMmjSJt99+mw4dOhiUm1KrVi2OHj3Krl27DCbeEA/mfgLZAwcOKENG74e0adqDtllacnJyQO+1Azq6fdTl64YTqvdd/8aJo6Mjbm5ubN26lW3btlGvXj369OljsLza9u3b8fb2Jj09HQ8PD6ytrUGvHd37v3Q3ewor0/27T58+DBkyhFmzZvHzzz8r26k+bwkhhBCifFXpQOvZZ58lLy+P2rVr4+bmxsCBA7lz5w5NmjRRJrPw9vbmnXfe4dNPP8Xe3h4nJyd+/vln5aLFxsYGDw8PsrKy2LBhAyEhIXh4ePDGG28YLGPs5yuvvMLp06cZOHBggVkKxf+Xn5+PRqPh9u3baDQa8vLyDCYuuHPnDrdu3QLg+PHjLF26FI1GY7aerhztBXVWVhYZGRnKOs3VRdo0W6+wNiuKLl26ADB//nz279/P5MmTuXnzpjL75ccff8zx48dZtGgRlpaWeHt7q9ZgyM/Pj8TERNatW8eQIUMKDWx07/eaMmUKrVq1UoInFxcXABYsWMBvv/3GJ598otQxV6a7KXTx4kWTN4WEEEIIUXFU6UCrW7du3Lt3j/T0dKytrenbty85OTmkpKRgYWGhLDd//nxu3rzJ+fPnycrKYsWKFTg7O5OTk8PYsWP58MMPcXNzY9++fRw+fBhHR0fi4uIMlkH7gHxOTg7Ozs4AzJkzh4yMDNLT07G3t1faE4bCwsJYsGAB8+fP5+OPP2bRokXMmjWL5ORkYmNj+eKLL1i4cCHh4eHs3r2b1NRUNmzYYLbejh072LJlCwBvvPEGGr2eAWmzdNusKPr378+kSZP48ccf6dGjB9HR0djY2NC7d2/efvtt1q5dS8eOHfn111/58ssvqVevHhi5YaL76e/vj7W1NdnZ2bzwwgt6LRkXEBCAvb09zs7OjBo1ipYtW2JlZcWAAQMYPnw43333Hf7+/gwdOhS0PWjmyvRvCjVp0oT27duzZcuWAtsphBBCiIqhSgdaANbW1gbPW6k/6+c7ODhQp04dgzyAnj17Eh8fT8uWLWnRogUZGRnMnDnTYBl1HZ1HHnlEuYATxmk0Gho3bsysWbM4f/48EydOpFOnTvz999+4urrSv39/2rRpw6lTp+jXrx9NmzbF39/fbD30hmFpNJoCwYC5utLmg7VZkXz22Wdcv36dtLQ0/vzzT2rUqAF6N1cuXLhARkYG48aNw9nZmXv37hncOLl3755y48TR0ZHbt29z9+5d+vfvb9COMa1btyY5OZkLFy5w5swZjhw5wsqVK7GwsOD777/n33//5dq1ayxevJg7d+7Qtm1bs2VoZ0u8ceMGKSkpZGZmsnz58gLbLYQQQoiKocoHWiVh/vz5nDlzhs8++4y1a9eSlpamvJNLlIyHH35YCVIffvhhatSoQV5eHlu2bOHw4cPUqlVLubjX/TRXz9LSkpycHG7dumWwvD5TdaVN8/WK0mZFYmtra7RH2dramsaNGxv0bqtvlKg/W1lZKT1Hubm5tGvXjpYtWxZIK1euVOrr2rCysjKYfbRevXrKunQBYFHKzN0UEkIIIUTFIYFWET3xxBP079+fHj16GFzgiAdnaWmJhYVFgWRpaUndunU5d+4cZ8+excLCgkaNGnH58mVCQ0PN1mvVqhXx8fF8+umn1KpVC2tra4MLanN1pc0Ha7O6sLa2ZuHChXz88ccFUt++fdWLCyGEEKKakUBLlLvevXvj5+eHtbU1S5cuxdraGj8/P3r37k2/fv148803mTZtGhMnTqR+/fosWLAAX19fs/VatGjBggULmDFjBh988IGyrLRZ+m1WJ4MGDWLo0KEF0uOPP65eVAghhBDVjARaotzpekvQ9sCo8x566CGDMmtra6y1vSjm6tnY2BTokdEprK60ab6euTaFEEIIIYQEWlXaopAQpgUGkpqaqi4SQgghhBBClCIJtMpBZGQkc+fOVVJkZCQAGzZsYPHixSxevJgNGzaoqxVq8eLFxMbGAhAdHU10dDTr16+nS9euEnAJIYQQQghRhiTQKgeRkZEEBwcrKSoqCoCNGzeyZMkSlixZwsaNG9XVCrVkyRIl0IqJiSEmJkYp0wVcQgghhBBCiNIngVY5GD16NBEREUoaNWoUaF9wHBoaSmhoKHPmzFFXK1RgYCDu7u4AeHh44OHhoZT5+/sTd+CA3tJCVAy//PIL48ePV1JISIh6ESGEEEKISkcCrXLg6OiIt7e3khwdHQFo164d7u7uuLu7065dO3W1Qk2fPl0JtDw9PfH09FQCrKVLluDg4KCuIkS5u3TpEocOHVLSX3/9pV5ECCGEEKLSkUCrCnsjKEgCLFHh+fv7s2njxgIpwN9fvagQQgghRKUhgZYQolw5ODgoPbD6SW4QCCGEEKIyk0BLCCGEEEIIIUqYhUaj0agzRdmaO3cuwcHBhIaGKs9YxcbGEhAQQNeuXZU8U5YuXQpASkoKixcvZsmSJQQFBfFGUJB6URrb29OhQwcWLlyoLnpgM2bM4NixY2zauBFPT091MWjbB4iPj8fNzQ1bW1uaNm2qXqzUnD59GoCWLVuqi0rN6dOny2U/y6NNtL9bNTc3N1xcXFi5cqWSl5CQwIQJE0z+rRbV876+xMTEkJ+fry4SZlhaWuLl5UVERITyGVCOo25W1PDwcLy9venVqxdRUVFGv9/R0dH4+vkRGBjI9OnTAWjevDkA06ZNM1hWJzY2lgMHDhg973l4eLB50yZ1FUVje/sCf0/if1auXMnKlSuN/p7M0f0O58yZc1+TMVV36u+P7vtS2OdLFy/qraVwcr4rPZGRkfj4+Bh8B3S/J915ULeM/rlTd64s7ncO7ftOQ0JCDM6DOvdzDlWXBwQEMGfOHObOnasuFmVEerREubp9+zanT58us6Sjzi/NVF77WR5tmvPXX38ZnV0wJCSExvb2BdIimX1QCCGEEJWYBFqi3MTHx0uqgsmUGzduyOyCQgghhKg2JNASQpQJFxeXAkGZsbRixQp1VSGEEEKISkcCLSGEEEIIIUS5SUtL47XXXuPAgQPqovtS0uu7XxJoCSGEEEIIIQqYMWMGq1evVmeXCP11nz59muXLlxMXF6derMhKen0lQWYdrACq46yD48ePVxeJKmzlypVFniWuuLMRyixc96cyzToYHR1t0KbMOmiazDpYPtTfH1OzDKo/y6yDFUd1mHXw+vXrnDlzhiZNmtCgQQPQ/s1evHiRRo0aYW1tzb1797hy5QpNmzbl2rVrPPnkk3h6evL111/TsGFDVSuG8vPzOXHiBDk5ObRs2ZJatWopZVeuXCEtLQ0nJyceeuihAutu0KABZ86cwdHRkaysLKytralXrx4At27dIisri8aNG5tsw9z6bGxswMT+azQaLl68SJMmTUhPTyc9PZ3WrVtjYWGhbPuDkECrAqiOgZYQOrpZCHUk0CobpRFo2dnZMXv2bIYNG3ZfFwmmAq3G9vZ4eHjwRlAQnp6eEmiZIYFW+VB/f0wFVurPEmhVHFU90Hr//feZO3cueXl5AEycOJEvv/yS/fv30717d77//nteeuklPv/8c6ZMmcLx48fx9/cnKSlJWefZs2d5/PHH9Vr5/1JSUvD09OTSpUtoNBr+7//+j7CwMJydnQkMDGTZsmVoNBrs7e05d+4cTz31lMG647Wv/VmxYgXffvstKSkppKWlYWFhgZ+fH5GRkSQkJJhsw8nJyeT6xo8fb3L/ExIScHNzIyAggPXr16PRaPD19WXjxo3Kuh6EDB0UZSooKKhA8vf3Vy8mhKigZs+ezfO+vgZp9uzZAGRnZ/PGG28U62IjMjKSgIAAAgICCA4OBiAxMdFg/QAxMTH4+vkpn4UQQhRNdHQ07777LlOnTuXff/8lMDCQ5cuXs3fvXnT9LcZ+/vzzz9StWxcfHx/i4+OV4M+Yhx56iI8++ojr16+TkpJCZmYma9asISIigqVLlzJ9+nRSU1N54403sLKyKrBuXQCUn5/P0KFDuXjxIgcPHuTu3bvs2rWLIUOGmGwDMLu+ouz/sWPHiIiIYODAgWzatIm0tDS9vbt/EmiJMvWGtpdCPwVoA62izkonqWokmV2wckpMSiImJsYgJerdRUQbcBXV1atXiY2NJTY2VrkbmZ2dbbB+fYmJiQafhRBCmBcZGQnA5MmTefTRRxk3bhwABw8eVC1pqFWrVlhbW/PII4/g6uqq9Nwa06hRI5o1a8b8+fOZN28elpaWZGRkKJNRvPbaazRt2pTp06djZWVldt26G/Bbt24lLCyMGzdu4OfnZ7INCtnWouz/f/7zH7y8vBg8eDBohzqWBNNHTAghhFDZtHEjly5eNEibtEMsHnroIQIDA4mOjlZXM2nYsGGkpKSQkpJCaGgoAB4eHgbrB7CzsyMoKIiD5fxgsxBCVDa6oaa6Xp579+4B8PDDD2NlZQVAbm4u6PVoFdf27dvx8vIiPT0dT09PrK2tAcjJyQG9tovC0dERNzc3tm7dytatW6lXrx59+vQx2UZhzO2/mu54lNTwXAm0hBBClIhXXnmF6dOnY2dnpy56IPOCgzkYF8cbQUElvm4hhCiu69evq7NKzd9//63OKjYPDw8AFi5cyPHjx/n444+xtLSkT58+NG7cGIB169axbt06PvroI4O6tWrV4ujRo+zatYvbt28blOk7dOgQaHuGWrVqpQRuXbp0AeD9999n//79TJo0iZs3b0Ih6x42bBiJiYmsW7eOIUOGYGNjY7INHVPrM7f/pU0mw6gAqtNkGMaer8jOyiIxKYnatWvTqlUrdbGoIlq3bk2Q3t+kbtILmQyjfJTGZBilNeugmkyGYZpMhlE+1N8fU5NfqD/LZBgVR3Emw3jyySf566+/ABgzZozynFBp6dSpE15eXgZ5xs6h6nL9yTDeeecdFi1aRE5ODnXr1uXjjz9WhtCNGTOGb7/9ltq1a/PKK6+wbNkyTpw4QZs2bQgODmbu3LlYWVlx/vx57E1Manbq1Cl8fHy4ePEijz/+OLa2tri7u7Nq1SomT57M8uXLyc/Px9nZmbi4OGrUqGGw7rCwMLy9vfn6668ZO3YsycnJtGzZktzcXHbu3En//v3NtoH2/y1T6zO1/0eOHKFTp07KcmvWrGH06NEcPnwYZ2dn9W4WmwRaFUB1CrRk1sHqS31hLIFW+SqNQKtdu3Z89dVXNG3atEQDred9fXFwcOCNoCAcHBwk0DJDAq3yof7+mAqs1J8l0Ko4ihNotWjRgjNnzoD22aMVK1bg1K4ddnXrqtZqXmpqKmlpabRr165Ab31sbKzy70GDBvHEE08UKFefQ9Xl6undc3NzuXr1Ko0aNSowfXlGRgZ16tTBxsaG3Nxcg2F5165dw8LCQplu3RT99efn52NhYaF8N27fvs21a9cKBGr661a3m5eXR35+vjI9O4W0QSHrM7X/xpYr6rDEwkigVQFUx0BLJkKoXiZMmFDgwlgCrfJV1EBr1KhRODo6KtPt+vv74+DgYLCu1NRU1q9fr3z28/NTpsYtLND67LPPlAuWtLQ0Nm7cSNOmTQkICFCWDQ0NVWaA8vf3Z/369QX+nsT/SKBVPtTfH1OBlfqzBFoVx/0GWqUxvXtSUhJPP/00AH379qVdu3Z6tf7nfgKtB5Wbm0uHDh2U5670zZgxQ96RaoQEWhVAdQy04uPj1UWiCnNzcytwYSyBVvkqaqD1oAoLtObMmXNf7bRv355vv/1WnV3tSaBVPtTfH1OBlfqzBFoVR3ECrSeeeILTp09DKQRa2dnZeHp6Ks+BFXYOLctAC+2kF+pnowCcnZ1NvmOrOpPJMIQQQpj0ySefEB4eroxVn6e9oNBP8/QCJXd3d2X2wKJo3rw5oaGhhIaGKhc3Tk5OBut30t7N1c08CFCjRg2D9QghRGlRT0jRtGlTg88lJTs7G39//zKdbKO4Bg0axNChQwskCbKMk0BLCCGESZ06dcLb21sZm+/k5ISnp6dBcnJyAu2QQVN3V02pVasW7u7uuLu7K8Nj7OzsDNbv4OCgTO1elF7OkvDXX39x7Ngxjh8/zoULF9TFBeTn53P06FGDd6/o8q5evWqw7LFjx0rsHS1CiNJ37Ngxg89HjhyhV69e9OrVS+lZN/Yy98KS7qZUcHAwAQEB+Pj4cOLECdq2bWvQnqi8JNASQghRIkrrLu/q1avLdGr3jIwMhg8fzpgxYxg9ejRDhgzhlVdeMXuXOT09nVdeecVgOKMu77vvvlPybt++zZgxY5RZskT1lJmZCdrh9MVJ6hd4i7Jx9+5dg8+ZmZlERUURFRVFSkoKmHiZe2FJ9+xpUlISsbGxXL16FSsrK77++muD9kpCYGCgDLcuBxJoiWrnzp07HDx4UHmbeFHcTx3M1MvOziY2NpaIiAiuXbtmUFZcJ06c4PDhwwXeQaEvNTWVF154gd9//11dJIRQ0T1/4OvrS1hYGK+88gpHjx5ly5YtyjKZmZn89ddfZr93OvqPQuv+XdqPRycmJhIdHV3klJiYqF6FKEW6Gc08PDyKlcrqZoMwz8vLi/z8fPLz85Uhz5uMvMy9sDRlyhQAhgwZAtoX6H7wwQdKAIZ2kiBjKTs7G/SCNHVKSkoCIDk5mcjISCIjIxkzZowyuZEoGxJoiWrl4MGDBAQE8NprrymTABTmfupgpl50dDRDhgxh6tSpzJo1y2BikmXLlrFt2zblc2EiIiIYMWIEr776Kn/88Ye6WHH9+nXOnDlTYAiTECVp9+7dBhcIJeV5X1+io6PV2aWuRo0a1K1bVxkKqbur/emnn9K3b19effVVBgwYUC7bVpjZc+bg6+dX5DRbJsAoU7Vr1wZg86ZNxUq6YbqibFlZWamzSoTunLJ161YAbt26xVtvvWUw6+qmTZuMphMnToDesEN10k0ytGbNGnr16sWRI0dAO3GaLuDS9ayK0iOBlqhQMjIyOHnyJPfu3VPybt26xalTpwx6hTQajfKMQ2ZmJsnJycod4szMTIMhPnfu3CE9PZ3bt28TFBRk9KXIN27cMHhmIiMjgxs3bpitY46pevfu3ePdd9+lbdu2REREsH//fmbMmAHaXq4tW7YQERFhsK/G9h8gJyeHZcuWGR3Lbew46pfpHy8h9Olm0IqMjATtf9LBwcEkJycDELp+PYtCQgxSqHZq96SkJLp162bwYurCXL16tcAd2OzsbIPelpiYGHz9/Mo84NLNijhz5kwaNWrE4MGDOXLkiHJMIiMj6dChAyEhIeqq5c7f35+goKAiJ39/f/UqhKiWLl++rM7Cz89PnVUi7ty5o/zby8uLwMBAJel07drVaGrSpAlot02/ni7pttnLy4s5c+Yo7zYEGDVqFJGRkYW+F0s8OAm0RIUREhJC//79efnllxkyZAg5OTmsWrUKb29vXnrpJfr168eHH34IwMmTJ3nmmWd455136Nu3L35+frz11lsAvP766/j7+yuBxOzZswkICMDW1pbt27czbNgwg3bRvqfnmWee4ffff+f8+fM8/fTTbNu2zWwdc0zVi4+PJysri9GjR5OVlcX169d55JFHAHj11VfJzs7mjz/+oF+/fly8eNHk/qPd5ps3bzJmzBi9FowfR52tW7cyYMAA/Pz8mDlzpkE9IdALtKKiokAv0NI9h7B+/XpCtFMS65L+O7QA5R1aRREZGVngDmxiYqJBb4uOLuAqK/n5+aSlpZGRkcHIkSNp2LChcld4586dzJw5k0uXLpGamkpeXp66ulnql4WWtAB/f97QviKhKClAAq0yoZtAQfd3pJ4cobAkQzxL3/nz55V/6wKhw4cPExkZyeHDh0F7Q1c3HE93E6q4w3X37NnDJu2L2b28vFi7di3Tp09Xko5usiB10j0TO2zYMIN6uqS7/vD29mbu3Lk4OjoyatQozp07x7fffoujo6PShig9EmiJCiE+Pp6ffvqJ4cOH89tvvzFixAiSkpL48ssveeGFFwgPD2f48OFs2rSJuLg4JYg6c+YMK1asoHv37oSHh3PlyhW8vb25evUqSUlJ3Lt3j9jYWLy8vEA7m5kxw4cPp379+nz22Wd8/vnnNGjQQLkbZKpOYYzV053A33nnHZ599ll8fHxYtmwZAIsWLaJ27dp07tyZ7777jvT0dJP7n5mZyapVq5g4caIyBAUTx1F/yMOdO3dYvnw53bt3JywsTGY+EwWEh4cTHh7OqFGj4D6md2/SpAmLFi1SPhfGycmpwB3Ypk2bGvS26OhP714WPDw8+Prrr+nUqRNLliwhPT1dOfe4u7vj7e3N2LFjWbRokdGhRXZ2dlhYWJCenq7k6f79f//3f3pLVm1paWlMmjSJAwcOqIvYtm0bXbp0ITU1VV1UJGfOnMHZ2ZlffvlFXXRfzG2PubKi0k2goBuypZ4cobCkey5HlB79d0Tperdef/11fHx8eP3110E766CPjw8+Pj6sWbMG7mO47shRo7h16xYAkyZNUtosLVu2bJEAqxxIoCUqhOPHj4O2C7xBgwYMHz6chIQE0A6BsbOzY+jQoaC9a6QTEBCAi4sLPXv2BO2wuD59+oD2P7SDBw9y69YtJc8UW1tbJkyYwNmzZwkLC2PChAml8p4eXe/S6NGj2bZtGx4eHnz33XdkZGTQrFkzrKysqFOnDm3btlVe6mxs/7/55hsee+wxnnnmGeU/hdzcXKPHUfciTUwcLyH0eXt74+3trfxnXJzp3fv160d0dHSBnlxz2rVrV+AOrIODg0Fviy7AKsvp3XUsLCwYPnw49+7dY9OmTbRv3x6AK1eu0KVLF9q2batMbID2wfNffvmFX375hYyMDNq3b09kZCQbNmzgwIEDfPjhh1hYWBRrCvzK7vTp0yxfvpy4uDh1EefPn1d6+u9HZmYmx44dK9IU/EVhbnvMlRWV7kaG7saF+qZFYak8n9E6c+YM77zzDjdv3lQXFVlJrMOU5ORk5brBmEOHDtGvX79iPZekO++NGjWKOXPmKDegmjdvrrzYWHcjtzjDdXW/x1q1aum1VrpkmGD5kEBLVAi6YEH/bfe6O8e6PN0yNWvWVJbR0QUT+fn52Nvb065dOyIjI4mKiqJOnTp06dJFXaWAS5cuKRdMuqEAJU3Xy9WqVSvs7e1xdXVFo9Fw48YN9aJm9//EiROcPXuW7t27M3XqVNAOkdQ9k6V/HI3RP15ClBTde7BKmi7AMtZLXBqsrKywsLDAxsYGtMN6GjRowLZt23B1deWVV14hNDSUAQMG4O/vT2RkJDVr1qRGjRrExcUpwy8PHTpEcHAwbdq04aOPPmLy5MmcOnWKmTNn0rFjR3WzJaq4w5jMDUnTaDRcuHABjUbD0aNHlWdg09PTOXLkSIGL5nv37nHkyBHlJa/e3t6cOnWKiRMnKsucPXu2wMQpuqGaunPdvXv3DJbJz88nMTGRw4cPF2izKMzVN7Y9OubKikt3I0N30au+aVFYKqvvANoREAEBARw8eBC0x2HdunXFCjRLYh2FycvL47333qNNmza88MIL6mLFxYsX2bt3r9H/b/Xp35w0FWg5OjoqgZa3tzcUY7gu2u+nnZ0dzz//vNKWqJok0BIVgu7uzqpVqzhy5AgLFiygdevWoH1G5O+//2bt2rVYWlrStWtXVe2C+vTpw9mzZ9m1axdeXl5KABUXF6c8cH/27Fnl7tc///zDDz/8wPDhw3F3d+enn35ShtWZqlMYY/U6dOgA2i78EydOsHv3bho0aKCMtba1teXMmTPExMSY3f+goCAWL17M4sWLlSEHI0eOVOroH8eiTD8tREVWlheXaIf1xcbGKjcxrKys2L59uzIz2KRJk9i3bx+//vorUVFRvPPOO9jZ2REdHU18fLySBg0aRLNmzVi9ejW///47u3btIjw8HF9fX1WLJa+4w5jMzTp46NAhHBwcGDx4MJ06dWLNmjW8/fbbNGzYkJ49e9KkSRN27NgB2ptULVu2pGfPnrRv357ly5dz6NAhWrduzerVq9FoNAwbNownn3yS5s2b89VXXyntxMTE0KxZM+Ulrl999RXNmjUjMTGRlJQUmjVrRseOHXFxccHR0VF5zqkoTNU3tz3myiqSM2fO8Pnnn3Po0CH27t3LuXPnuHjxIj/88IMStIaGhnLu3DnQPhe5ePFi1q5dy82bN/nnn3/YsmULqamprFixQhniuWPHDjZs2MAPP/zAoUOH6NSpE++99x7169fnxIkTrFu3jnXr1rFhwwZlW9TrNrcOtKMqvv/+e1asWMGZM2dA+/+xse0xJTk5WRnKp3bp0iW++uorvv/+eyUvLS2NL7/80uR6S7O3OTQ0VJk8Z/OmTTRo0EC9iKhiJNASFYKHhwfDhg1j586djB07lqNHj9K1a1fGjBnDr7/+SkBAAPv27ePtt9+mRYsWSuBk6mefPn2wsrLi5s2b9O/fH7TD9qZMmcJnn30G2hPetGnTAFixYgU2NjaMGjWKyZMnk5OTw9dff222jjmm6rVo0YJx48YRFhbGiBEjuHHjBvPnz1fuoD377LOcP3+eadOm0bp1a5P736ZNG3r06EGPHj3o1KkTAO3bt8fLy6vAcbS2ti5wfNQ/hajIdBfeZUn9zJWlpaXB98XKyoqGDRvy8MMPGyxnysMPP1ymz2UVZxhTUCGzDup6148ePcqGDRvo0KEDH330EWvWrOHatWu4u7srz65s2rSJ1NRUTp48SXp6OgMHDjTonddNADBlyhSio6MNJhHRLWfs50MPPcSCBQvIzs4mOTmZzMxM1q5dq9QtjKn65rbHXFlhdKMiLC0tsbS0VCaXUX9Wv5C4sBSjemFxcnIyLi4uLF26lIEDBxIQEMCuXbuIjo5mxIgRyjC5l19+mV27drFjxw4mTJjA0aNHmTVrFi+++CIHDx7kpZdeolu3bixatIhu3bpx5MgRJTjZvn07O3fuJC4ujhEjRnDlyhViY2NZunQpgYGBjBw5kry8PKPrNreOK1eu0KFDBz7++GO+++47OnToQGxsrMntMeWJJ55g48aNBrPqoQ3YOnbsyLJlywgJCVF6WAcNGsQnn3xS6HpLWmJiIoHaSS6WLF5crsNARdmRQEtUGG+99RZ//PEHO3bs4Mcff8TGxobJkyezf/9+du7cSUREBM899xxoh94dOHBAecnfoEGDOHDggDKdur32P6TY2Fg8PDwAsLGxIS4uzuCO8759+wD473//S1hYGHXr1qVt27ZER0czc+ZMs3XMMVdvwoQJREVFsXv3brZt28ZTTz2l1Bs/fjzh4eGEhYXx2GOPmdx/fS4uLsTGxip384wdx8KOlxAlobTeoxU4fTqdu3Qpl4CrsirqMCZdKsqsg2+++Sa+vr5KT8BPP/1EQEAAKSkpnD59mry8PNzd3bG2tqZz58588sknSs+Fjm5EwNSpU+natavBcEJzGjVqRLNmzfjggw947733sLS0LNYzpqbqm9sec2UVhe478eeffxIXF1fokLy+ffty/Phx3n33XYYNG0ZsbCxoX0nyww8/KIHHvn37WLVqFQDvv/8+77zzjsF6xowZwy+//EJ+fj5vvfUWVlZWRtdtbh2rV6/m+vXrxMbG8scff9CsWTNleWPbU1zfffcdd+/eJS4ujkOHDinPnf78889m1xscHFwgIPbx8cHS0lL5fzYqKkpZRjdbqq+fX4HAWD/16dsXgKCgIAL03pMlqjYJtESF8tBDD/HYY48Z5FlZWVG/fv0C0yGr7zirP6vvQJtjaWlpUN/a2lrpZVLLy8vDz8+PoUOHFkibN29WL25UzZo1efTRR9XZoB0mVadOHeWzqf3Xp95PU8fR3GdR/Rw5ckSZblpH9/nbb78FYPr06QbTUc+ePbvAlNOzZ8+G+3yP1oYNG2jevDnNmzdXLj5iYmIMLlDQDvfRBVyifOieWdP1NPXp04chQ4Ywa9Ysfv75Z6ysrOjWrRsJCQn06dOHuXPnFvhbUD9zqlsXeuckY2Xbt2/H29ub9PR0PDw8CpzzCmOqvrntMVdWGN1FfX5+Pvn5+cqECerPly5eLFbS3TjUSU9P57HHHqNWrVo4ODgo/0/ofqq3+c8//6RZs2aMGDGC3bt3G7z+4/HHH+fhhx/G1ta2SEPOp06dymOPPaYEUObWbcw///zDY489hq2tLRYWFjRp0sRgooribo/axYsXDdav+/sqbL3NmzfHy8sLLy8v5RktZ2dnvLy8lElM6tWrpyyj60lzatcODw8Pk6lz5848N3So8pyWqB6MX0kKIUyysrJi2rRpBV4OGBgYWKpju4UoaZmZmcp00zq6z7r3Zh05csRgOurEpKQCU04nap9F1CnOe7RE5aN7TvbixYv07t0bV1dXJQj7/fff0Wg0LFmyBEdHxwJTobu4uACwYMECfvvtNz755BOlrHHjxqDtpVm3bh0LFy5Uyg4dOgTAlClTaNWqlcEU3EVhqr657TFXVlYKm8798ccfJyUlhZiYGL777jtleKMuQIiIiGDFihVK/rp166hXrx779+9nwIABButSe+ihhwD466+/+Pfffw3Ktm/fzrp163jnnXe4dOkSGo3G6LrNraN169acP3+eP//8k3PnznHo0CHlmBeHRqMhJSWF69evk5ubS3JyMrm5ubRo0YLz588THR3NkSNHlL+BwowePZqIiAgiIiKUwGrx4sVERESwePFi0AZeumVGjx4NwLx589i8aZPJtG3rVr744guDtkTVJ4GWEPehR48eyuxR+slee/ddiMrA2dlZmW5a50Hfo+Xu7l6sIX7Dhg0jJSWFlJQUpZ6Hh4fBXXy079ZasngxB41MES4KCl2/nkUhIUVOoaqXTuvTBVG6n97e3rzzzjt8+umnNGnShPbt27NlyxbQTuXu6urKo48+yu3bt5kxY4ZB/QEDBjB8+HC+++47/P39lddWWFlZ4ejoyOjRo9m1axfjx49XJg2xtrYmICAAe3t7nJ2dGTVqFC1btsTKyqrAtpliqr657TFXVlZWfvUVz/v6Eh0drS4C7TsgO3ToQLdu3fj000+VkRjdunWjY8eOvPDCC3z//fe0adMGKysrnnnmGdLS0qhfvz4xMTFYWVkp+6P/09raGltbW/r378/cuXP573//a1C+e/duAEaMGMHjjz/O33//bXTd5tYxcuRI+vTpg6urK08++STdu3fnP//5j8ntMSUlJYXHH3+cH3/8kZSUFFq0aEFCQgKjR4/G09OT7t274+7urpzDirpeIUqChUbdryzK3Ny5cwkODiY0NFTpEYmNjSUgIICuXbsW2kuydOlS0J5sFi9ezJIlSwjSm0ZUX2N7e1q0aMHnn3+uLnpgM2bM4NixY2zauBFPT091MWjbR/ti3aLO3leS/vrrL9A+41VWqkubOq6uruos3NzccHFxYeXKlUpeQkICEyZMYPz48YwfP75Avqm/YbXnfX2JiYmRqeqLydLSEi8vLyIiIpTP6A2X0k1RHh4ejre3N7169SIqKsro9zs6OhpfPz/8/PyUGbV0w2lMTR4TGxvLgQMHjJ73PDw82Lxpk7JsaGiowTMNje3tC/w9if9ZuXLlAx0X3ZTVarm5uQUuSnNzc7l06RL16tUzGO5848YNMjMzady4sXJRq66fmZlJrVq1sLGx4d69ewbvLczIyKBOnTrY2NgY1MvNzeXq1as0atSI/Px8LCwssLS0LLBuU0zVp5DtMVemo1uP7th9++23pKSkFPpZPbRSLTo6WpkAw8PDg+zsbBITEwuc765cuUKDBg2wsbHh008/ZeLEiWg0Gq5du8ajjz5KXl6e8ru4ffs2d+/epV69esqx0z+G+stqNBrS09N59NFHsbKyKvRYG1t3Yeu4fv06lpaWBu+UMrU99yMjIwNbW1tsbW3NrjcyMhIfHx+D74DuvKc7D+qW0T936s6Vxs6NhVkUEkJISIjBeVDnfs6h6vKAgADmzJnD3Llz1cWijEigVQGUdaCFdmx9YSf44ipuoOXm5qYuFlVAvPZFy/ok0Kp4SiPQCgwMZLp2Vq37uUgwFWipSaBlmi7QmhccXKxZzRITE5mtvcA0FmhVdLm5uXTs2NHoc0FvvvmmwTmmNJh6prekWVlZkZeXZ/J89/DDD/Ppp58yduxYdVGllp+fj62tbYHf77Bhw4rVg26OBFqiNJTNmUFUGJs2bqROnTrs3buXGTNmFHhpY1mztbWlZcuWZZZ01PmlmcprP8ujTSFExeDk5FTgZbfmUnGCsorI2tqahQsX8vHHHxdIfbWzvZUF3dBb3TC1wj6rh+Gqk27afTs7O4KCggp9hunmzZtVLshCG8hev36dW7duGaQffvhBvagQFYr0aFUAZdmjhfbO5egxY0hLS6NFixbMnj2bhg0bqhcrtvvp0WrZsqXJuzWlYcqUKQDK+63KwpQpU8plP8ujTaRHq9KQHq2qSdejZez3pC87O9vgRdC632Fl7dEqb+rvj+77Uthn3TOIpnz11VdkZWczftw47Ozs5HxXiqRHS5QG6dGqhpycnAjbuxendu04e/YskydP5uzZs+rFSkR0dLTZB3mFEEKUvePHj8u7ySqBcePG8UZQkEFQLISoPCTQqqbs7OzYvHkz/v7+3Lx5kxkzZhR44/z90p/tKnT9emJiYvD18+N57QxSQgghSldhsw6Grl9v8G4y3d15IYQQJUcCrWrMzs6OpUuWKMHWvHnz2LNnj3qxYlu/fj0h2u7w9XpTBpdUICeEEMI8/fOwsaR/bk5LS+OzUpiJVgghqjsJtARLlyxhifYlfJ988okyPfP90n/Pjv77dXQP9QohhChdxt53pp/U5+Yv5UWqQghR4iTQEqB9mePqb75RZiScN2/efc9IqD/blZOTE/7+/sQdOMDSJUvUiwohhCgFhc06qD43N2jQQL0KIYQQD0gCLaEYMGAAP2/eTJ06dYiJiSmR6d89PT1ZumQJDg4O6iIh7tvOnTvJzs5WZwshikjOzUIIUfok0BIGdDMSttPOSDhp0qRSm5FQiPu18quv6NylC4tCQsjNzVUXCyGEEEKUOwm0RAEODg78vHkzHh4eXLlyhRkzZnD06FH1YkIUy6FDh3Bzc1PShAkTQPveH2P5ISEhNLa3N5piYmLIzs4mJCSEQ4cOAZCZmWnQnhBCCCFEeZJASxhlZ2fH5k2blBkJ33rrrRKZkVCIkpaXl6fOEkIIIYQodxJoCbOWLllCUFAQaGck/P7779WLCFEkLi4uxMfHK2nFihUAjB8/3mh+UFAQly5eNJo8PDxAO1uai4sLAPXq1dNrTQghhBCifEmgJQr1RlCQMv37Dz/88MDTvz+o/Px8dVahDhw4wN69e9XZRSZtmvagbd6PAL3Z0h566CF1sRBCCCFEuZNASxRJQEAAe/fsUaZ/nzx58gPPSKiTn5+PRqPh9u3baDQa8vLyuHv3rlJ+584dbt26BcDx48dZunQpGo3GbD1dOdqhZVlZWWRkZCjrNFcXadNsvcLaLAsBAQEyW5oQQgghKjQJtESROTk58fPmzcqMhDNmzCiRGQnDwsJYsGAB8+fP5+OPP2bRokXMmjWL5ORkYmNj+eKLL1i4cCHh4eHs3r2b1NRUNmzYYLbejh072LJlCwBvvPEGGo1G2iyjNoUQQgghhARaoph0wZZTCQZbGo2Gxo0bM2vWLM6fP8/EiRPp1KkTf//9N66urvTv3582bdpw6tQp+vXrR9OmTfH39zdbD71hcBqNpkAwYK6utPlgbQohhBBCCAm0xH2ws7Nj8+bNyoyEM2bMeOAZCR9++GGsra2Vf9eoUYO8vDy2bNnC4cOHqVWrlnJxr/tprp6lpSU5OTncunXLYHl9pupKm+brFaVNIYQQQojqTgItcV/s7OxYumQJ4159lZs3b/LJJ5/cd8+WpaUlFhYWBZKlpSV169bl3LlznD17FgsLCxo1asTly5cJDQ01W69Vq1bEx8fz6aefUqtWLaytrbGwsJA2y6BNIYQQQgghgZZ4QPPmzVNmJLzfyTF69+6Nn58f1tbWLF26FGtra/z8/Ojduzf9+vXjzTffZNq0aUycOJH69euzYMECfH19zdZr0aIFCxYsYMaMGXzwwQfKstJm6bcphBBCCCEk0BIlICAggNXffEOdOnXURUWi6y1B2wOjztNN360rs7a2xlrbi2Kuno2NTYEeGZ3C6kqb5uuZa1MIIYQQQkigJUrIgAED+HnzZuzs7NRFQgghhBBCVDsSaIkS4+TkxMG4ONq3b68uEkIIIYQQolqRQEuUKDs7O+nVEkIIIYQQ1Z4EWkKIcpWQkMDKlSuV9Msvv6gXEUIIIYSodCTQEkKUK3WgtX37dvUiQgghhBCVjgRaQohy5eHhQVBQUIHk6eGhXlQIIYQQotKQQEsIUa48PT15IyioQPL09FQvKoQQQghRaUigJYQQQgghhBAlTAItUa7+/fdffvvttzJLOur80kzltZ/l0aYQQgghhPgfC41Go1FnirI1d+5cgoODCQ0Nxd3dHYDY2FgCAgLo2rWrkmfK0qVLAUhJSWHx4sUsWbKEIO3wq4qmsb09APHx8bi5uamLRRUQHx+vzsLNzY3GjRszePBgJe/ixYts3779gf9Wn/f1JSYmhvz8fHWRMMPS0hIvLy8iIiKUz4ByHIODgwkODiY8PBxvb2969epFVFQUmzZuLDCsMzo6Gl8/PwIDA5k+fToAzZs3B2DatGkGy+rExsZy4MABo+c9Dw8PNm/apK6iaGxvj4uLCytXrlQXVXu6SWWM/Z7M0f0O58yZw5w5c9TFohDq74/u+1LY50sXL+qtpXByvis9kZGR+Pj4GHwHdL8n3XlQt4z+uVN3rizudw5gUUgIISEhBudBnfs5h6rLAwICmDNnDnPnzlUXizIigVYFUF0DrfK4SEpISADA1dVVXVRqqkubOuPHj1dnmQ2qH/RvVS487o8EWlWTBFrlQ/39MRVYqT9LoFVxSKAlSoMEWhVAdQ20RPXh5uaGU7t2zJs3T12Eg4MDDg4O6uwikwuP+yOBVtUkgVb5UH9/TAVW6s8SaFUcEmiJ0iDPaAkhyoRd3bp4enoWSA8SZAkhhBBCVFQSaAkhhBBCCCFECZNASwghhBBCCCFKmARaoly4ublJqkZJCCGEEKK6kUBLlCkPDw9J1TS1d3JS/zkIIYQQQlRZMutgBVCdZh0UoqTJLFz3R2YdrJpk1sHyof7+mJplUP1ZZh2sOGTWQVEapEdLCCGEEEIIIUqYBFpCCCGEEEIIUcIk0BJCCCGEEEKIEiaBlhBCCCGEEEKUMAm0hBBCCCGEEKKESaAlhBBCCCGEECVMAi0hhBBCCCGEKGESaAlRgZ1LTsand29279mjLuLSpUu8NXMmhw4dUhcJIYQQQohyJoGWEBVYdlYWJ06c4PKlS+oizp49y9q1a/nz8GF1kRBCCCFKSVRUFJaWllhaWhIcHKwuFkIhgZYQlcSlS5f4+++/lc+enp7s37+fkSNGKHn5+fmcOnWKxMREbt26peTn5OSQmJREcnKykieEEKJs9erVi169enFYbpBVanZ2dnh4eBikunXrqhcTQgItISqDtd99h1vnznTv0eP/tXf/MU2eCRzAv5TKZBuY4YniKDBJdp5lIScwBDYR/HGwBEVh9PAHOD1Mlp1DU7NbFhGL28l2MtAlc94fE71p0tp62R/e3HC4RgcYf0GgrcZfZXR0M7hJsy0qUO6P2ca+tCC1wtvy/SRPTJ/nefs21r4+3z7v8xR/LS6G3W5He3s7MjIyoFarAQAWiwVJSUnIys7GosWLkZySAoPRiK6uLsxLS0N+fj4yFyzAwYMHhU/vV3bV1KCpqUlYTUQkenq9Hnq9Hr29vcIm8iNyuRxHdTqXIpfLhd2IGLSI/MLgIP537BgUCoXzP+rBwUHg/iwWAISEhGDr1q24euUKzp09C5vNBo1Gg2PHjqG7uxunT52CyWjEokWLBE/unsFgQFNTk+jK8S++QEFhIVYUFKCJgYuI/IhOq3UpRBTYGLSI/EBJSQkSExOxtrQUAGAymYRdEBkZiWeffRa7d+/Ghx9+CIlEgtu3byMpKQlSqRQ5OTnYt28fIiIihIe6VbFtGwoKC0VXDEYjAKC5ufn3xwaD8KUTEYlSenq6SyGiwMagReQHHLNX/QMDAIDQ0FBBD6ChoQHLV6zArZ9+QnJKCoKDgwEAKSkp+OrLL/Hy/Pn4165dqNy+XXioWwly+ZB70MVQwsPDna8xLS0NMpnM5XUTERH50ubNm5GVlYXNmzcLm4iGxaBF5Ac+3rsXx48fx0d79gAAkpOThV3Q3t4OAFi/bh3iZ83CwP1Q1tLSgkEA7+7YAZlMhu7ubsGR7lVVVQ25B10MRX4/AOq0WhzV6VyCFxGRmDh2ptPr9cIm8iNtbW3Q6/Voa2sTNhENi0GLSMQcs1JpaWn4W1kZGk6cwIYNG/DCCy9AOmkSADj/XLZsGWZMn47shQux8c038dxzzyFYIsH1GzewZMkS/HH2bNy5cwd/f+MNl3P4m911dTiq0/G2GyISPeGMPPknnVYLa3e3sxzV6YRdiNxi0CISsYSEBHzX2Ym62loYOjpw+dIlqO7f+iefMwdd332HlcXFAID4+HicPXsWrRcvoqW5GY1ff41du3ZhZXExLl+6hAvnz+PC+fNITU0VnMW/8FZBIvIXwhl5IppYggYdiz9o3Gzfvh0qlQpqtRrz5s0D7t/upVAokJqa6qzzZPfu3QCAzs5O1NbWoq6uDkqlEluUSmFXooCzoqAAzc3Nzt0X6eFIJBJkZmbi5MmTzsd4YBdLlUoFlUqF0tJSxMXFob6+Hp2dndBptUNmE5uamlBQWIhNmzY51zDExsYCAMrLy136OrS0tODMmTNur3tpaWnDDkqjZs7E008/jeeff17YNOFZrVZYrVa379NwHO9hZWUlKisrhc00AuHnJysrC3q9HtaHvFX7YfF69/h88803yM7OdvkMON7H0X6eHtaumhrU1NS4XAcdvLmGCtsVCgUqKyux/SHXZpPvcUaLiIg8OnDgAFQqFTo7O4VN4+qXX37BhQsXWATFarUK/6poDDm+oOCPw/svlUrFtXXkM5zREgHOaBF5j9/weudhZ7SKiopcbtdUCB5jHGa0+PtpI0tISBjVRjGc0Xo0js+PEGe0/IdjRssdzmiRt9xfGYhIFG6YzcheuBBfNTQIm2C1WvGPt9/GhQsXhE2PrLW1FXl5echcsADNzc0eXwMFPkVREbbc/+Jmi1I5JGSNB+FvEbEMLaMJWeQ7SqXSpZD/USqVLhtfWLu7kf4YQhZNDAxaRCJm6+2FyWTCD25uB7p+/ToOHjyIi62twqZHpqqqgrmzE6tWroREIvH4GsZaV1eXsIp8LCsrC1lZWaivrxc2EdEIHvxSgneVEBGDFpGfsFqtuHbtmvNxeno6vv32W5SsWeOss9vtuHz5MgwGA3777TdnfV9fHwxG40OtG7DZbDCbzfjT7NkoLCzE5MmThV3GjVqjQcqLL0KtVgubyEf0ej30er3o1mQRERH5G67REgGu0SJP2trakJObC7lcDpPJBLvdjszMTBw+dAgdHR34S04O/vXBB1i9ejUsFgvy8vLw482bGBwcxDPPPIMjR44gPCwM+cuXw2az4d69e9hRVYWSkhLhqZwWLlwIo8kEAAgNDcV/jx5FTm4u3q+uRklJCVYUFAgPGTNdXV2wWCwAgOjoaGxRKqHWaLhmwQue1mh5s6ZkrNdoke853sPY2FjExcUJm2kEjk0TvPn8jIZjjRbX0fme2WzGgQMHxnT8xDVagY9BSwQYtMgTZ9CaMwc1NTXYX18PtVqNw4cOISIiwiUA3bx5E6dOnUJubi5+/vlnpM6bh/Xr1yNqxgyoqqrQevEiwsLCcPv2bcycOVN4KqfrN25g2bJlmDVrFt6vrsbdu3ddzhM1zLFjLTw8HFFRUbh8+TKD1ihJJBIkJiaitrYWAJyLwL0ZKDJo+T/He0iPxpvPz2g4ghY9PmM5fmLQCnwMWiLAoEWeOIKWI+S0trYi95VXULF1KzIyMlzacP/fzcmTJ9HT04MjWi2WL1+O1atWYUVBAf4wdSpKSkrw+uuvj3g74J/nzkVCQgL+c/DgkNcwnju+qTUaaDQahIeHo6ysDBvKyrD2tdc4o+UFX+6SxqDl/2w2Gzo6OoTVNEqPe9MEg8GA3t5eYTX5kEwmG7NNfxi0Ah+DlggwaJEnjpBTvXMnSktLce78eeTl5eGf772HuXPnugSghoYGlJSWYtWqVUhKSsI777yDpUuXYnddHUwmE/Z+8gm0Wi3WrFmD96urhadyMVzQGk9qtRpdFgs2lJU5d1XjdsfekUgkiI6OhkKhcKn35rrBoEVENHoMWoHP/VeaRCQqH+/di+PHj+OjPXsAAMnJycIuaG9vBwCsX7cO8bNmYWBgALh/sR0E8O6OHZDJZOj2YsZCLBQKBbYoldy62kdkMhl3SSMiInpMOKMlApzRIk86OjqweMkSKBQKaLVa2O12lJWVQbV9OwxGIxYtWoSamhqsLC7GtWvXUFhYiB9+/BExMTGYPHkykubORXJKCt566y0MDAwgMjIS/963D6mpqcJTuXgxNRVyuRz7P/10yHnExjGjlZmZKWyiYej1ep/NHHFGi4ho9DijFfgYtESAQYuG09fXh0mTJqG3txcSiQRhYWHOtv7+fkilUpfHt27dQmRkJOx2O4KCgiCRSPDrr7/CZrMhMjISwcHBzv6eDAwMQCKRICgoCHBzHjHh4nDv+SrQMGgREY0eg1bg462DRCI3adIkAMCUKVNcQhaAIeFHKpVi+vTpCAoKQnBwsHPDg6eeegpRUVEIDg5Gf38/Xp4/H2np6UPKZ599BgAIDg52hizH84rVUZ0O1u5uFi8KwwwREdHjw6BFNMFIpVJsq6hA5bZtQ8r8+fOF3YmIiIjICwxaRBPQ4sWLkZOTM6TExMQIuxIRERGRFxi0iIiIiIiIfIybYYjAcJthhIWFjbiV9ffffw8INsMoKiqCoqhI2JWIyOcMBgO2VVa63QyjoKBA0Pt3RqMRJpPJ7XVPPmcOqqqqhIcQEQUUtUYDjUbjdkMLb66hD+JmGOLAoCUCwwWt0XgwaBERjTV3QWskj3rdIyLyd+7CkjfX0AcxaIkDg5YIuAta3mppaeFW10Q0LtLS0pzXsNraWmGzW6+++iqio6MBABaLBUeOHBF2ISIKaA9eBx28uYY+iEFLHBi0RMCXQYuIiIiIJjYGLXHgZhhEREREREQ+xqBFRESPxGg04uLFi2hra0NXV5ew2dnuKLdu3Rq2noiIKBDw1kERGO7WQaPRiLt370IikSAiIgIymcxtu0NMTAymTp3qsZ6IyJd6enqQlJTkUhcdHY0dO3YgOzvbbfuWLVtQXFzstn7jxo0udUREgepxjvF466A4cEZLxHp6epCbm4v8/HwsXboUL730EjIyMtDY2Dik3VEOHz7ssZ6IyNf6+voAAMXFxThz5gzq6+tht9uxYcMGXLlyxdmen5+PxsZGNDY2Yu3atR7riYgmAo7xJgYGLRHjAIaI/EVoaChmzJiBrKws7Ny5E319fVCr1c728PBwxMfHIz4+HmFhYSPWExEFMo7xJgYGLT/AAQwR+ZOUlBQAgNlsdtadPn0a5eXlKC8vh9FoHLGeiGgi4BgvsDFo+RkOYIhI7O7cuQMAeOKJJ5x19+7dg81mg81mc34jO1w9EdFEwzFe4GHQ8jMcwBCR2J04cQIAkJCQ4KzLzs7G/v37sX//fiQmJo5YT0Q00XCMF3gYtPwMBzBEJEZmsxmff/45qqurUVFRgWnTpkGhUAi7ERGRBxzjBR4GLT/AAQwRidWTTz6JkJAQNDY2YtOmTdBqtcjJyYFOp0NERASkUimCgoIQEhLicpyneiKiiYRjvMDGoCViHMAQkdhNmTIFV65cQWdnJ27cuIFz585hz549iI2NBQBMmzYNV69eRUVFhctxnuqJiCYCjvEmBv5gsQgM94PFI+nv74dUKhVWe6wnIiIiIvHzNJbzVP8g/mCxOHBGy895+qB5qiciIiIi8fM0lvNUT+LDGS0RcMxoFRYWIjo6WthMRERERPTQLBYLtFotZ7TGGYOWCDiCFhERERGRrzBojS8GLREwm80uP05HRERERPSo4uLiEBcXJ6ymMcKgRURERERE5GPcDIOIiIiIiMjHGLSIiIiIiIh8jEGLiIiIiIjIxxi0iIiIiIiIfIxBi4iIiIiIyMcYtIiIiIiIiHzs/9O9KOtqeMqsAAAAAElFTkSuQmCC;" vertex="1" parent="1">
          <mxGeometry x="470" y="218" width="646.8" height="245" as="geometry" />
        </mxCell>
        <mxCell id="tViWV4BQa0rAtpK_9Age-5" value="PL" style="text;html=1;align=center;verticalAlign=middle;resizable=0;points=[];autosize=1;strokeColor=none;fillColor=none;" vertex="1" parent="1">
          <mxGeometry x="330" y="110" width="40" height="30" as="geometry" />
        </mxCell>
        <mxCell id="tViWV4BQa0rAtpK_9Age-7" value="AXI Interface" style="rounded=0;whiteSpace=wrap;html=1;" vertex="1" parent="1">
          <mxGeometry x="360" y="210" width="70" height="250" as="geometry" />
        </mxCell>
        <mxCell id="tViWV4BQa0rAtpK_9Age-8" value="" style="shape=image;verticalLabelPosition=bottom;labelBackgroundColor=default;verticalAlign=top;aspect=fixed;imageAspect=0;image=data:image/png,iVBORw0KGgoAAAANSUhEUgAAARsAAAEQCAYAAACA6tDiAAAAAXNSR0IArs4c6QAAAARnQU1BAACxjwv8YQUAAAAJcEhZcwAADsMAAA7DAcdvqGQAAJ23SURBVHhe7P13nCbHed+Lfit095smb07YgF0ABJhBEsyygmVZEiVKPpasYOvcax2na8tHR3K652PTR5Kvj5N0fCxbog9NSlSgxEyQBIOYCQbkQGCRdrE5TnjnTZ0q3D+q30k7MztYACIgzG8+z1S/VR2qq7t/VfXUU08J771nE5vYxCaeZ8iVEZvYxCY28Xxgk2w2sYlN/LlAbHajrh0W8HgUJQIPTuELhdACFDifIaUHkpWHbmITLz44Cd6BLAAPXoOJwAEaLAaHJdKrv++bZPMsMCQbSYnEgVNgI6wFLy1CFygJ1mpArDx8E5t4UUF5FUhG5otkY2OcAyc8QhmkEgihVx4Km2Tz7OCWkI3wHrwCNN5V3KJySpsRiRHwAk8oasHi9rVi6Tmei/Oth+f6WuudY720a8F651svbaN4rstmPTzX11rvHCvTBALnBeARosALC14iiJFS4pzHugylFVLEy841xCbZPAs4D154BCXSA17hSoGMJMYa0DmeEiVqSx6eIDwyqnBxa4jlvxax9DiW7LP099WOXYmrxT8f11qZvta1Vqatd86VWOu4a73WcH9WOWYp1kpb7Xzf7WstLYPV0pbGCwTGx3jhEGRACSjwEab0aK1R0uE9KLHZjXrO4XxoPkoM0lfNSiTWeSwGoTJm++eRkVny6NaCX/K419vv2WD563P1PD0brLzGatdaLW5p/Mr0jcavTF+6z0qsdcxa8SvTV8NaaWudc634lemrYa20tc65VvzK9CvjDDFOOCBFYvAuwpYJE82dxLIOzqKFRopoxfEBm2TzLOABTyAbPIDCWYn1Hq8LnEj5/Lc+xKn+A0glqn0AsWR7CGFXRGxiEy8geBBC4YUDkYdh7LKBNlv54bf9DJP1vUinUEIiVnJVhU2yeRYIfB/UxCFC431QHBuRokXBp+75fU7xTdAO4cVipbGsgvELGqBNbOKFCuUAYUCUCK9R5Ri+u413vv3vMKb3oV0cSGgNg5pNsnkWCPoWh8CFEvYKW5GNlQMUGZ+6/308Lb+IUBax1lOAQDbCrYzcxCZeMFAOhDB4YRBeoYoJRHcHP/Gmv89kdAhta6G+XH0wapNsng2uIBsU1lUtG9lDkfLp+3+PU3wdoR34NdqXVDXGJl5AWOjzroh/aWDY6F4W5zVeGLxMEYAsxtHd7fzEG/8XpqJDKDu6STbPH4bdnxVkI8CIHpIBd9z3B5x1dyFCG3TlCZbAhO7Usu7Vyn3WiWedtJXnXCtcibXiWSdt5TnXCpfuu9b2cxWudX6oKguxSkWwdGd/ZfJLAcvKUWCp4aRBiAECjzR1ZG8LP3nb32FrdABpW2GESq1eWJtk8ywQCs5XehsRhr6rBoyTfQQDPnnv73FafHMDZMPCGTfx5wERzDL1JYRrgJmovquSSNUxeYL3Fqm7OJ3h5VIFvwTvqwomPFOPx8kXr97NVbcnlxCxcEsoV0CmJbEb0EobOD9JHmfYQYOffs272KEPgu+DBEFz6akXsEk2zwKhzgOBQxCM+lywdcLLAZKU2+/9H5yU37h6N2oT3wV4ECm4UYQZAZkhVBdjLEpOorTAyktQQuy34Kl0an6oexNLBJwYmjg8Xxg2M1ZuXysWz+GGt+FDIIcGfNW2E552w6DNJcYHI3i/nfnoEt6M8DOv+vfsEntwYgDSIWmtvBCsrTfexDWj4pPF1+CKiE28YCDxdgvebMH7BiDwyiDqEhsL5q0njUbwtXEsGicinEhwMg4ikiouxokYLyIQ8QpJKlktfmm4Mm21+GtNW+taEYgEP/xNjCCEixLu0fsE3G6c2471EUI5tBZI7xCUoTj98JjVsdmyeRZYr2Xj5ADJgNvvfS+n5Dc22I3axJ83nNd43wxmCWoeK9uoZBszs1vp5xP0XYnWAm/FktFEgffBEhxk9Q6A5MVrK+WGr2bVshHVthy+415QINg1eoGtzOOcoJ/MosoWP/PKf8t2dRjnQOi13/JNsnkWuBrZKFJuv/e9nJR3bpLNCxAej9Vd8AnCaYRIMXikvoHbP51C/Drqo9fR13X6qhZ6GQ5AIESgFyqdvgRkSHzRwbO8h79INALnHJHWSGDmxKd468tO88q9JcKXDPQcomjys6/6dbaKmwLZRGu/5Ztk8yywJtkIj1NpIJv73sdJ8fVNsnkBwuMxuovwGulihMixRBj/cj7wwYKnzx3k+3/kF2F7jYtlShzFeA9lURJFcfU8F59pUBcvGVFciWH81cKVWCueddJWnnOd0FfK4eFpBOBd0NfgPElNce70eR7/2nv48Tdd4LYb+kjXp0wy6Nf5udf8H0yqw+AkXgYD+dWwSTbPAn7hma1NNp+8732c2CSbFyQ8YIRA+ATtQDHAKUVncICPfVpx990Jrf1v5FVv/x6S8SZFHnQTQij8QlNg+TMVvPg+J08gHFH9EAi89zhjadY1p05f4LGjjxBn3+Gdbz/JbTdeQruMUhtUNsrPv/ZfMKEPgY02yeb5wkbI5vb73stJsdmNeiHCIzBopKsRW4cSPdCKQXGQP/pIn4eOb6OI91Cf3MfLXvUGaklCURRoHYcHv6wtEJ77i/lj8qKaOUPoQkkEFy9d5MK5CxR5is8f5a++9XHe+rKzxBhKoYiycX7+1l9lXO8BV8dLsUk2zwc2QjbPXctmaUN3E88FPJ5S5WgXkRiJJsWj6OXX86efKPnWo6Mk224hF03i0Sn2H7qeZrNFWZa4oXpmOAwulihZX2TweJwISuBAwRApTWd+nrNnzmKLEh1rGBzlr9z2EG9/+VkaQpI5TZRO8fOv+8eMRzsrspFrvqWbZPMssBGy2WjLJgyt2spfiEd6iXYC4T1OaAwx4JAiW3noKhDrXourpj4zbOwFGpbW2gh5WszZsJalqnV9FSpfTX71ChD4JRNZBbIiALmBmfQeK3MEHuUUynskEYN8Nx/6ONz/5B7yxm5cawRKUCMjbNuxg0ZzBO88bti68cEOGXGlJcnwblbe+dLyXyttZTzXmLbetajSpRJYa1FKgfcM+hkXL5xHCAlC4p0hyp7ir7zhQd728rM0lSCzGp1O8vOv+xXGox3gaptk83xhI2SzkZaNB7xPMMqGl184YqOIbZj8VsqIQjTxwoamfrjolSeB4auzPG0ViGqI87nAxmp0H0xSl+b9ijdvyeBylSaG5SMCnQBIijAk62M8EidtsAYWFuE1wsUV2VT2H2tC4L3CyxyPBB8hhKfIJvnoxzT3PnoddnIXNtHgayAkjVaL0bEJkjjGAs5XNyRU8NH7IoTAo/B475BakQ4y5ju94CoF8F4Cjih9gh9646O85ebT1LWl8AqVTvDzt/4zxqNd4OJNsnm+sBGy2WjLRhuNF2CkxwuH9obYFUjvsEJSyBiP2sDw6vAaa18Lglm6GH74q5EX68RTcUfV2rBr7bMMw9JaDwK1xi6ekJdhkz/Yt4SP2wlXTWT1gEK4qPKHaNbOP4HBPMvJRgpPPiSbo9dhJ3ZhYw3UECjQEik1o6OjyChCKgUevBf4FyXZCPAWJTxKKdI8Ix1kwQWolDjv1yUbOZjgb75uY2TzYiydFxWGpl9Xg/YZsfUoW0O4Ot5HWCGxQmClx6kcL0s8EV7o1QWNFyrsQ/V7DXFC4+SKcKWsFV+l2Wp75bmvlGgx36yS74X8K5xQOBRWBDEyhF4ovA9uKL2vh0mBQlWeEj3SC6SXCC9CK2gjTberpQ/hfJgLJYPS1HtHr9ejzHKEB+cdeV7gjcGZ8kUmBd5avPdkWUa/38d7j9KqqhrWL6T1U5djs2XzLLCRls1GulEAkZ8FNU4u9pCLCNQASRE+HhSlDj5fha2vPPSZo3ria+fmmeG5mvIlPEgcfpWumfSLrTGNxhQDlEgRIrioDHcTWjthHrfbQE16ZTdq1ZaNVkAdqTRKK5AK6x1aRcRJgtbBHaxfmekXC7zHmALnHNZZhFAgVPBnULXa1mrZqMEEP7/Bls0m2TwLrEk2G7AgDhaoBHsG79F6G08+3eD83F7yaAonUxAGYZp4n5DLAUJ6pIuek497IxX/RuCfQ7IB0D5Md3SV1wfvQQmBRoBxxEqhszt5060tynIaLTvIynOc9xovJA6LEK6aTLgeNkg2UehGSaGQSiGkAiGCOlorlNJIqSs90/P5OYkl51+6fa0I5/AerK38KQnwyNAtFGKTbF4oWJVsFlxMhFnfn7wK2eB98IET7+UTnx3wxOnDvOEHf4FCDkAIpNkG1ChFH0uKlqs7k16Oqz/SpSM9zxZX/aYXcLUdQ7vEe7By8by2KKmpiLpOuHDqFJce/XV+/ie2Uq/30HKWSBR4G4FPcELgRAHChW7Vykssw8bJRiwlG6FAho9RSIWUMozavIg/pWHWvQj/PPI5J5urtzQ3cc1Yq9CvhAfVQyWW8ycv8M27H6WMx8j0KH3RpGcVuR6l0GPkaoxsQzK6KHJFWEkuR8mXhitlIX5sSXy1XaUNz7PmtRbClfm7UnIZZPg7lWOkchRb20IRTXDmcsYjxy4x15EI0UKqGOcN1cBzWMfIV6awz7WL1ZU8UnXr8EGf453HWfMilauZCDw3+HMnG+/9MrniIb7YseR+fPW3InoZPGFUxw0G6NQTRzu4eHSab33xPvrzJT6H/jyk7YK0k9Obg/4s9OdWkVnoz/krpe1Deht6bejNVeFSmYNuO8jK+P6cp7eQ5um1Bb35kN5v+3DeuWrfdpWX9pXXXszjetvhmF7b05sPks7DxZPzPPrA0/SnLZImg0KQFR6PC+YtXlQ6m2B3syFb3g3sMsSw4lgMw8HCe5zzeOdC1/RFKesVxHppV0tdjueZbDyu+oNALKLy0mNFtXyt8FWWgyz9W/p7Zdq1/K13jvXSVvsL+w8L2y0RkCJo1iQKvEB4ucz15NIHHaIFylhqLsL3HVHUpHv+Eo/d+xD9uQyfWWzaw/ZSTDfH9DJMdxXpZYvpvZyyl2O7Oa6bY3oDXK9HY5BTM4akNNRKSzRIcd15bG+e5iClleXUioK4LNBpiu0MKPs9alnOSFpQzwtqRUbc70NngJkv0FlOzRREaYqf7+C7w+sXlL0c00uDLORxaX6XbPdyin5G0Uspuzmml+P6hstnLvHko4+TzQ+o6RhJgjUghSNSmjI31XPwS5bJqSYSroer7hAgVu12Vgd7kM6H5ynCbPAXo6yN9dKulrocz6POxuNdQS49Dk/NKGQRY1JL0VKk2qK9JZEOLRRSiCuW/Hyhw3tdvYUDIEP6GJMn5KVD1xwiyvj0t9/LRfFtfOxwQuCxCOfQPhBtIT259Cg3zmfvSPjqPXspW4ewsQDqjE1sYd++HURJgzQHL4NdhxACKUWoVVcpM48g19AooOkcXTWgLkvKex6kN3sKoWtIWaNx/T4ae7ZgE+BrjzJ3+RI0FMaXjN18K6Pbrmc+maO8+yE418PEYHXG2M4dtA68mlTson/2mwxOPERz9yF2HbqZjqnRkw0KpUGUKDKkA1hH3+RBCI+QUJYlUmmkUKRpxqVL5xkMuiglwBum0i/wd38mYXT0KInIEL6BlQYnwqRK5UsEOW6NNacXsURnIyS4SmeTT/LRj67Q2fgaUqpgYVvpbPAihJW7ieFg8YsRXqoQivDPi9BKvKrOJp3k51/3TxnXu8FFINduv6yd8izg8eBA5BHKajIEc8qQupxCWAZpRuI8o9KiexkqB1mAMAJpJNIqpNPLxarvvqzIk8pBpQJZSIwBiwKlMM4yl7ZpM8dA52TekgOF9JRSYqTECFkZ6WkiG1VdgGGzZ7gWlWTQ73Lm7Anac3NY48mylCxPGWR9ev0eaTYIcUskT1PSLCPNMvI0JU8HlGVOt9vmO9/8Bmq0weiR6zHjkzz8uc8z9+STFOmAe755JwPpaR04gNq9n4c+cwfTD36BqLzIY1//MlltlNr1rySd2s7DX/0i7Zmn6T51N8e+/mW27j/Iyfvu4ujdd2JNjzzrkqUDsjSjGBTkWXZFPpdJnjLIBnS7HYwxlEXB9OVpLpw/z6DfQyqBijROuOC4ygffz6FhLKuOTTVlYeMa60Us5YlnwhnPZN8XEzZ6XwuqkIW25Zp4zslmQR/jACOhhIEr6JR9ZrM52lmbWkNTiyzCFkghMIXH22pOiwgvDr7K+YIMx0K/m7IiTy4YqfpSkReaghpWKeojTRCONJshy9tkpSE3htI7jHCU0lMqMCIQWGQipKvIBsL9C4GKIoQQ9Lo9ZmZm6HY75OmAIksp04w8HZD2e1fKoJJ+n3QwoNvr0el2w2xl66iPT9KuNRg5dIQDr3oDT377Acpuiogj6jt30B2dIt5xAwdveT0n7voi9GdAOhojI2S1GhPX7SfaOk77xFEinXPk1rdQG9nGxOQWzp87RTpok6Vt8kGHrJ+SdkvSXnFlPldI1u9TFDlpmtJuzzM/P09RFERxjBASYww+TEhaF6u19FbFBnd7aWP9Qlo/dTmec7KB4HjHC08pSoxy6EGOPN9GdnLGJsfJYs3DM5fJo4RcK+Z9SlcUZNJRKhbELAmN/u7LyryZGGwCA1OQ5Q6H5NR8wYXc0RrZwdZ4K1zMKbsGUofILLIswRusclhl8WLJ1IFlheixzmGdw7lgsTo3N0eWphR5TlkWlMVakmHyjLLIKYocay3WOtrteXCOsrR0jGEuS1EqRs12UOkAWfTJtGfOGPo5iNok5cDSm20jtCPuX2Cbb1NePkZ2+QxlvUnWnMKoJse+dT9nH3+SA0cOkqdtyqJLWQwweYHJHSYPrZX1paQoCgaDAb1eD+scSmnc0ILXe6IoRsmlxLyIReXtBrF0x7W2N4RnfMALHwu3tP69CTF0hBP2W2/v54VsAApXMJv0uDy4SO/p02y1DXZu20evFvPb9z3Af/3Kt5imxsBL+kWXrOxTuJTcZZQ+p/Q5xbKwoHRLxBeUvlwiBcaXGEoMZp1wI9urhL6kcDnlUHzBjEy54OfI0llkp08EPHD+PP/6w3fwuNVE8gDf9/qfpmEmcZcd9Z4i7ju0MQgsVhSUssBJE2Z7L1XUCVENqTqklEgpscaQpqHbZEyJrYYtnVsU7yzYEHpncb5Kq8iLKKabZkgNZd6jRmhhknWJaor+YB6EpRz0iFUNWyTEqk7UmeP8g9/iyU98gKfe/x72HzrI5M7r6GQSIWts2X+IkYMHOf/4Y1jp8L7EOQPWgvN465flczG/Du8dvrJeTdOUoihwbjgcG5qRUoUZ3sYYnN+A8veZYil7rcZk6+IZH/DCx0Zv6c+zG7VUv2yMqXx9OIo8Z6Z9gelL55natofGnt2c1oJ//a1j/LtvPcSZ2jbmDai8JL0wTTEzB50efr6LbXeuENfp4rqLYuc7lHNzmHaQcq5N2W6HcK76vWq4ke0rQzM/D90efiidLmXZxZQd5Nwc/sI0kYC5Zp0Pn7rEP/7onXzismV89xv5yR/+VXZNvIrBaYdsK3QqsUWBxUDkQTs8PtTYfkUlu0Th5nFYU1DkGdYUgUxcibNLxJSV7cTwt8GUZXhOSoGDojSYtE9LWvqzFylrGucspsiJXIm2GbHLSC+fhkghHJhohEOvegs3/9WfQt34WqYvzEA6IOnN0WvPYLVk+4EDZDOzdAYZxoF1BmMN1hY4WyzPpy2xpsDaEl/l1w5N5q0NoyTV+yWEDPkXIGQondVe6mHcammrYsM7vpSxfiGtn7oc10Q2CzYyw2ZURTSu8ig06A+YvnQZ0TXs2Xsjte3buCu3/P2P38/vPT3NYNtB0niCloZivqA33aM33WPuQpv2hTa96R79mf6iTPfpXurQvdShU4W9y10GswP6M0EGMwP6073nTXqXuwvX7l7q0L3cpX16ltkTl5m/OEuvN6BvoRdLOnGLh5MJfvkzD/Pvn+iQy1fw/X/pV7jxph8hm21g5iNcqrGlJC8suQlk4FyoxZfRzRIy996F1oC3lGWBqT5Waw3WGsyS7RBvsdZSGkOe5/S7fXDBQrdWlPQvXeTp48eYOnCIImlirEIUkF24hCi6nHn8PvYf2U1qLS7XXBRbeaTbZPQV30NvLmXm5FOU55/izEPfRiaas6dOkkxuJamPUBgw1mNcifEpxmVVnpbmMeSzNAXGBpJc+vqGJvqK5vk6b/dwnw23eja840sZ6xfS+qnL8ZwMfXvvKUuDc5ZOp0O73UYKyfb91zGIIj5/OeU3P/UdHjdNBtu24Ttnef2E5t0/fDNHgicS1NL3aLUcVfrZJT+v3K/aRyz5ZFcLl+y+7NNe8ZkvYLVjh/HOQ8NaMu/oRBHvPz/LP/vvX6J546sQ41sQ02f58SNNfvHW67gFeOz4Z7jz/j9hVl1gbHcTrQSqdFjd5LOfj/nK3btwo4cxiQJaKCmQqgRRw/kYiUFWrZ1gJl+Zlw3JH8K4jBCkWtEoJbEx9BNHXVuiex6msG0Ka5EiobZlivrB/bS1Ibn7SUxnFr11lO7sDKO797F993ZONkuyR2YYG38F3ckJWs0B8vhddGcvs/v6NzB77jTFhVOoXTvQW3dAfYKBaGBkhPCGiBzlCLO2GdrC+IWKylfdIi8FRsiqDhThrfDgMQhhsd6CN2wZfIm/9zc0o2OPkFCCb2FViRMO4WtoZ0A8i6Hv1aYrrDX0Larh779oQ9/Pw3SFZ0021jrKssBay/z8PO12m/Gxcaa2bWUmivj9h5/md+89zjl2krQO4ZzG5We5oTHDP/mhm9mBRXiHXFzEFrmakdHKbA5rPCFwPszzDW/moq2OFKI6rHrBqc4jqGx6hr+XXG/l7xC5LBhCeon1IJWjTwZRk689Ncd/+P1vwM4jqEMH0E2FPX2Mt4xL/tn33cCrG3B27pvcftf7uNw7ybat48TO4xp1PvOFKJDN2PXYJFqFbCK0DB+ptXZBl7MUAo/wDisFmVY0CkniBJ24JHYZ+/uGfgucjpEZ5JFipswxzZgjbYVXMC/7yMjgXMS8aJG3BkzlCbQVaV2DbDMuBnR9jBY7EO4ySewoexm1xgQzqaCIWlilkBQo+ignKqdWS/IqBN65oIMRAqEkhvCiCyHDHCQPzg/JxoC3bE2/xN/9ac3o2KPEFIFsZIFXIFyCNCVSFzi/ziJGsEA2TuYgJMJFgKcY2tk8tkk2z6U/m2sjG5tjncepGn1rwaQMZs7Ra8+ybc+NyPFxLgP/7DPH+OzTF8knJ3CjW7ClhtyAMDToM65KmkpT5kEJOszKItkEArFaMxAFU2Wb1OfouEmcl8Qqol00GBFTKJcyUB2clGgtggI2U/ioTyTGKHyGlxAVEu0gQ2Bij1Ql0hTEMiK3HlfXDHyBKhs4I4mSGOUdyuRoZxBeYoTGiBiBBmkxqsD4Aq0bZKmmPV9SZJ549y7EaAOkpdWbYf9gln/05hv4ob0al1/ms197D4/Ofp3GXok0E3z96zFfuW8c07oZqxO8aqBEDSU9QhWVTWy80CK40vrT44jwuoVSZ/FlgS62AzF5MkskDfVeHZ9ECNcnzy2yMUWhSzJdMjnXpFCeWiNH5AV96qRxhCclcoKYCKvA24zIGtA1ShuBaCOJ0c4iXAdVG6Frt2BsQSTm0F4hZR3nl8/BESJ48Q96mWqWsQwvemjdDFs2FoHHVqQz0r2df/BzdcZax2mpCFc2Ic7J3QDhY0aTiEE6jYj0lTXEFZBAAkYgRQkKBtk2PvJxx/1HdyFahymTBCvlS5Rsvsstm9IMkErTLwRZVtKfvYxL2+zYsxs7uoV7BvCbn36cz80J3MQ4PhJY6UBaUBHImEjESCcRXlcLtVfcQtW6gIUIJzzSpuzrn6Mfl7ikGZTJUcxMvIWmmqAcFJh6gUhamLRLpCSxbFK4OcpyhKgW9AexgwY1ujVJpkCWPUZcDi6hZ2NsYkD30EWdOB5hMDAorYhsSexLpPeUokYpNFYC0oCvzL6dQ0cakw6w/T7OWNARjDZJEhDtabZ3e/zcTdv427dOshPPZ+/5z9z95CdIxg7x1W97vnF0lDw+ghuZxKHQfhQlJOguXjrwDRBigZCvJJuYUk8QqSfQeUrDXY+M6gx4mhIH5TYiL6lFXVIrEHKcweACavcY0ewoRayw/dOMqwYpDcooJynDw8lrEpNnaBkzahXOWYpIUEQl2BbK5cScJy89Xh9Eaoeyl4jEGFkBUq/vptMLcEoEy2zEorGe9wjpKzcIhonyM/ziT0WMjxxnRCi8qVMwR9QUFKmnJjVSGAofrNLXhkPEhqInaagWUvYxwtAr9vCR2wseeHQ7qvEKyriBUXYdsgn5/AtFNi8UC2KrE1LnKXodVK9HVGr2HXkl5egW/vRMl3/0wa/w1d4MerRBomO0FZB5RJmgTExcKrQBbUCaHJH3EGUPUQyljyj7iLIHZY+oO8+tzvFrP3Q9f+fWfUyeO8f/9Mrd/NN3HuLgLksnvYAYnyFWJWaQ0tIRUZEzyCzN0lGPJH4wICpKvBEMnMEUJQxSRCGwRQIp1LOCRg6NLGa0P42ePU1UdhGmxDjIHeTeU7oC50owKSJPEfkg3EPRR6ZdEl9SjyWRCi2iqJfj0hK/ZYJzu8f5zyfP8at3HuMBJ/jRW/8Bf/OWf0A81yLvOlSp0ToCkwElCIMXotJqBR3E2p+PQOJQRYeyFOhkHN+fof/UvbRsii9KEuVo5rOkZx4nEhnSdZkc0xT9yyjfQ9kOI01Qoo/3XYTvMWkymt05hOmhJjSxLGkOejSKHKdKsCUiz5DWIkREvdYkwmLLnFJA5h0qWmeqwhVY7aNdHKazVoNIiJOI3MxjxRxxo09WXkDFJU6W5LYEJK5ypnWlSJyQ5EVGvZFgXI5XjtxnWOUopaNQnlx7TJhrsQ5Wy++LHBu9Jf88D3371KFSR80aJJbth3dzXMO/vb/Nv/zMY5yqbcFu2UYRaQrrKAqLtJqo1PiuxfZKil5B2k9JBwOyfECWLZFlv1Ns3sfPXWS3hltamtHZs7yyVeMQkm3pLPGlx9lenOKAmKY+e5zG5SfY0jnFdckMBwfniGee4sakzdjM48TpDHb2NDeWj3GTPw7TFyH1bDeXeUN8igO946jpeUYHs0z5PlHWxaYpJi3Ic0uaG4o8w2R9bJZh0gKT5ZSDjHKQUfQH5L0+eTYAZ9B4VFbCwJC3c8polO6W3Xzycsn/+vH7+HpfcfjlP8HP/+SvsG1sL3m3RBqHwFQe6Co/OD6uVhNYH9I7mmQ4F1OqBoMTj9H7wocw547TqiUksuTyg3fS+8bnaMqUuGijijYNXTIicsTgMrHrk5Ay2oKWyGiWHXaPJjTcADuYI7F9xhPJeCNCuRRZ9mkpw2QjBqER3hOXXZqiIK4nlK7AUzlnerYQoFAor8l7JYlsMNHYSkxCXY/gCoXNNYlOkKQoETz6XSkDFAWRadDUW1B+BGFrJFEL50WYxybBSVdNFt7Es4V617ve9a6VkVdDVCrydpfWxAg0I45Zyb/5/KP88SOXGUzuQ8ZNIi9IHVjnkSpCEmFLFzyayao/iAu1VbVcxOqi8L5ga9LlzYem6BjF/IUz3LJ1gu1jTR68/zvcunsb77z1IPt1n1uP7MKceoL/4+fehFAdfvGW7Vz/su0cjmZ555textFvf4tf+N5bePM+wet319nTbCIunuXf/NQR8t4F/vr3vYxGr02UdfixH34Vdz9yiULW8VWrAhx4WznTltXkwpDPBWdNIizr4RFYLxBSowqDTC2xS3AkJCMTpIXhm/c/TH3LONdPbuVtb3wLdz54kTPtNNjfRBJFHYgJzpqCInyprmZ5NwoEjsTllEkTJWOiiycou6dJGjHxjj0I68gevhuhC6b27KEmNIPH7yc/+zSJbzK1dYTO6UcpL1+k89B30DaHbMC5+76NHm8w2kjQWU77iceYffpJRF0zOVqnPHOG3vGnyC+dRpYZO0aa5P0Z5mcv0JqYwuUlVE31NSHCiFRoxYklEorUe4fwnkbxOLfdkjBRK9lR38ej377Ef/1Pn2bfjsPccOA11NUoovTUojESObqGjDBa38qXPvY4f/qeu3j5kVvYsWU7WWEwdpyjT1jOX24i4m0go5ATUSnkxXDZx6obVU2xuaaa+4UCUeU+vMAL9xdoVgAeZWY4vPcy+7Z1iKTHIpGmwSt3v4WaHAWvrngfl+KaymfgSkxdU2JQScKd9z3A1+78Bu0LFxicu0Q530d0UzAFCIsjzAlySmC9xzgbRhh0eIC4al7UGmKdxyaeUkn6eZ/9+/dSdGfw3YzranV+8raXwcVp7NnzvHHvKAdHPEkn5+id93Lh+El0u809X/gGe+qKt25xvGN7xEc+9m2+8M0z/MT1U/xA7RwG+NA9x/ns177DOw9Pctu+FsVMF5H2EL0OYmEhEV85ZhoqmVTwDexl6LV7DURYVHAIrhW+rjC2ZEQqat2MeKZPeuYS0xdn+M6J07zn01/hct7nukTzqlfeiOn2UXKddUzXgRDgMHin8RYsKY2mxvcH1AR0zj3FyEgd7S3jOI5/405q3rHvwH4u3Xs35YUL5I8dpX/sSQ7ccCP9b99F+9IpRl5zhLl77mFirsv8w/fTVX3GDu+m/+1vIufOkT51L6KYZfLgAfpPPU5zcJHaxaegM4N2GZEcTi7dCFbbb9hM98SqQJk+F4/N8uv/2+/za3/3j3n6Mxn3f67Ptz91ga9/6jj3fWmOu+7ocNcd3SpcKV2+9al5jt2b89inz/Orv/A7/N+//hEuPNUhsU1UESELQWQlcjhMuiZWy++LHBu9pee7G3U+LphtwIn2ZbI85+ffeCv/4W/9T9ziMjh6D9nxR5mfuYC0BcIWCFcghAEFMhGoCBQGWQ6QNg+fq18qfmFbemioiKTQ1LXi8Uee5PVvupkzHUfbeeYILai+8zx5qcMHv/Qgs0VCGicYNc68jBl4SaHHKIHC1mgkEWl9J30/EnQcPmLWQn/rHu49N8voaIu33HoLDz14jLrwjNRiVJmjXU7scmq2JHEl0hmgRHlD5CyR8yjnw9KlKkbosPi8Vx43okh1yqCYJr98HHXmKeonHuOvv2wfv/mL72BnkvDfv/RFPvKJO2hsmcRW6xB5ZKhoMEsIb204BIXQeK/QvgQK6s0RUE3aF06Rdc8xOrEFpRJcr4fqD2jFCfT61KOEy0+fQDbqTO7by1RrhMbUDvSeHdS3T6Gdx5y5QJlljN2wj+b2UbZNTjC4eIY4KhmdGqU5OoofGaF35kmK6TPoRgPlHPqqS9BsANWbrBW0Zy7zP/7b7TxwxxnIE2Qc8aVPf4P/8p9+j99/38f53d++nff89id4z29/jPf89sdXld/9rQ9y1zcfhbrEZ/C1Dx7jw3/4RfJeRiw1sdRIJ1DVEPxLE+vf+Pqpy3FNZBNFDk9JVlhOPHmS/qU2f+3wBO//pXfy47dsQVx6HDtzBnv+LFF7noYpSLAIcmw5wGc9VN6nng+o532irE2czS2R4e8Q0m0j8xgKuNA2dAQcbad0xzRnneM9X3oUuWMXN7ztTYwfuJnj3ZizEnI1xXndokNMp7aDM8DD7Yh3f+MU7/yxW3n7W/fzR18+ycPZDroKyGdpX57jrkfPUgInTs9SUwo/6FE3PZJBm3gwj0576MGAKG0TD6ZJBrPE6RwqnaPuUnzawQ46YDKEcIjc4IsBhe9SFBfwc8cYv/w473rHG/gvf+2t3ECfz33r93jfn/w/dLI2Tnisk3gRVcPAPiy4dtUVHsELQRYlSO+JXIpUnkI1GJnaRXnpNNrME++8jlK3SPMCYSymsGTz80xu2c6ugwcx/QEyicmcx5Yea8Eaj45itFDYmWnqkaDst2kmitzZ0L3UEamPaW3fy/zJE3T7KRO7D9IbGKSMrjCVesaoWhephYmdu/nf/+0v8sv/6SfZfdMErij55//m7/LHd/wm7/6jf8Hvffwf8vuf/kf8/qd/aQ35R/zpl/4Ff/1vfT+kjpe9cQ//6j0/wT/91z9HfTwitymFNdWqly9lrNuku0rqclzb0Hc+IE9TBimcvXCB9uUL3HD9PnYdvJ6TCH7tY9/i975wPyYaJx7fip6axI9OYJIkuAnozCP6fSJng7HWVRRwwktqueVgeZnZxDDQDZKsR9KAc4VmxI8xEXcwccylOWgkCi0tZVqn0ezSTxPiusJQYgcQRx4zkmNSx/hgC8JqZhuzlLU5WpdS/vcf/WH04T38k9/6IHJsO2U0SmlKhPCVvbMI6yWJEoFBOYlYWApWUjgPzQZ6bJRIJTRSSc/Ok/cvwJmneNWe7fyLH7mNdxzaTsce5+OfeTcPnHyS+45F3PPEFGLLaylkAkkd7UZDl0otDn2vp7OxUlKoiMjApLhI/sS3yC9n7L3lNp741p8wMhWz85af5YlPfZA3vuN7uf/rD7Fz/zZa1+8kf7ygN5Ywe/zb6IkpDl7/Oo59/kskNx5gy54dnP78F9l9002cP3Ocxr7t7N+7l4c++VlG3/Raeo88Qv3Aa0h330I9bTP3sXczvm8/4vt/ik6nYCTSpG7FZNMVWBz6VqEeXDb0PZwzZan3P80//PlRtjZOs122iMwIn/qzT7Lz+jH2HNqPiiSFmbtKL9QT6YQH7jyPsmO89c2vwnCe2eICmdjDH36kx6MnDmLkjYioXqnN1hr6Fpt2Nhuws7kmBbFKDTES4SS6Ucf4gqdPPc4gnWXnlm18z8v2Mzk6xROPPU67M01hSnSc0IgbJEmdYtDBT5/HTp/Gdtu4+XlcZw7XnQ8yP4frtJdIh6IomZ2fZa7MSXsp3UFBp5thCslgNqc/O8t0e54yLRnMt+l1O5jUMtebxgw83V6b/uwcWZrRS+cZ9HtkvZKi3WMwP03mUvKLl7jlyMt4800H+O0/+QqnL82S9zLMfBuX9nHtKo+9bjUZ8zK+dwE7fwk7fw7bmcYOuqGWb9bQIwnSW+zlPq4zjb34NH/llQf493/rh/i+rS0eP/MNfvsP/hVPzT/C5J4pLs7GnJsdo9BbEXENiJFCI4UFZaqGqF6XbBBBBRa5kogCkxV4NY7cfh3FYI5o9z50spt+f554x1bkxG4unjjF7KmzzHQtycG9lGkPPbYd0ZgkbbeRW7fRqo/SnZnG7trB1v0HufDQo8ycO0+8+zpqh2+h006p7zhAETcZiTR69hyt6w7SqY0j62OY0iDUWq9h9ZIzVBAHklkUEEO/wt4yIs9z8xFDq3kJ72co/TxHXjNGMlniIk9WdtA1F0wBpV9DoPSGA9dvZ+f+Fp3yMqmdgbgkc3Uee1Jw7uI41KaQtaSaXrGWgjhsX1M34YWClQri6t4CfQpYS0Fc1oOCWI2E0dJqAu1quKaWDd7jnKM0ZsH3yMzMDOfOn0NJxfe8/e0ktRq3n53jXX/4Ie47M40cPUhr6jBy604GOqU2OMfrRjWTXmBMsB4Oy2QMpxssz7KzdiHGU1UmlbZ8+Ep6fPDiJoZKqxAXaqCq/BgeF44UBItlh0dISZnnpIOCeiMhiqLKXLsqcjGcfBWOtZRE0qBsByFLTDLGwzOep+ctjG3BtyJMexYu9KkX8/zcGw/zv/7wazkgcr5x7x9xx9c+ACOWaComHmnw1Tsb3Hn/dTB+hCLWQJNYStAlkOCJEaKaEb0W2eARlNU9aqSsIUSEKwt0DMJmeFcQxZ7SlEADpRpkGhJTUtoBWmtUKfDGIxNBRxnG+w7bSOiLknruqauY2Tq0BpaurlNKTd0Y4mKA7k4z/eR3uP7Vr2Ze1ulEI1gnGY5FSe9CGQ5Xr2Q4ogNe+qpFs0rLxoW5UZPpn/F3f1YzPvIIDUqEa2JkgVUO7+ooLEKkuPXckFZPf2G6AsHAVAjI84nKLej+zekKz2HL5trIBnCVUydTzShO05S5uTnOnTtHv9fjtje9iZGtW3kgc/zGH9zO5+56krK1m9oNN+FHFK8cFfz2j9zCEaBekYUEiiX12lKsrDV8JUuxcp/VMDwukFPA8NrD337RumVd9KtOVb3afw740OmUf/7uz5Fs3YUrS9LLp7muXvL3/tr38+M372CcjA9/4t9x//13MLYzZmR3C1uHuD7KF79Y42v37MWMHsLGCtQosRAV2dTwJAhhrkI2w1aCCNMbfDVkLwBccJ0pPIKCMKkjAa+xUqB8mEoiHSgnkR6stKQxjGbBaViqoVGCctCtQb0AhMBJjTclNQG9E09Sa0Rs3b2DmdRgmpMUWUmytJAX8hpsWoalHbqKa3SjKrKZyv6Mv/M3FOOjQ7JpYVSJFQ5PDektUmRLzBXWwjoTMYc+iCc3yea7Tja+at045yjLkjzPybKMubk55ufnOX36DDff9AoOv/wGLgK/+4XH+b8++jl6Iy2SQ7v4y9u28DvveC0jF9ucOvUwUimiKEJKgRTBE9sCIXiqFRoWX9bFD24x+96HfC0cuEoY7FQWDgnHuXCc92Hp1+FcnZWydNKjENAzdYRTRGkXJxQ7XvcKPnJmnl/67TvQjUlEZ8CNE5J3/c9v5NadW7nQP8EnP/lfeeqpr7Pzuia1LRFyRGI1CEb40hebfPmuXeuQzbBlQzAZWIVsfKVPAo/0tvoAPA6BqWZVe6HCB+nBo7EiEIsToF1YKE74sH62kVBqqBWVd0IFkQlkk8UQG0/TDyiNhbhJVpSMNBLq2jPfaePiGqnXaCGJXbDqXcynX1a1eDFs2axBNtYAlqn0z/g7P7OEbGxFNnJINgYp8quTTbW08YYWqXvJks13eyJmheGhQ8Lx3lMUBdPT00xPX6Z97hw7rjvI4Ve+io6Cjz0yzT/5vffTJeWn33Ab7/3J7+X8g0/zZ9/+Ks1mg2aziVYaqYITqSVXqny9BATuWOzeLMQvqSFXw6rHearuGzjrcN4tEKlAICryE1KEF23JoaU02LQD09OMjk1y20/9NB84fZFf/u8fIxtYfvL1b+Yf/+greX0d7jn1Z3z0079PLz/L1t0JumWRTYGVhqheQzDOn32uzpe+vQM7ehhbj/C+SSyvJBsIZBNIZ+X9hjlFAkeiHVIE8jWmpAAKlWCFQnlFZBwWh9WSyEhyJakbgfAWoQqUkGReYSTEFqzwWCnQLpgk5Api65hyHfCQ1cbp5g6hBIISZwt0UqNAIsqCOhbnBV7osIZo5d5zOD5wVbLZcMtmg2SztGWzSTYhvIJsvsstm+Eh3vuF2n5INGUZ/MimaZ/LM2e4eOEcMU1e9fI3MrpzjI9cmuffffjD7Nbwh7/4/2L+5AUeP3GcifFxGs0GAhFcQK7I1hXZFAv/FrFyn7Ww8gNdcj/eL9EYDVs1C9uLhwgEfeUo8g7+wgXiKOLAbW/ng6fP8Kv/5d38tXf8KL/05texlYy77nsvH/7k+5nY2aK5NaY+JlGJQ8eSWhIHR1h2hD/7QoMv3bUTN3qYMlEgWstaNpAg5JBsFrtSy+A9TeFQwjH/9BPQa+PLjMbhG1CTE/QyA0kDm1qaThE1Je2yz3iZ0K/XaKYCKCjpks/Poyd2oqMYa4MfnVBGBGteIZHCox5/gNq27UzPl0QHbqDwFikN0rugD5MR0hpib7BISgRKRqTGInUM3ledPo9TrDMatdmyeb6wNtk8dy2baxqNWtq1WIqhfxUpJCrSiNEIFwmy+Xm6py/Siid4+e4Jrr/lRvqdaV556CAJOaLss3VyhNFmQquhGWnEtOqKVj2iVddBGlEl1fbStLoO+y/scxVZdpymueQaIytk4dwrjmnVNTJpkCQj1JWiltSY2LKNi+15juzcxt9+822Mlx0+/5l384WHP0p9W8zkvglE3SMbChEL4ihGWJBWgKrz1DHFibMjUJvCAsgEJQRh0SUd5h1VzYCVfmwgNLoUnlE34PKjD1AUA8Z3bqc22mLmrm9SGx2h0WwQu4JGlDChJGn7DEnDMVVYTCQYzy1Nbeicepi8fYEde/YSZQPiRBDZjCgf0GxEeDNgUkls0WHuvm8zMj7G3KlTtHbtRAtDq65RZYoocpoqQglHWWZopekPUpLGCNYFihGA9MEyO0w6HXathsLiaBSOhj3OrS+X1JLLRDgE8ZI5TDpMtRR2ocu2JobXEkMT4dDCtabOY49Jzk+P4+sjeCUR6JfoaNTwGTz70ahrIpvVMCQfpQL7Sy3xWmO0oDXawnR6zJ+9ROE0B3du4fDBfYwJiS1TtIyot0aI63WiWh2d1FBxvIYkq8StF78BiZKrHB/SdRUO901kk5qISBRoASOtMfaNjvO2/XtxnUucfuwr3P3Apym2FIzvHMPpkrgVoaLw8ahKV4IHR8xTx5eQjRLrks1CK2yZQCw99tIJ0lMn2POaV1MbGSPXCXr7DuI4JhbQPfk03fsepH/+PPGYQMc509+8l3S+Te/YaZQq6R67G3H5HCZpMX30KMX0GaR3xGXJ+fu+ST59gbI9z9bd2+g89SRbJsaZbc+wfc82eqcfo3fP10kvnGa0NULdCi7efx92+jzUmyRj4xTGY1AELVmYb+bxOEFFErKioSVk48I0kUa5gmxcHNaTeqZk4zfJZgFrks2wnb862YhnQDbPWfkMX3gAIQWR0EyUDba3thNNTbDjlUcY3zlBevkSs8dOsdXAKJZEJ8SNSVQyCrqFiJp4VcOr+p+biGgojXXkyuOSWJIoi2pIXEOBDIrU4nLK6aNHEU3Ftht2MznVohZ7mhoaKsyciqRHSINTJTY2QVcRSm9ZuV75O2ApybAkFEIgu23k6AjGR8wWmlSNIUZ3Y/QI/cuz9E+e5PD3fB/NnTuZfuh+hCzpnznJyJFDTExuYfr4MUav28Powb1MbZ3CnTnNxM030Rwf5cwD9zF24w1sfcXNzJ94ms7MNMIaIhyJKCkvHKP3xL287ntfy/X7Jrl8zzdopT3M5UvUbjhMfWKUbNCnKItKPxa8KXrvES7ch/MVAy/D8KNmMXy2eI5O8xcb6xfS+qnL8ZyRzTJUoz7KxtRMTLM5QdFIGNu3nb17dhIPCphp49od6nnBuHa0MDR8TuLNn7OUxN4Qe3tVSXy57FgpLD42+FZEv+aYybp05gfMzrSZ2L2L+sF9mC2jNBMYiWCkFhO5kroELcIKd1aVWG3wojL5ZzjJc1GEJ6zy6AWISslN+Cid99gqdN5hvcN6gbRgVI3CJ5TUMC4hro9RtPskI2MUgz57du5Eekev26U+OUUcxYyOjOCqWrrIcsrCwORWitIwmG0TRzVqjRZRUme0OUrWT9FaEuGQWZfi4gkabsD5e79B/9QxVN6nP3MJGgmJVqSDAbVGgyhJgKD7sT4o5p33YRG6RTOpCkMyDduLurlgZ+UFlZb5igPXxzPZ9yWL9Qtp/dTleM7IZqkORxD8ydKCej1mijrbonFqrTHU5AiTe7bipaRvPF4nyCTBRxoRRaDk+iJXiVsaf7Xwim0VfstK0beuqOXXFJJI16n7GlPRBNpIbORJtjRpTYyyLZpgzCXIusPGBlP5yfUIcCJYYNsIVUiQKVZ18VGOlSnoFCEHCJ+jLKiigTM1cgGFEGEZX3WlFELit+yiKD1JmrLb9jlUzhMdvYv83q+j8y41LalHGeQzyEKhilGcqGNMwcB3cbLApJZ6NEnNCZJIUcs9dRVR4Gl4iR6UFN6ijcMpSVoO0PUGsR5Btvbgt74MvedV7HnDX6K+fRfgyTzIuEYvL8ltWKAPJUCBVVBKcM6HtbCsC25EhUMqwhwzaZHSo6pJqVZKcqUolcCLAikyhCjwgjCR9Wp4JtXySxbrF9L6qcvxnJHNFRDB+4KQgthJ6iJGq5ioWUfVYhojLRqjY8ikhhdBw+9FNQqxnohV4pbGXy1cb/tqsnJfIZBCEYmYVtSgmdSpt2o0RhvUazVGqNOQcVB8SlcdFqyVQSD8okiXIFwd6eoIVwNbw9sI7yO80CAVEo20EdKtJTEYiW8miJE6Fx69H9GbJr30NPNPPEhrxxhj+3cwf+k03fkLHD/2HfzUOElcIzcGYoVrCiw5jI5x+eJFcpeT+xzjcuLJEVRNcPnMcdrnTpKTUxtvkmU9aNQo8pR43156Fly9xVxecurCBeZMClGMKTXOKJSPESTBjeQSkU6jXYyyGmUU2miUqbatJnIR2ilkVWbB256qLJBD6yaU7gbr2w3u9tLG+oW0fupyyJURzweGNipaK5SURFGE1hqt1MII1mqjWy90DHUNiGCroyMd7lEppKya+IQ5NUMjvDXh6kjbRNoG2Ca4Jrg6RkRYDWWS43WJtmIdAW8EpWix/dVvQU/u5ezpOc6d77Lre34EObkPW9/O1G3fz9mnZzHJNiZvegOZnmLshteR2lGyZBv1XTehpw4STexjJo+I9tyAHNlJx9Zo3fx6sjJm0HGMvuKNiNFdNK5/HWl9N2rPyxETBxm98XWcPzGD6TpG9h5BtrYhtuxB6wQpVWj5Vk4Ih6NxkRXEFpQTKCeQziOsQxiHtCCdRzof0nyY+Cq9qmyKhr6PxJK6dgMuLV5cr9t3CesX0vqpy3FNdjbPNXyl2HyxwbmgNRCVMy3vVGUZC0b20WR8+v73cdJ9DfRwkDdgQZkuRFgFkgnu+GzC1+7ZS9E6jIsVqJHgdjgagNJg66h1fIYLwAuJVA1MmtNoNtFeIJ3F5il5meMlxI0YqRSxhX5WQKOFzBwD4YhLQ1JTeFfgnUfVGgyyDCUEzjp0FOHwxFFMnmU4a2jpGOFB1hK6/R5xnMCQbAuDMBC3PJmbw8uY3CmcEyBihPBI71DeIr3HSIl3QT8lkAgpkbJyWCYsQjimel/kb/9Mjfr4k8TSIW0NKTsgM/A1HBJEGchoXWwa9Q2xtp0Nz5lR31Wq22eHjfLYi5FoIKh6xHDoszL6CwMpK6yU1xkODBAYYTAqx+gUp/qgLegYZK1akUKA9FgNVotVxeih7sMiRmpkLqcnCrrCMNDgxpqYkToDaxhYS0dAniSkZUkag6onFPWIVCsGUpLFmo4tMbWYTEt8q07qSlwtplNm2HqMrSd0lKafJMyVBTSbDBQMFJTSU0aKoiZpu4KBlKRC4JSASIIOs6+tBKMEZaV3Wno/pfLkCgoNhZYUWuCVC1bOleJYChk8JVaeHeWKJYw38cLA80o2L1YSecYY8srQyliArLpNi6Mo68FjRUyBxkmQwhHVGyjZQPoRsKPgRsA3QdRB1NaQOogY1ABHG6t7WDGPkR1MklLSwYkurpZjVEoh+zg9gDjDRX2Mm8dHA0rRxUUZRqX4KMXLHkTheN8wFH4eajlGdHE6xUYDctHDxjm57GB1ipU9ctnF6B5e9/BKgBoH0QLZAtEIVtGiBrKOFw2caIRpraIBqgmyEl/D2xqeBs4Eq2CpSpQC72xV1kFE1ZW6ioukgI3s85LH+oW0fupyPK9k85JARS5ro1JergMPeFvH5ZqGkkyNKibinDGRMuEt487Tcp6mMIyI4qrS8pYWjhaOETwjYigwgmDES8aAEeEZFY5JZ6kJy5Q3tIRlVDjGfUgfgeXiqzg/jPOM4hgTjlHhaAlPSzhGcIwKGBOeUTxjeBrC0ZCGpiiCyGGec1qypKVKmqqgpQpaVXpLFrSUoalymr5PQ5S4ch7nBghRUEsUVI7QhRsSjVjWZV0TG9hlE+sX0vqpy/GC0Nm8qOGpNJ1hAqFzYVE9K1MUKZ+6772c8nci9HKnFSt1NpmZ4u57apy5tJPa+CS5K4jMDpSp41QaFvlDIquZ6esjBi/xlfsdqmwutXFVzmNlMEZPDHQSGM+gH4cZ3dpBrqquyaoIZxQEnQt4fBjRr/r9oSYTlR9pJyxOhuVcgjYnlMaVeRz+kGFP70MvVYb5UVEkKKe/zl96W0597ASNuIUy43jfD36ufVLpiYtq6sM62JwbtYC1dTbP3dyoTbJ5TlAZ4q1KNu/jlP/6+mRjHbYsuHRxB6cvtej7Dt73kOkokU3wso+VFukVygWCYMlHKhiSXkBwIyEWPuvFKQDhw6cim1I5BJ668bRrsGUQSEd6QWwEmZbViM/iuVdDRL4w1cCJsAhcyJUI+hMfaEngQwuE4dSCcIxf4hEuEFcgmmCUFFbDDEpii44E4+Nb2b53ntrIMWJRR2QTaF0gKPCuEc4n8/DhrItNBfEQa5PNc6cg3iSbZ4lQGy8hGxvIxqlANp+8772cpGrZVG+/gCW2IEGrbNI+Wdri8qyjX8yhtUXaBG0VyDz4fvEK6SuyWRXhzE4Eg7lhzT78kGHRnYPAYwVIHLHzDDQ0S8hU2Ed5iZFinZbNIpQvFz5sJ6gm74XjBCEDYahaVrkZSvDU56Ein0BOMHzrq5MKDzi8d0gpGJnYhWrmjIz1iWWMK+uoBQvsKAx6V62odbHZslnA2mSz2bJ5QWDxkwkthCHZ+CVkc/t97+OkqFo2a1S1QggoFKawYc6QtcGG54qXV+CqdcVXQ7D5qbQVIWNVwgIPBW5bQgJUL5jwi+HCviw5xwr4hfna1a6rjQAtuSbV+RcRLrCoW1nMcHUbCyGIimiCPZaMS3Qs0TpGSblKOW0Umy2bIdYmm82WzQsCfuETWY9s3stJcSdCLe9GXQGr8dVERCkFQkjKcrlRTTBeGzLCKlj8XlePv1q4EmvFs07aynOuFS7dd61tD0JKlJJhzhThtyUH6cKHz8ZNLK7AZstmAWuTzXPXsrl6G3kT14RhgS/U3Gs9gQpCW2QEMvJ46XDCoBOxTFQMUQxRJFcVHV8ZtzT+auFKWSt+vbSV51wr3Mi2jiVag5RBbyNkMOxTWi4QDTwLE4ulh621vSE84wNe+Fi4pfXvLdiZsbDfentvks3zhCvquCsilsPhgwMo5fHK4aStthclLBPqCDMzrxSxStzS+KuFK2Wt+PXSVp5zrXAj20La6n7DPTsRHLIH/U1w3XrNrZqVWHqaZ3zKZ3zACx8bvaUFO7JwwHqHbZLN84yN6hN85SJi4eMRYdh3KM57HJUrhpfUn8V6E1y2y9BFHZbogs7oWgnnGg97aWH9Qlo/dTk2yeZ5xoaMy6rm58IwcWWbMtwWS2xWNni6vxhY2bUZymrp14Jne/xLAusX0vqpy7FJNi8QCATSryMu0JbflE28SLFJNs8zNtqNkk4gvUJ4WblQCOGihLRgP/MSl5WFd614zk70FxnrF9L6qcuxSTbPMzbajYLwJQ1nLg/DRanOc8WX9xKU5wrP4an+4mL9Qlo/dTk2yeZ5whUP4YqI5XDSYZVZRyxeeGT10F7KcpWivDY8K13QMz7ghY+N3tLm0Pd3H1c0L6+IeKZ41ifYxHpYWrzPuKif8QEvfGz0ljaHvjexiU280LBJNs8TrmhOXhGxiRcUNrtRy7HRW9rsRn33cUVz8oqITbygsNmNWo6N3tJmN+q7jWD9u4D1nsAmvnvYfC4bwPqFtH7qcmySzXON1dqRq8Vt4ruPzeeyAaxfSOunLscm2WxiE5v4c8Em2TxnqDh+lXblQrd2Ey98DB/U5gOrsH5BrJ+6HM8b2Xg8ffo4l0HfQQ450AUMPqzwVi0i/2JFiicDcBJyCQaQHiNzvMiQZMTOEXtJ5CWqkrB8rEdgEOQgMoSLwdVwgBXhKQbvChbwlEJjCMuY/LlipfXuavJcYuW5VxNXR5gWqmygTIxwERZFKULZSe9QbgMrYuKDywofARpEUf1OwlLLogj7+O9Cub9gsP7zXT91OZ43snFAVi0ihhFgw7dYPb7q39WXOXmhw+PDwnSEm/aVK4gQpfBUS8Q6jfBBqOIWhwtFWN/aaUAjCHOhggsbh3ThXE5oLAIjBFaEcNl2lXaFDOOvFq4UJEZKrAzhsm2xGGeEfEbXWjW/w/taeu6VYSVOWIQwSAwqrPiNF2Dl0NH7M3mtXHCsjgxEI1wgFy9AlBWZXu0z2fjVXjTY6C29EIa+gzf9Ok7UIREQgwIagLYOjKfwQZxzC46Qrtk3yXcBdTyJKfDeQAIl4JxAuhqOOj1i5pGUyIpvBU7I4HIRBS4B3wDXQIgcSYZ0ApwOTsO9RyJQHrSzCAxO+uB2VIRw2XaVdoUM468WrhTpwqoJwbVXtVVti5A2jH8m11o1v8P7wlfnHl5jSVhdz+geJp7BRrM4NY+TKeCq+WS6Io/1Xvsh/Lrd342dg7UOfnFj4ZbWvzf/Qhn6jlHhCjE45ZGUJCZHpDm2LMiw5N5irV1GOC8WCCvRTmEpGVBSak+Ze+zAYvIyLGkSKUocBocTDi/CHKfgyVuCi4KoLk71F2rvUjmMcpRCYKXASYfEEFv/5ysurL6wuixJs+7KY69FNnA9JwW5AqMNVpWV9z4QbnmL8erY6H4vZaxfRuunLsfz5vDcA6ULmZHCYEwPSgOZQ1iFrddwrQSsRxsXvOZX3vOX+pd9QaMMNzqQKX1R0FBNarnCDww9dwnGU+544E844+9HxR7hLUpRreBI6FK5KCwZG1/GyBY5+yhEhJQDYjKkjfE+xipD5Cz1cvHxDh+cuEqN8uwQHFivf62N6EcWsfo5AgTyirThHfuKo+djhdMFiWkTlT3AY2nifYzAoUkRWBzRVb6G4ADE+7jqLfWRKPL+IT76ccO9T0xiR6/HRo3Qtd10eP6sHJ4/b2QDYDOP0J7StxGUDOb64BvIxgjxSAPjDbgS2y0RUtBsNvHer0o2K7O5lpPrlfs9lxBicRkV7z3CCJyBed8h0xkj8SQ1r1El9AcX6PnjfOmR2zmtnkREhkgZnMuJYll1MyPwMYKITJRcbE/SKY7Q9zVENI9wGdo0wcdYlSF9SWL0M6xPVoN/Ds6xUax3rfXSAsISLgrrLEoqhBAMHDQbhlF9lq2NeSKR49BYFEJYFL2KbOorT3cFgs5tk2zWJhteeEu5rHYaX4BjwKCYodtuI6NJxOROiBX3PvkUBydGObxlGxfPnCGp1Wg2m2it0fqFp/0f6pOGhOOcwxlFUTj6dhoTlYw0d/HE6RlarRa7J2oYzvKnt/8W5/xx6mOSetMhVI6QBV44BBpEDD6mne3gTz82y7brfpZo6jo69hyJtqhyClwdVJdCpxSytubD/IsG7z1aR5RlsVDuZVmyNVacfvizHNh+ju9/UxNpzuMBJxQIh6SPEBbvr0Y2my2bIdYmmxdgy2b4IQJB9+IcLrd08zmyokOkR1ETO7ig4FNn+tzx4Q/y6+/8AV6/bzdHH36YsbExms0m9Xp91ZbNCwVi6IjcOXKXYE3BYP4kPha0dhzhPV95mDsfPc0v/uz385rRmJnOY3zuzv/Bxemn2LVvFBF1Kemg6wKhNPgI4yK66UF++3cvEI//LLf90A+SRQYvClTZABv0nlnsSdVaj/IvJoZdJ+/BWk+9Lph75DjH7/4At71imh98syGRp/A+kItDVMp2G5TwV8FmyyZgbbJ57lo26l3vete7VkZeC4QQ1YPzlGVJWRragwEzvTat+hhbt+zgooTf+NJp3n33w4ikwV99xfXsbSQ88vDDSCkxJij6yrKkKIplUhYl+Yq4oshX2SenLAvyvIovC4qipMzD/uEcJabIKavtfLhfHs5XFiX58HdZUOQhvSxCvvI8J8tzusWAPG/Tu3AS6ST1LTv5sxnBnz5yngcuG+RYi5u37eTVBw6RZxmnT51CKajVE5x1SBljfYR1irRveepJy4lTLU7PSqaum2BgMtJBg7yAvrHkZYFNFS7lmsQubPsr0lYXF/bNfHXMWrL0mOHvlfEbEb94zaFkHps6XOZpaMkT3znJUw89TeR77NreYdf2GSJ1CSUN3kd4Hy/YxYi1FvNbgK9Eh4EMUSKQ2HKCxx73nJ+u42uTeBWFbq+QSCkrGxwRuoCikrCE4IsXosq9GP4L9xXafgLwKDPD4b2X2betQyQ9Foko67xy91uoqZEwCjhckXUVXBPZLC6yQahJPGBBWEGZlxjpudxtk2Up49t2okcneGQAv/7xx7jj5Cx2YhzZ7/ODr9jP3jji/FPHqCUJ0nsUApMXlEukKAsKl1KWXcoixZQpxuSkpiAzhrLskxV9CptC6UgHntJ6SmNxgz5l0SNzBXkpcIWlLLrMGcPAGYzpQ5HispwsN1hfkpZdbFpgcoPJc0xeYIsSVxpsRVymKCiKASbvknY6+PoYeut2vnoh5StPnYeJXdxz7DI9kfCaXTt4+d5XEmk4+dRRClVStiJyJYmlJsk984Oc+74zTykP0x/ApflTjE0kCBeTZYLSZdi8j8ws5PmaIvIcshxX5Pg8x+cFIs8gz5BZhi8KXG7w1b4iC8f5osAVBa7McXmJz8sqfgB5hi1zXFHg87zaJ4NieJ0SnxeQh3SRFYt5KlLIs3CufEn8KiKG+xcZFBk+TxFFjiwLImc5/dTTnDvxNJoIKWbYMnqCmw6V1NQAEFgRgQj6sLBmuB1+NmuIqD4yDd6jKBEoynKKR59wnJutQ20cL4Pt00uTbIaltTrZyGdANtfUjTKUeCBHYNFEDmoFiNzgJByfOw+NiN1jY+RRnY9dTPm1zxzlnBpHNlvU5i+zO5vl1/7GrbxtrM7kknMP65ohn1KNdRggpgg1Dw6HIkeRAq1q3z6zTFVn64URdxIAMjoEg7nRiiwvIBkAk5RMYqBSJvYAKKgRI6t8rIbFRxDy1wXmgD94dIb/3x/dwegtb8FM7iXrzPKXJ7v807cd5LUaTlz4HO//6n+ns60gHpFsNZbtBRztTfB7H+9xuf1WXHwDLsoY2aY5dOgIzo1iVB3nHcrblVm5AtJ7rFA4FAKH8obIGzxQyJhSJAhhUM4QOYHwIhhBK0kpw5Ix2gm0D+YKwksKGZ6G9OAECDyxBSs9Rgo8oFzwoSwZ9n+q6kjYRduiq0CKYYkuds2FkHQ6Hc6dP0dZlGhRQxd3c+v19/FDb4amHuC1opQliJLYCZSNqvOs9QQBBE4EC2TpC4TqYYWmlx3mQ7db7nt8FDWyD6ebeJLNbtSz7EZdE9lQhC/NR9DHYTCILEf0DYP5HrVWk9Ftk1wA/uDBs7z3G0e5MLaPdjyJajZI+nOMdab5ybccYv+IRxRZVTsEeL+08QbKK2LfJLIlShmkACM1mfWgNHU8+aBA1CyqyJmMEi47j9OaZmFJvcXXBC0hUZnF6ZhpWcNJxZTpEztDxypymeCloOUy+tpiROD1pcTHkt81L4idwzhPISVFUuOrj1/mM3cfxU7uobHnekSS4Lsn2dc7x3/4sdt4S0sizVN8/PP/gxNzjzG2Jyaly/nuDj7wsR4z3Tdj4hugZnBijtb4FrbvuAEjEqSS4DZGNg6Jq8pUeYvCIrzHCI0VEU4apHdETiAdWAm5ElgZCEU7iK1Hu0A+rmJe6cGL8BFrB146BpHHCJBeAgrhqxcXFyxycWF4/6rTLTwCV611vuimo9vtMj09DYS1vjE1dHk/t15/Lz/8ZkND93BaYlQJlMRWoazGB9PrdWGkRzkdpoXIPk5G9NIjfOh2w/2PjSNH9+N1E0e0STbfFbIZEPq4GjKRk5oBJk0pBhYZNZmYmuRc4fn1bz7F5588z6AxSa+1jTIexRcGKEl8RssWlKYfBmSW5qIim+oHkhiyJpG21KKc+UGb2vgUaWbRTlBz0MLQdoIaishndBNDLmJaWQNda9C2c4zZnIYomRMKJ6fQpSMup3HakI7vZta2qHtBo3+JMiqCfdg6qFlJZMB7G1rTSmGV5NJ8H+c1assOaLVwApJijm2dp/knb76JX9g7RdPM8dUv/xF3nvsz8l2edn8LH/l4l9nsTRTJ9bjE4KM+3kQ0RnYwvmUnxpahGX+Vl1pUGffVUw+L3FmGjWLwFErggMSC8h4HlCosASx8aLUIL8m0wgnQziO8D6M93iHweBGITWIAjyXCo3FoPBInqzaKcNVSNWu9hkvg7cIAgXOOPM/p9bqUpVk0i7ATyOIBXnf9t/mRN2c09Tw+glJavLDERiO9xsly5dmvgJUZysdhXS4xqMjmMB/5hOOBxyYRretxUR0nXqoK4u/yaFRmQ9WunMMO5sm7bdLcUtuxB9OocW/q+K2Pf4s7BwlZbYzGxDa6A4NTMcQJKKjXNNIbhJAYs6xhc8UwuhcgIoVKc64zs2yPCqzXJI0m5+cGXBaSKLJsjSImlOfcoMtZMaA1MsYhOUp3ZsClos9kSzIhS/pEXO4m1KVi35SnZwsenY/IR3ehSsGoz+jLiHKd/ieA8aEGThRIW+LLjCTSFKWl302xzqOSFlFco6x5YtkhOXuMnz2wg7/32n3clMB9xz/DJ7/1AS4XEbf/2TyzxevJ64fwNYeVKcLXkGqUqNGiMdJcaGkFdhbLm1wVhJcEKgn7DPvdEot2GbVI0EOSe0liLTWl8DhKF4bkIyloSE1eGKbjBCM9Y0ojhMcJR+w9oizp+IJm3GAsz1BAicbIhLz0lF5ghcIjwvPzbGhZm9CykQtEU5YlztrqBfE46/BuCl0+yOuu/ybveEtOQ85CJClVGfJvI4STGBUGHNaGx8sU6epop8NsPqXopgf48CcsDz62DdG8ER8lWOlfomTz3LVsrklBPC9Dv90WfcQgxRtBc8deOvWYPznV519+5js84FsUY7vRrUkGnUGo+Y1BeQfeUxYlZVZSGoUbeGxeSeExucdmYdvm4NKCJG2js4w3bvH89Fv2krUv86p9La7f3uLu+49xy/Y6P/eGKSZNj1tef4CHTl/kx952hN2zZ/mpN+7h8rkLvObV1/GW/Tt54/4JTjx9gbfdto0d9Zw3HtlKnMHJ423iCLJBm9zWKVOxmK9VxHlwzlKkOXlpKC3kuQWnkCrBGZClJC5rWAmF95RbtnL/mRmeuNxlas8Er916Pdu2HeCJY09z7/1nsHIvRjXxyiEigVZNlEgoihSPrT5akEKAtzhr8W5RnHNYB9gS4UpwFusFFom3JQkZ3Ufvw2qFao4QO0v35HFcd46klaB9Rn7xDHMP3MPo2DgJMRpL8a27yR97lOLEMYpHHsN1e0xsmWDui18jO3mcwbEn6Z49R++p4/hmkygKI24YEDaYCizN55qCx1pDUY38OWuRUuKdQwiJ9+CcRPpz7N92noNbUkYjh0Cg4whnS5QVSCFDGVYK3BAIpAjmlIig0NVCUhdjuCwilpqisDgxxWNPWs5erCPjneHD07xEFcRDpcHqCuJnMhp1TeUzgiMxBWW/R64U0Z49XEoUv3nXcf7Pzz3IKbmFcuQQVtQpBjmRUiTWUvclKush+l0YpFBYfH+AL/qLkleyZFtmA/R8StHPcb7HqV7Bh779HT759Xu4dW+dhko4mEhqA/jAH93JB/74O8zOxnzq9qN88dMPYi+V3Lh7Gx+4/Rj/7f33MWE8k5OSj3/tft73sc9z9tQcbzy0BQpDO+3RS6DMuvi8tzxvK/JJ2oG8izAZoiwQuUEYT5kZTG4QIkJKAa6L7HWQGdgsgl2H+eog5p/f8QgfmynYtv2V/O2f/ce87Y3fw6DboRZJhKpmk7tgpZxEmiLtkQ0GlEVOWeQUeY6zpvqQw8e8MMfMWaQtwJY47zAenHVoZ5g//ihl+xLCWaQt6Z85RX7uJDWbUTMDZh74Nr1H78eeOsZIv0uj12b+scfZ0Wpx8+HrednBQ6QPP0p2+hwHD9/AgYPX0z1/jrEtW9n78pfTiGJkaVDGIa1DGocwQ7IZ5nV1McZUphNlaOGKoHwWVWsHATryCAowjpF4nDoTjKodXD7ZQeZ1GmoEcoUydVRZQ5c1dFlHlzVUWUOZKs42EL0mp4+22Vo/QmK20dRbUC4iG2TEcYwUEqGiq/Vc/wJjLeoIWD91Oa6JbOI0J+r2Ga+P0Byf4kSa8eu3f56P3Hc/g1oNLRJGfILqZ4g8wxUZzhQ4X6IkxAIS74mcQ0qL1+UyYZkUuBoM6jVSXSNSMVu04zUHdvO6Iwd46mJBR9R48HJBlnh+6Zd/ipqPmJLjdM/12bptD63dDe4/M2Dgx7nx5huZ6RmePD5Pt1cysWUn1x/cwUNPd3G6gacGqg7KQrQyL0skKlEURCZH2wJtLcpZhA8uD/ChO1hS0o9ScBn1fkqzXRD1HDJqMuMk//mjn+PDDz5ForfyH//Fr/C2N91Gb+YiwpVICK4mEEjnUdW8Z2uHk1dDaI2pxOKMwViLNwWYHG8LjDHkhaU0FlEMUG6AKDNcNoA8RXqDMjl1l1NeOIPPOlz38iOcf/I7OJViaznYDqoOXd+jNlGnPt5grj9N0UrwSqDrTWQck3tLXhaU1lDaktKWGFtincGYpXm9UowxFEWBqfQzS+H9UN8E1qTUIkUzGqPut3LuiYz/+zc+zu/+2p3snbyRptjKnsnDbK1fx7bm6rK1eR07WgfYEh/g93/rK/zLX3o3Zx7vocsWrWScOIowpsD6aoLfSxbrs+z6qctxTd0oW1qM80iniWoxM2nBF+87ylfve5i89Agv0WWBUAKpFF4JjBIYJbFK40RYXlZ5hRcOJ6sHOhSqvkL1kL0EW1dgFLcxy1+emmSrqfO3bt3N7/3BV3lcbGGmaPPte+5kGym//I5X8NR99zHmc37hr72JB061+cp3nkDbkuypk7x81xg3H76OJx+6yE+9+bUk3vPJr56iQwORjEKWg5bV8G1100vDofigHwljKAInBE7Kyk2CBW/w0kAkUUBkHKIo8FlKMXuBwZnjyMtnOLJtjDcc3IsDPnjHQ5zr5/hYgYwQNBBeo1SJowy+cHB4X4kLpBPE4JzDeIm0OdJmWOfIfYxBgS0Y9R16T91PtHU3cmQriSnpXzpP4ksmpkY5/vC97J8c45bDh3n68aPk2ybwUzUGjx5Fjye4lqLMcs48/jj21UeQxNSFYPr4ceTOnejRMVKp6FeDliUe6x12oZt3NVl8gYddnyEWXmwnaKkuxfkHufuTd/CB3/4ypx/skDvH/Xee4Jt3HuWzn3iQr9zxGF/+zCN8+Y5H+PKnH1m2/ZXPPMKXPvUI3/rMo5w4OsOFJzp88Y4HeeLkKVqTLWZ6LU6cE8jaTowH8ZLtRi2+7Kt1o56Jnc01lc8lX5LWEy51OnTP97hxpMFv/M138svvfCe17jTl2YfoTh+l6M1Q5kX4AGONVzJ4okNRIHDeIo1DFyxIVIVqKCXEaUljZhZpUkzT8Vji+Y/f/Dofmx3w/T/zVoQZ8Lb9Ozl88018/uETeGBX7Pih1x+i0Ir3feFR8pFx3v7WwzQmFG5ni8fPneXWW/bxmpvHeP+nvsy0nicbKbFRhhYGlVtUuZiHZWEl+KAQtTLGyaAc88IjpANR4lUB3kIJQihK6egXXfrTpynPPM0eV/L//Zmf4B98321EOP7Vv/kd7rrrHmpxjFISqNb+DqxW6Ssc1rplbjmGLR1rHc46nDU4a7DOht/OBuKs9GVgkM4g8hxpitCdMoYyG1BcusTMqdM8cd+9yPk27vgx5Nwc9bKk99Qxekef4LE//hN2HjpCK24RZ4ZeUWKjiAyYyzL6viTDUeApceQ4ykq/tJjXK8U5h6pm/oeh7ysHCwC0UggrEa5G97LHdkHoOqKI2TF1gJF4iqmxrUyMbWVitJKV22NbmRzbynhrOzVfAxvDAPrtHmlqKAtLFMV4PJHWz6wK/wuF9W98/dTluKbRqHmXY02B6fRpn7lEpOvsftlh5iS8/97H+M2PfJxzvYLG+KvwI3spd27BjAmSNGOkF9MuNG5cINLTaK+wfnTdbCtXMuoyClPyqoMTXH9gBx//9JfZv3sLP/oDr+Gjn3uEyYbke99whKjX4dyJeR49epwff8eb6ZQpuXE88OQMW0Zjbj64jRO9lM9/4V7e8QNvoBGXdLOSE/2Irz94ln4JTkYUoh4m9q2LCCMUaBEMUGxBU4DMC3KpKHSMaI4iS4MsC3yvjc475Gef4PuPTPGrP/G9/MBUkzNn7ua3Pv4n/M6HjyNG/hLpyDiiBfgWijpSOYTQGKnwau1yGkI4hRBhyNIJEWotZ6mLgnGZcfqer7FldJIt+w7SiDRH77qT0clRdKy5eOkykwePUMgI0Zlh7tFv8sof+D4e+fq32Xv4Jiavu46jdz+AG+Ts/t7vJZvrEtVGOPetu0hedjPx6DgZklLFGCFxQgMS4S36KgaJQTejF4fslw5RVuneObS31M2TvHn/JX7izSM8+cDX+eM/+SLtjuH/+dNfwxaXEHIQDBQXlJxXQssI02vy9//f/5bxesxP/cLbuek1Bxj4Pfz+n17kgSfHEI1DmKiGiyRSbI5GPZvRqGsjGwq8sZCmDKZnOX/6LKnxHHnDGxHNhG/OdPg/3/unfOM70zT3v5Zsagq7JaElNVuyFmdmC4yfJfZniUpPauprzGMJzTePQKsIBaTdLihoNhKytINzlmYiMEWJ8p48y6nVY+IootvtL8zQbjUSPIL5Xk6j1SQSwcit3+sRJ3WIEoxIUM1JMuPAlWsW2iIqz3tKVVktkd6DBTk6BVO7MFKjigG+M4/qzCAvneRvfd8N/P0ffROHgHse/hCf++QHOKNiPnd3Qru4FTM2jms4pB9BiwipDFDDihi7AdsR5UK+rNDBTab3NLXADOYYiwXdS2fJjx1j/4030WnPMH32BNtfdoTpx5+kfvhGxNQOaIxD3iP94kcZ23+A2SeeZPsrXk1tcitECSc+/0Vq+w+x5cgRCgMzd92NOnyEkS3byBwYqSiFqmZiy6DL8lcZihaA1FW3ZJFslpKOcxbpChruCV696zg//mbNllYHWatx14PHOXh4H81aSrd/EVkL9uOrvuHCh8mVdooTT13m5hv2U5azFMIwKPbx4dtzHnhsBDFyEBM1sVK9RIe+nzs7m2vS2RROEqsI5zwYSxLHDHp9HrzvISYnJ3nF9ine9MrX0I/gnrvvw2sF0qG1ItINTHOE8vIZGufP4ufOU7p5fDqLz1aTGcg62G6G73ZRCkSeYefayLJElAW2lyFyQ5plyEiRpxlFmmGsQ2uN9Z4yK7Deo4Qm72S4rKDo92nGEUV/gMkNdpBhBzlkGT49j8+m8dncKnkKEvUvUO+cozZ/mXh+BtGfx/oSrwVqZIxm0sT1e1C0sWeOsb1o86vvfBv/6PtfzjYMn/7G7/P+j78bO+FJxqd48rgj8zuh3sBqB8RIoYMSXWgcClv5N15Lwv+hG83qg6gcekoVDF7ikRZSanqzc6TO0Dh4iGR8kk5eUtu1DxPXKZxAyoi4MUqmW6ipPfjRrbjaGAOrYdteshz8yCRSReQ6IhofR8YJVijKoWGmqHLmK6X5KnleEA9+ieXwMFymt/HghEeUFzm4s8++7fMIcREnCiZ2TDIwHYTMSRIZTAAqz0Gr/YXSsmzZMo4tB8RJRu5SjB/l0Sczzs/EyNo4TsV4oTZ1Ns9SZ3NNLZt26qglEi0h6/XJ0y69dpvZ6TlOnjrHTTfdzPW33MhRCR/6yuP8zoe+zEVpYetWRnbfhB3bgbt4mn94aJJD445uzQy/lFXhvUCpJgaBz3OacUxhPd6URNJjDMSxBu+IpCQ3HocgEsERtrMeLxRSCEpbUCpFo1aDbICSYK1F6AgjI8qhST6DytR+bWhXULeGutV4H9GuNfjQ42f5+umL1CZ2o1MF/ZTehUd51f4t/G/veDvvPDBOPjjD+/743/HwqXsYv34SMRGT9Sb55CdLprPXYse3UsQluBEiESNVCSLGkmAXvOKFF2D5tghzoTDBDgpd1cIKrEVrgct6SGdoTUwwGAyoxRqf9dFxjAHy0uFUgrECPDS1xpaWKEnI0hSlFK4iAOcFcaTJ0y5xpPGAcTbUiAK8kAtdmOAfuNI/Lcv7UogFq+2lrZqlLkestagoQQwe4A0Hj/Jjb+4zUjtD6Rw2nkTpBJN1EN4gZLL6ZYYQ4L1B2oRYKAbZZWqtBvPZdXz49pIHjk4iRw5jdQsrNqcrrNayed67Ud6CdeCcx2EobUaR9el1OnRn25w+fpKxLVs48va3kIiIj997iX/zkc9wtH0R9r8MufsQU2XG+3/sZn5wPFp5+lVRhonlC1P5hjc0zLxe5fUV1TGLn2IIK2+exNV+w3O6asJntf7BVTHs0AzvoA38xiOz/KdPfgnR3EKtY+DcOd76skl+5W/+MK9sQafzKL/z3/4Z/ew0k/vHkFN1bKNGZ36Kj360YCa7FTu2lSIqwY2iZISUJcgI55MFfcba8EgRJso6FF6ocDdSgCmQUqAklMailUZ4iy8KdKSrloWkMKCSFtjKaFBKMAadxHhjcN6jtQLjsNhQ0UuBtYYo0phKIe2WdI2FV9X8qPUxXJdi2JWSUi4hm2BIaUtNTRzj9fsf5EffMk8zOo6LIPcjGBNRjwSYPJDCVeApUL4OpafecPSLnEER5kY9cHQLqnUIGzWw8qU6XeG7TDYLc6MUGOHJfIrFkA56pIM+/U6XU8ePI6TnL9/2I6ixOndOG37lfR/gW8dOw/U3c932cf7bD76WHxiN+YN3v4dGo0FrZCSMSChVvWuhdvXCYlXV0vBVE9iD97LykBsKqJBhQuFyDCmmgq9cEBB8AkvvUHiEYKHJ6EVYIUEMZx+y+PIPJwh675lVeRjivtDh0KFXcsNffiP/6YEL/MdPfpEs84xkll/83tv4//zVI2wFvnL0E/zJB/8dW7ZZRqcktWZM0mjgRcTF7jb+8IMDLmevo2xtxdcFuFGk1wiVgkhwJMFZ+roIZAO+UnCr6mFVx3kCrXqNIKyxFMpieLwgWPQMh/JD3yeY1oHwrpoKEeZFeREmd4aTibAemK9mbwLBo3Do929k1nc1m2oZRDVCJaVASIUxDVT+OLcdeogfefMczfgpfCwp/RiOGsqX6IUqZX044ZA2QXsBpFil6WXX8+FPWB54bArROoKLouBwfpNsnhXZXPFpbgjDql+BVAIlNTqKiJsN6uNjjGybYs+Rg0zUYr72yc9y4eglbt2iee+v/Bw/9dZXw8lHUO0zjMeCItE8kZ7jhJ3htJ/jnOwwP2KZbZTMNgpmmwXzdUtJgnENSl+n8LVKYnIfk/uEnBjvYmQZI8tkSRhV2zGqTBA2xrngHc/4GiU1curkvk7hY0ofUXjNfM0w2yyYbZZBGgUz9YKZer4QGglkjm6nzezcRSJgSoI7d5oDNfjnf+PN/MpfPcIu+nzoM7/F+97/G4zslqhtoLdERC0VjNOkxHsHKkxg9M6H9pJM8DIGGeNlFLpDG3ihHcG9xMLjrfQlC4f68EKEiZEK76v9q2VQhA9EorxFeovEILFIb5DCoyqR0hMcB/pwLS+ra4aaSHoZ+vHDtbKuEUNydy5MeyBYNYX78BrhEoSrBQJdWASQKl9Xk6qC8bJqCanqY1NYVEWQa30+m3gmuLaWzQo4HyboGWsovSEvC/r9LrY3w9xTc8y0DVOH9/KyV97EPPCee47x/o/+KX/wS3+bV2+b5I8/8Eds3bqV8fFxoigijuNl31SoaWvVD1HpUsIL4IbvgYe68Wi39HbEki8s/DYS8srTgaeqgKu5M8M9hXdAtlCbD1/JxX/hxS+twg5S+rMXmNq+nSOveR3/7QsP8Mlv3Mv/8jd/kh+4bpxe52k+cPu/56HH72b3ka3okZzmhCZOJJFQxD4Cq3h6dpI//GjJ9OD1FI2t0ExCNwoJMq2GkCM85uov/9LuS/VRLTxmAVQtwuVnCSMOw10WDRpXGziuPmZR+fAl+JxBBN843g+fz+KRbsWTWB2BSFZCLihhQ+B9hC6O8oaDj/OON/ZpRKch1hQ0cEKifYYUBX4DdakTHmFrSA9Splip6KWH+PAnHPc9PolqHcHpGP+SnYj53I1GXRPZFGEBXSQe7VXQw1dvkweMK0nLlE45h+hLLpyd4cL0cSabdV73mrfTHmnwhWPneM14jcOTY3z5K99gbGyUkdYII6MjCw7PF19XgbVLbkEEi2MxfNlF+DjU1boYlTmMdh4vqsmJw/nRS4pB+NBkX/p5eB9mHAu52I3yLiJPB8y2TxE3Yw7c8Bq+dvQMO3Zt56axiO7sMf7zf/+nnIhOsWXHGKMjMbXEUm9GRInGeoGXCofm3PQE7/ujHnPlWxBT11FGIP0EyksQA5yQOHSlKVrrcQZ4KQnL+4YuEpW1cbgjEShIClgg2GBsCYFAxNAdhRdIF4b1hyNbXgyb1YR8CIFywceQqKjNLczwHpZhcHh29S5gcF2xnHBW3qvHYojL7/CmA8f40dsyGvocPg62UV54FD0kJY5kleMX4YXHCYt0NZQDZB8rNb3sEB/5hOW+xyZQrcNhGot4qQ59P3fdqGsmG6BarTFoQBbW7Q5VDwbLwGWkvYwyzZmdOc/c+XNEssnBW29lfGIM6T2RM9zzwHfYtnUrI6MjKKWJk6GDm5Bt4X14mT1Q+VFZJILF7Btpl7V0Ft71hVCgnSdywXYnfHiy8jy3pDInTDtYquvwPhBOdXuAx5UCa0q6vYs46di1+xAWgfVw8uRjnHrq69z9+Ofo7m7TGq1RiySx9igJSiucVHghMF7z1IXd/MGfTCOTtyIah8ilQOgIRAZkgMb6GMuSKRRroVKMisphVrgFt9itIpDtAmcgKmVuoAtRzcEKM8wV+EA2gur5ClmRc/jYpK1skqrzhSRRdasWrlg53VoPoawD4Sx9eMO0ENdybXT/IW7Yc5a/8raEZnIOHVmsCJWHpKyWcrn6sjchX6GCEVi8kKT5Lj7ycbj36E7E2HX8/9t792DJjvu+7/Pr7nPOzH3ffWOBBUDiRYIASJAgKZKiRIWyGUtySjIVO7FouxRZcZSHklI5kvyIlFjlyJWSVaqKU85DVWJUiVOSIlORZL0sFi2RhCCSAAkSBEASABfYBRb7vO+ZOY/uX/7omfvcO3tXe+fuLNifrd5zbvecc+b078z3/PrtswJ02Ex9hphTG8/ibggNKuAlQ7GxuBrC+ovTS3zujHoqGycwywJUNnrxuY/F38pG+8a6NYeqwar26+DiTJZBDNKfvPda7BCbfl5eU2y6h/hb7/4p5tztcbFFs7s3+RcSm2sxWNnS+9gq0e31WF1dpdcruXjpIsEH7rv3HuYPHaLb63Hh/Hmmp6eZnJxEBIqiX2TaRGwKjV32t/csZSAUm5/P3bbrj/TOx3DrRzd/Kl53o3jQ/7xCVVWsrS6hITA3ewSM48yrZ3jptWc5dKLgqRf+mAvZl7EF5HmGywSR6Gk4l8cpN+vA2cXb+MJTJe32O+l0j0MxQW0WwS7FNjJtIaHYw2x329h6G+svg02qOZztmcSmcw7Ydqr1Q7bl+964itH633cQO+U7aOebzBy6wDvf0abIz5Fnnb6wOlDXX3X0Gp0IEVQtaspY5NIMI0rZO8Qnfsvx5HN34+dvw+cOCa0hYiN79myMdFERaibw5FgN5KHC4PEiVCbHqEFoKDNo1YF2DWs51BYmK8EFYTVXMq36HR3ic+GC4rTEquJxNJIh0iDr7aa7s0NsxsWzuRaDU3ofu6cPRvOWZYn3nuXlZaqq4vDhw1RVxeTkJEVRUBTFer+KjfEx8VwDgYnexc7bGcRfa7v9HFfb375ly8yBG4SgBO8pex063TXQjKpRFpevoHmXo7e3+ePP/wavm6cxecBaQUxA+m94EYtg8T7QXbrA4sXA8soxuuUcaiyNWQKzBggSWmQ+Ixve4/8NjwK9bB5tw/yhNW47XlG4FTIr/croPAqHKEi1/fBtXEts7sLPn8RnLk5itg9iI1IRBGraQIZTTx4qRBu8sVSm6HuUFWUuZHWsi1zLwVsoKsEG6OSQB49onAccLLY/R7XR6Ll7ifMwR+9mOLes2GxGVeNI5KbBe0/Tn0qgrmtCCOR5TqvVQkTIsowsy9BNC8INtlcTmJuNEisomqak2+1Q9gJBLeKUkHUopmv+8Ilf45w8hcmjq4w0iGisUAVEHKEJFP4i5VLJysokxs3htcHLKiI9RDOMb6NYgrnW2/qNjQCrUkDLMDPjKbKSIjNIyFAtUFy/vO37E64PY5PYSFx33YhSlof4xCeuR2z2XoxS4wkYPBmiljw05FoiNDRiKU0Lq4KlZDWHVgNFo6zmgndKXsXJ6DsFuMbglPgkRpXY6BvdLyNf+xtFdojNrVKMGhBCnCltIB7aL1p571FVnHNIf5XDPM/jjGy7LL87jmIDoEFRbeLcMo3Bq8GHmsat0W41/P6T/4pXmj+PYmMAmn4JJhbNjHEEr1T1GiFYrExT1wHjAtZWCE1cotdP4o1Su972r/AthQBOK9R3yIo4q1+RTaK+BYN+SKbu11Nc65k5eM+msRDUABlWPYWvKLSHRakwdO0kRQi0QpeVQtbnuV7JobTKRAO5BpacYkMLFwLGNIgqHqERR1wQiTiJO2ZPrXI7xGYEns21v8UNMBAIEcGYOK7EWkue5+R5vi4qA9EZfG6wvzmMNf16JGstmbO0WgWtooXFoSGOSZL1OhLt1/1of2S2R4ziJybws22aGdDZQJiu8ZM1zWTATyjNZIO0atrZt3ZoZTXtTJjMc3LJaLlJhHZctEddf2ahak/1FHvQhv1FgEbJ8hbqPU4bWtKQVR386gKThcNojS27TC5cIjt3lnDmZbKFBSbqmnZV0u6uYRcucUgCeePJ1WPXFsh6i2TUIHFpndjoEVsVb4zhxw9P3crIxWZzGAjJQHQGW+fclrRbCTF9IV2/R4lx0u84t34/g2VNouBsmCluDTb29fAluakp1JMp5MFgCRhTkUlNEfy3eAgY7xAmIbRQWoSQoWTxrbznItQeHJ/9RgGXU1c1hRWk6iG9Zc596vdZ+MoX0KZDYSAsXeKlT/4+E8uXaC1c5sKTn2P1ha8xI4GLf/opFj7775hpSrKmph1qFj/1R6x86Qkm2rFzaBDb90wGF70RhmfS8NStHPgveyAymz2dwf7YezC7YQSxFmtNHCfU/2cwGDF912dTtzbR/o9iQ3TyxtKuMtqNi9uyTbs3TVFNkddt8sYiwVLTppZv5RCn2lAsQRxBBC+KN/0uERonHNvLOKybgaKgHvEV8xM5Sy9/nckjs1Cv4lYWKMSjvWWK+RbH7j3FHQ++mQe/7VF633iWaakRU1M3PeqLZ5m1Qnj9LNSrTLcFW8WFBcDG6UUO/uc9lLH4NresyDDQi4GIbERtbDf/v5mB4LDeYhDd/1j+FgxoTtA8ppqGxnoaY2nkWzsECXhT402FNyXBlKjU/b7OFglxlctrstMoIyc0DZk1hKZCtKI8+zJ3vvkUh2cnufSN58hNQHwXNWWc7dFUrK0uQAah7qAmcPjIDN3XTjNBoLu0iJlwVGvL5NqfkXEwzEL3Y6jF8EwanrqVsRCbzRXII6yv3ndU+2+qjT82iU8MSvRqosm33dumt693q9T5Mo1boc5WqbIOVdahztao81WqfBm1q+TaIde1GwrZVeJGFYZda7e03eJj6IApCaZGTZzjWU0T+9SsF53s3voj3ejvcBuy6ZTaN+9mB0sAJ3FZ45ZTrrzyAlRrZOKZOX6UtddeIQ89slypFl7nzBf+jG985jO8+OSfc/zht2Ctx2rJ7OEZVnslUq1RXT7HkWOHwSjBx3XYBt8ifp/+S22LN72J9RfebgzPpOGpWxkLsdlet3PLIKDSb5GQQTfkjYcu3klAxaP9uXVUpD/Wy8XmxX5PXhNyrG8jYRK0Fd9MEocbOJ9R1FPYZqJfdHAEyXbZv3bQq8QND/t9rXiO3dKuHj8IcYCpqMOEAuvbuBA7xxmpUFPhbcCba/2ItrH5sbvuR1D6A1fjaqJKnH3AG/B9wTGqOFUyrxRaU7BGdembZK7h3OnTLF1ahHKNztlnKPIV5Pg8d7z7g7ROPUDIZzh85Ciu6dG4Gnv0GMIEV177OlNH2+As3k3SNe3+gNpAFioyLTFUfSFuYH1V1EGIq4Fcdd6mvebB4LnfJHC7MRZic6tzzcf6am+UbQiDyc03ZGojjf4qlwNzDdI3f3azxO132O9rDTvHsLTNn4mfk/4I7xi74VHuic0f221/Dwy820CcnmTg0YS+dxOEWLeEktsM321oKqW5uMT9f+X7Of7I+7jrHR/g0CPv57Wvn8HTRs0EZek4etcDtI7dwQtPfAmbz4B3ZK052jNHee2Z55ieO0zHxg6CjW0R+s9IlJM4NWycBcD0p4qN7XXxOw4qkeMRW1j/c3hm6MCj739u2KeT2IyY7WOrE2PEPplGiD/cYAy+Ly6DH51uEhxvDHWj5K1pVi+vYk/dx5XlwJqf4FI3Iz9+L2bmFMvNBNn07TRuipUSjr71HVRNxpnzq2SH7uLKqpKfuBsmDqFH7kCKeerJw3jpd2okTjRfSYEnx+PW12FXsQQj+P6Un9HL3ih67WS3+Mjw1K0ksRkxVx/okBgL9tE0itKIiZO3SfxhxSlaI140DhS1jpVeyfSpu5m5/xGaicMsuVmuyDTh0J1MvuuDFHe+jalHPsCSz1lzLcrWBIc++N2YuVPMP/IBzG1vxk8d5viHv5fSTjP5poeYffA9dEvtz8cDqKExOYEszlHEoHVqcNP9ydGIvYV3Z3gmDU/dyrCrJPaB5NmMMftpGhHAx/5WITZt56KEuge+idOoSqzHCZll2Xu6Ylk2BZ18il5rmkUvVK5gOTjqfJY16+g4YRmllxd0i2k60uKSh2XrWFPHSsjoSIuudxhT4DSQaYOEOCGuwdCyGTQ14husgDXalwkBY/vz1ezG8EwanrqVYVdJ7APJsxlj9tk0GgLiG3INTDnB9jrMtRxtI/hOF7TBa4XkArmll1lqa6k0IJmg1PhmFZtbesHSZI7KQV1AaZTKZXRNhs8cTcvSZJbGFlQaK9xNCBRNl6JeZUJqHAHjK8LKAtMmMOE8Wq5itQFtAO2v0zVMBoZn0vDUrQy7SmIfSJ7NGLNvphE0eFrOUUigZQKsrTDlK8KVy+ShYnYiR5qGlgXTlFD3yIPHhorcNNhqmQnpMiMrtKtl8iA4PE47mLBGZhUTGqw1OFFC0wXVOKmaOAQh8z0mfI/psEbRrJGHijmnHG+BXb6IrFxkbtIgTQdHHadMC4Mp5nfLjN3iI8NTt5LEJpHYB6wIND1yFF1Z5spXnubK01+k8+Uvcem5Zwh1xUwrx5UdZg0czixtX9Equ8w0XQ6FLsfqBTpPf4a5cpnJpqbV6zBnPfPSkK0tM63g1lbJ65IpabBU/WbrgFHPZGZYef5pzv3h/0ert4hrukh3mfPPP83yFz9L74WvsvDsF3FS4bTG9udVOqgXYhKbROIGUYB+PxrRwOXP/zkn33wX97733dzxvvdgq4rlF76BCYGWb6hf/Abdl15kmsBsqMkXLmPPnqbz5c+jL36V4tLrTAelvbZM/cLzhMWLHLJQnj3DsSJnsu6hF17HhQYJDSZ4nCj14mU6r7/MzFybxTMv0pKGounSfelr3P3ud/Lmtz9I/erL6NLl2AalcYqUg5GaJDaJxD6gceVSnaA+fwmKwMRtc5ypupyzk+SPfoBD97wVu7zAuSd/jzos4S+UXHz8i9jiImc/+WtcXlol+BOUOk3HdVg68yXOffEJ8m6XK09/Gb9yERZPc+VrT9B5/QV6r7wIWZvMZkybwGS5ip5/jYn2BCfuf4D63MtMuy5ry+eYm2mRhZrJEMido3PxAk4U7a/5tfukEPtLEptEYh8IAXLXxnbWsMbT7S0RWhllq01PDRIUc+E18qLL7L23cddD7yIsLLG49gqu3TB/7720bn8Qd+LNTBybZfXZL/DWB+7h/rc8yG3Tc6w++xXufNMJ6stnqE5/jVMP3EcuBq26TFEy6zwXnn+G2+66k5n5WcqVRbrnT3P02CwLy8v0VldZubhA7+w5RCzGCLq+msUeRsjvA0lsRkxqjRpj9tM0EqjrFZqWJQTPrDFMVV2KlSvMaI/6ylmq1Uu0nSULCr5LLk0cKwVMZIbcVqjv4auGYJTzL3yNL//JJ1lauoSZKChaGabIKMsOExMF/tzLZK+eZvn8Wc6fP4v4Hkvnz/D1Jz+PKwoufPMVXNbm7m97P+ef+zpnv3maI/e9BVe08RqXTw4hzqS5O8MzaXjqVpLYjJiDqnxL/AXYN9MIYsBLYPLIYbTyrFxaZj6f4EgrZ+lzn2Xlm1+jffwQSwvLtKZnWequsIZHNSO0p+k1FTjw3R7Z9Cx1UTD3zke593v+Crd/23s5fP99nFtYoEbJ5w/xzddepdAGU5cYJ3SuXGDmsUeZe+w93POhD3Pb+76D8soaC0sdyFuc+vBHuOf938ni4hrF3GGqAMrGRHW7MyztWqlbSWIzYpJnM8bsk2kEpWoCvihoXJvb3/udnHnmRV5+/Cle/eSfIi7j6NsfpXXsBDJ/kuc/9ThnnnuO2bc8hG0fp7HTrKplzTmoLZdeuMCd7/gAp//sy7zy6S/y4h89TncpsPjcWWYP383xNz3C6vOvMjl3lMP3P4CZmqG7uII9cSdLUnB+LSATh8nmTnLp3CVe++YZXvuzz/H8p/6U9t33YWePUHohiMGIxR1QP5uRzkH8Rkf7od/pG9QSPHHxM9vF0uV3n/o4p+UziN3LnLiJg2X/5iBWHN45srrDvFHM2gqhauIo9ck2agKBCiOeXg+sTtNuWVbcEpM9pZfN4+oM8SuUpoObmKLu9mjqmqzIMa0WTVlisjhPTygrpqXAh0BpoTagWQ4akCbQVoPzECgxmSEsLOOMg5kZuig9G0fRm+AwKv0lvjYmILvl5iBOJM9mrNlH06hAUEttJ1nSgtXWHOX0IeqpWXomp2NadOwsHZmlaR+mnGizZDJ6MsdKPk/XFHSyjG4xi+ZHaeoW4ubJ2sfAzBKqFkZmoZkAP4Gxs3RMTjdrU7pJSjdNjzYlU1Ruio5ts+ZadLMJuljCzCGayVl6aqlMvj4afGPY926ZsVt8ZHjqVpLYjJhUZzPG7KNp4nw1saK1tJauc3SdpbRCYwyNZNTSopFW9IVFqSwoBT1bxCkoTIgjwyWj5xylNf1gt25Nf+sMlTV4Y+P8Pmr7i/RZGomL2lXGUpksBptTS0YjLopNnMMWGZoVu6dwzdStJLEZMcmzGWP20TRCoOV7ZFqh4qmtUtuAt/0ZBQVUoydhNCBSgjTYfi2GocZQri+Z7I2nsaEvQIFgAsH49a1K/EyQgNGAC57cB4rQkGmNoSGYCm8CjXE0YvHY/n5/PNRg4p2h+TA08RqpW0liM2KSZzPG7JNplMEEXnFFShuiAMRXTbyIUcXi43ik/jSxRhUT4lADq0pcFs5j8RSN0mqUwseQe6VoYmg18W9R4qpQQbGDa2uN0dBf9zteXTSuzx76rU4GRdavN6h53I3hmTQ8dStJbEZM8mzGmH0yjaCoCE1/FcksKEUTV8ywPoeQIapYrYBAwEHIsd4haOx3o/3KaiCI9s+6NQSJwfe3zjusjwvSKUqQ0J+4S0DjtfPGkvk4jAI8Rhty39Bq4lZo4pS1229qnd1TuGbqVpLYjJjk2Ywx+2ia6/nRjR/Dvv3wTBqeupUkNolE4kBIYpNIJA6EJDaJROJASGKTSCQOhCQ2Iya1Ro0xyTR7YHgmDU/dShKbEZNao8aYZJo9MDyThqduJYnNiEmezRiTTLMHhmfS8NStJLEZMcmzGWOSafbA8EwanrqVJDYjJnk2Y0wyzR4YnknDU7eSxGZEDBR/3bO5nldA4mDYbJPd9vfEdR8w/qzf0vB7E+kPG+9/btink9iMiB2KvyMiMVZsts912+q6Dxh/9npLqv3PxgOGHZbEZsSkYtQYk0yzB4Zn0vDUrSSxGTGpgniMSabZA8MzaXjqVpLYJBKJAyGJzYhJxagxJplmDwzPpOGpW0liM2JSMWqMSabZA8MzaXjqVpLYjIgdRtgRkRgrNtvnum113QeMP3u9pdT0ffPZ4V7uiEiMFZvtc922uu4Dxp+93lJq+k4kEuNGEpsRscOd3BGRGCtSMWore72lVIy6+exwJ3dEJMaKVIzayl5vKRWjxofU9D3GJNPsgeGZNDx1K0lsRkxq+h5jkmn2wPBMGp66lSQ2iUTiQEhik0gkDoQkNolE4kBIYjMidpRld0QkxorU9L2Vvd5Savq++Qxq6ddbo66n2j5xMOzW3H3dtrruA8af9Vsafm+amr7Hh9QaNcYk0+yB4Zk0PHUrSWxGTOpnM8Yk0+yB4Zk0PHUrSWxGTPJsxphkmj0wPJOGp24lic2ISZ7NGJNMsweGZ9Lw1K0ksRkxybMZY5Jp9sDwTBqeupUkNiMmeTZjTDLNHhieScNTt5LEZsQkz2aMSaYZShSSa2XStdI3SGIzYpJnM8bcBNNY9RgagvFUTqmtEkQxGgMSEOJ+MA21q6hdTRBF1AKGYDyNaxA1iBq8gWAUIWBVsUqMlwxFMPirBukHJMRAwOjgHAGnitWNTBIVbBCMClYDQoPQAA3gQfyWe91OEpsRkzybMeYmmEYQBMUb8AJ+yy9wq/qpBILxBPGogIoFtQQRgoT+DRhACBJFi74oKIZA/CwI2g9hc5AYVCAAKhvnM2owgXWJUAHpi5hoPGfMvnitwTWGkcRmxCTPZoy5CaZRDJ6MoDaKhfZ/qML6D9aLxZuMgFv3XhSzIQ4IBINuEph4DsGL0BgIJv7wA45acmrJaSSnNhuhkQJPTkNOEBfFCYfi+tczWwQkCl4UKsUSyID4PSED7NAsTWIzYpJnM8bcBNOoWhQH2L7QRKI3siE2tcTP2GCx64IjBDGgFoOg/aKPqGI0ikBlhcpa/GDMksRjVKJ4xJ/8IAjajxO1oA4YXCd6L5sVOYpbg5oQPSEMOhC//nFJbG4iybMZY26CaQyCVXAa/QCnignRV5C+mPi+9yAKziuZ9xht+k+Tj/UpAYSAkYDt17Mg0fvxEr0Qo4rTBqclTqu4DSW5VhShJG96FL4kDzU2BDICNnisepwG0LBNjyswJUiNroeAEoA61dncbJJnM8bcBNMURmj5msJXZFWPQitaRjFNTeZM9DdEECPkCO0QmBAhp8GZmsIFpOwyIYrRisIEiuBpY9C6BglYByE05BrImx7t0CWrV5h1gRmpmGg6TIWSydBj0neZCj1aoYeUK0y4AFWXHA9NSWYFCFgjiPVoKFFqRALGgMGjdFF6BO3gQ7n9ltdJYjNikmczxhywaURAFy8yUa0wn3mmTUW7XCGsXGYiM5SdtVjyQSA05NqQNSX1pXNMUkG9il9doCUNeVPS0pL6ynnaVYnrdZnKsngNAibUTKBMiMeuXqK9fIHmtRcxvSWmbY0unsNdfhVz/hXk4llM9zIn2oJZPM/MymWc7zKVC6Hq4AiIeqQBJzltN4XTDK3ANwGDIKHB0GAEgiqqSghhyzaJzYhJns0Yc8CmsXnOlc99htee+ix5d5GiWWHxS3/O6leewmpN21mMCOqr+Dee5sw3Wfz0p1h7+RvMTznqK6+x9tUvMW0Dl7/xLM3iRS5/8Ul0eRlbV2hdob4i18CkFVZe/DqXvvo01eJlFs6+zIWvP4s2JVe++gwLZ1+Bzgqd09/AnH2B5vxpLn3hM9Svn+bCU09gm5LCBPAlhAajLUwzhfZy6jXHVH6EjCkcbQgZeIvBYEQQEYwxW7fbMySxvyTPZow5aNMoTEwVtEMPli7QrlaoQ0krBxdqJNQE7xFnIZRkoWbt0nkOnTrJ6uVzhN4Sp+69CycNF0+/BFWH4ydPUFQls5nD1BWtzEDw5KJ0z59n7eJFbnvPe5l94C2cfNe7KaZmQAzOWqbuuZfjb3+UqTfdxfL5l1h64cvcfvcJjj94L7bpUi9exGqDxSMEcmbRcobp1kmmWyfRaoIJe5hMpsDNYtwMRrLtd72OqG7qtZO4LrQfBo2BqCX4fq297WLp8rtPfZzT8hnEDvpFJMYHia1Dpox9RTTDiFL2DvGJ33I8+dxd+PmT+Mwh2sIYi7UWxILp18KKxH3M0IZfRchzhzz+u9jQYerIYVSETqekKYW5R95Fr5jiUq24VsFsqHFXXmfx8U/x9u/9bj73R7/PHe/7ACoZmRde/O3f4fbv+whzc0d4+bNPMfvgw3Qmp+gWDkWY8kLz8ms0nUtMvuUUvtMhXL5EIYaZEyd5/fHHCXOHmWxP0VlZpGjB8uVL3P2WB2kfO8npp74Md9yFnzuMTM1SBUN25Rxzq7/MseI0mXF4B67T4oHpt6GLgLE0xqB69YriJDY3wF7E5nee+hVels8msRlHNPYXOQixAcHljubTv86JY9N0V2pCY5mZP86lC1eYfee7WWu3WaShAOarhstfegK9dJbpQxMsvPQCxx94kJNvf4wXXjzDyuuXmJyb4eTbHuKlz3+B7G0Pw/Q8VRNwWCbEUV+8xNKZr/Gm9z5MeekCdvEy577yJe5+5O0svnwW8klmZo7g80mKu+/hlS89xdzJo7SPHeb1Z57B3X43HD5OnU/SQ3ArL/CD3/Uy3/XoGSacp1SL6Rzmhx/674GZ7Te8g1SMGhEDWVmvs0k6M35stslu+3tijweI0HRh4sidLKyWdCqPTM9QhwCZw5ddCq+YssZqTXd5mRPv/3aOPvwu7vn3v5/zi11efvUCCwsr3Pm+b2d5cYWFy1ewDUxKjl3tcdi1KKoaKUsm5maRRnn9q9+glU3QOnobwRaUNmdFBXPPvbi3vhU9dQqft2hPz7N4YQFVQ3e5g5uew2QFTR0gWASh1+uwstxhebnDykqH1ZVVFptLQA9CGCq3SWxGxI5M3xGRGCs22+e6bbWXAxT1AXfHfay5WSbveivhtrvoTk7DiRPUEvvcTDSBwtesrS7RetObqCbmWMpmWZ06gbntHi5f6XL0gQepnePEQ49w+fxliuO3Y0rPnHEUvYp2UNpWcdJw+8OPICHn/Fe+xpmnn+fIuz5Accc96J33sTZ5iFeDZak1wZVeSfuBt1BnOeeffo7JtzyEm5ymbgCTI5s6IG66pY2wB1Ix6gbYSzEq1dmMMwdXZwPxYZki0DZCLzR4o6goxgjdc+fIFFpisQ56UuPmj1CqpWwEcTniLJlRpC5xEgcWNL2KmdYU5ZUF6JWoKo0VvK/IjhxGETKbgbOIUXrdDsFYKpMhxQQ9FXxQ2j7gTLwVkzkISq9Xo65FqY4ggu08x/e871m+/W1naDtPpRbbmedvvfunmctOQshRY3Z9yq8iV4lEYiQIlGpZqC1L3rJqC5axLFcNTa+iWVym9/pFVl99je7aGquNUrsJqmySXj5N6SZZ85aeWjpeWBZLr93iUtmjV1csXbzAysIl1laWWF28zJXeKqstxxVrWAIuljVlPknlJvGmTa8U1GeI5jTW0fXQiKPT8/QaqNWi4lAVVOMQ0hshiU0icYA04mhshmYtahWCcWhWkL/pXtpveSvTDz3M1MPvIL/rXnAFZQDvckKApgk0YvHGosbRNZauWJoixx87Svsdj1A8/BDZA/fhHn0Uc+gwHWPpZJYVY2mKNl2xVDg0WBwZrjFkXggYcI5eULyx1Bgka1H162EEv/fy0i4ksRkxqZ/NGHMTTDOYCkIJGI3TNqCGxkPPw2pQVr3QC5ZaMlQEE+KcMUKDUR9/+mJAHYGMWiw9YDV41kKgF6CuoA45QbL+gElDgyWIXR/JLRpwGs8pqjFeTGyhw9L0S4qgyC61LVePvTpJbEbMjbqeiRFyE0yj0oDU/cGOShbAro/YzlhzOR1X0Eg7TjFBHEyZh5I89MhCM5AKcm/IfByx7ft9XBrj8OQoBRJa5I0jbwy5FzIvmCDxFSiBYBq8aVATzzkQPu0PBl2v/zWeYOJA0O1cTxYmsRkRO4ywIyIxVmy2z3Xb6joOkDitlSFg+rPqmRB/4LVYKmup+3PZgO2PEPdkoSILDVY9VhWjsfiT+zh7XpziwaHE2fxMcGTeUTSWVgNFI2QhjjYX4sx+jfXULgqO0RDFZvA1IYqLCX0V6v+9nbT87s1nh1l2RCTGis32uW5b7f0AE2LZZDD3S5whL8QpHoInD4E81GShwmqDCaBqUHICeRQUNaDgTcDH6fQw3mCCwQTBBEWoUVPixdMYwZv+5Fd9DyZ+zmDCxux/cQK+OOiS/pQXBBODxnlvdpCW300kbj2MKjZE4TEaPZ/IxsRag/oWBkWcfhDAaAzrXgkBlVhrOAibEZX1sPm8MW19ry8TNy4VN36GxFXZ4U7uiEiMFZvtc922uu4Dxp+93lIqRt18tr9FdkYkxorN9rluW133AePPXm8pFaPGh9T0PcYk0+yB4Zk0PHUrSWxGTGr6HmOSafbA8EwanrqVJDaJROJASGIzYlIxaoxJptkDwzNpeOpWktiMmFSMGmOSafbA8EwanrqVJDYjYocRdkQkxorN9rluW133AePPXm8pNX3ffAbu5Xox6nr8zcTBsNkmu+3vies+YPxZv6Xh96ap6Xt8SMWoMSaZZg8Mz6ThqVtJYjNiUgXxGJNMsweGZ9Lw1K0ksRkxybMZY5Jp9sDwTBqeupUkNiMmeTZjTDLNHhieScNTt5LEZsQkz2aMSabZA8MzaXjqVpLYJBKJAyGJTSKROBCS2CQSiQMhiU0ikTgQktiMmNQaNcYk0+yB4Zk0PHUrSWxGTGqNGmOSafbA8EwanrqVJDYjJnk2Y0wyzR4YnknDU7eSxGbEJM9mjEmm2QPDM2l46laS2IyY5NmMMck0e2B4Jg1P3UoSmxGTPJsxJplmDwzPpOGpW0liM2KSZzPGJNPsgeGZNDx1K0lsRswb37O5he/vFv7qB8fVM2kQuz11+9+bSWIzYg7asxENFL5L7itMsEjIkZDhvOBCQLTBG09japQGExTnFedBfAv1s0gzS1a3sB4ao3iJAakR6WLo4ULA1S1cNYOE7DrfcWPCPn9lbyDIrRl2J2aSMFgjPG4Hy/MO1g8f7MeVx69OEpsRc/CejSCEaHgBLyY+DOJBKtTUeNMQyFBtI5ph1CAowVY0toe3a6hbRG2XoC08BYrDCwTTgFlDzQrYFcSsxXMf+H3uAyP4yiq3ZtidjUTpryO+HnOV44fpdxKbNxyG0kzRtQWlFSrXUNsGb5SAQXFIcEBOEEcwAW9ralfSuBV8foWqWKDMunjjEeooXgDqCJpTS0FthTrrUOVLqDTbv0TiDcjVRGl71Pa/N5PE5g1GEGjIaSSLAmM8CIjPsc00rp7F1fNY77BaYukglAigWAJCIMeHo6ifI2eNnA5Z8JiQI34OaY6h/ig+HMYzhabH6BZnmETsH+kpeYMRHxtBUASPDZDVLVrVYdq9U7S7b1oPrfIOWvVJZuUU0+FOsnoO12Rk3uLqCabDHRzR+5junaLdvY2p5hSz8mba/hSmmsf6Any4hvP8rYS5RcPBiI2oanpS/oJoPwgBQUEtwYOKEmwXS5ffferjnJbPIDYcjFFVEM0I/boZ63Num3gTP/Njv8HzT7xC1rL4AGIyNFTMHZ7ikbef5H0ffoyHPnCKK/4ZXN6hLcd49SstPv2vT/Pkl77IxdcWeeu77uCuB+7kIx99L1NHa3q8hG0tU5UTGDNxC4qOoGpRU0bvTDOMKGXvEJ/4LceTz92Fnz+JzxyiLYyxWGtBLGINqMRnQCT+aMVsv8AtgzXxSVYBwaAYAhAUVGM9YNb5Ot/7bc/ygYfO0HaenlhMd56PPfbTHHInUc1RMeyWC7vFJ/aJA2+NQnGhJgs1WVCyJierZwnLBkqoFz1hweMv9wgLgSsvLPPvfvN5fv6/+r/49O99naOtu7GdSV5/vsf/8F//Cn/w65/i4tcXYRWe+5Oz/MH//jg/8xP/guXzJS2dwniH3KqP0Y2YRgevGtZfO6q3bghBCSHAIG7Lve3cHfy9JRuu8pHN3KJPya3DwbdGgYjGyjwVwKEhj15VAw8/di8/+c9+hP/85/46P/7P/wP+7j/8IMfvbYHCH/zm51i93GImv5/f+D+epjoP7/jg/fz4z/51fvIX/iP+zj/8MNMPZqx8tea3f/MJivxuqs5hnL0VvZobczS1rzdbf7SDuFstRKFRVYJut+OmTNqeXxIXxBz2kc0ksRkROzJ9R8SoEAKWIII3QiOWBodmMfXIm+b5q//xO3j/993Ot/3l43zkb9zPP/pnPwoOTj97hpdOv8riyhpPPvESAO/40AP8tR/9AI/+pUP8wN99lB/6sQ/zXT/2HtpHpuiELm4iw6vf+hVuIdbNMug4sjVy298bbPcMVGOR45YMQfE+rAuO9gVnu+xssFVh4t421bkKSWxGxA5D7YgYDQp4ETwu1iSZCtwSShQE3zSsVOeo/CKra2t0O4aJ6SPrx1demD80z0PvvR2A/+d//Tf87E/8S1756hoLr5b85Y+8i7/3E9/F3/hPHqPDeZbDMtjhD9n4ogRRwGKCxanHqIcQfxZChQkNEgSwgEGjy7jeDhx/YoKoIuEWDZtLTEHQABJiG+N6FbJqlBJpEKmApu/eOYICeII0qVPfzeSg62wQ7Xfas4DFyhpWFjASxaZZVhZeLVh+rcSuzbPy6gz/8hd+FQSO3HeYk3fci29m+b4ffDdMQXkx8Ce//jw/9Tf/T37pv/0Ev/Mrf0qztEq5dpmslSF2iuYW7WYTf1tNv4e1w2mJDTXBWxBQ1jA+YLRAbUEwOcHkeDICFsWhONAoRCIGEXtLBSMWEYcxBSo5IRi8B+9BgmA01sjFXsMaRUZ6fcERCBmKoHg8FaH/UrsaSWxGxOBdv15nc2Avf8VIjUiDqEV8G+vnocyBaR7/t2f4oQ/9LP/NR/8VP/KR/4X/4gf/OU/+8YtQwXf+wEMcPlVyofdF3v6hWX7yf/4Obn/XMWgBGTz9xFl+5ec/zX/5sV/mhadXYbWm8IsU/SLarYZEXyW2JBL74QcDahyenEYmCDKDmgmwFrWOYCzBWLwIjbARMPj1ICMKm8+9H9cxNIN9FYIKAUPA0KhQeaVSocHEDqDiUC1QbUWRlQCmBlEEg8FihjzoSWxGxA5/ZkfEqBBEDaIWo4KoBc1ATSwKDCoA6/iSmjne5r7HTvKf/vy/x1/9Dx9msXwRmehyaWWBB993P//dr36Mv//xj/Lh/+wh7njPMZiExedL/rf/8Y+YqOaZqFv46hZ1bQCjimjsKxRQgjGQFTSmIGibmgmCGLAl2B5qeqh0wVbgNoWsBNfbFMqrhEH8tbbbw9XSrxY37JirbTftZ2U/9PdtFzUd1HQIpkOwXVQCSgsNk6jmfYEuo1gHi/HxmduN1M/mBtB+GNbP5nee+hVels8eXD8bQIJByUAFp8rJ9p381I/8Ol/7s1d453e8lY/92HfTqXt0OhWnbp9h7ojBT6yxrFcI1rJwvkFWDuMKS/v2JXJbc6g9Q3m54MUv1fzcP/g4YdXzk7/4g7zr209woXkVdcNK6+OLUCMhj3Uwbo3aZCx37+Vf/07G088cQ2bfhp2aQF2DSL9fTQiIbLdl9JMO8K2yr1xNI+I9Snw/qSfvvsj3vOebfOBtF2hnHUqzhiln+Ng7f5ZDcjcEi1qza3ejXaIT+8VNafpWGz0aUZAGr6uoqwCYOdLm4fdMcvShNe7+oNC6+xKrxQus8Qp1WGGmdYhnn3iNf/wDv8zP/djHKVZmODV1El1a41C74J2P3E8mDjx0y4Zaw0Fp6AiJN6D9UWAuE7qdC5hshdmZLi1TMRFatH3BhM/7+zltX2wK+aa47WmbP7OX7fawW/ywtO3n3G0b91vbjms1OUXtNkLjkGYRoQPBoGoIxqPUMf/6zZ0iu790kmdzA+zFsznwHsQookKgQAEXArdNnuIf/cj/y/OfOcN3/sB7+PF/8pc4Hb5KlXcpvCfTOo769g7nj6CXj/FTP/wvWH0d7nn7Ib79g++kXWTUVeCJx5/nq8+8TD4n/OKv/W2yQ5epA4Rgt3+RW4QaCa0oznaNUhp61Sn++JM1C6v3kM3eTt20wU9veC2ybvgNruYa3EJc7etvFgYDlNVTPPbAK7z9joZWq6FsXYbOFH/nnf8Th+XNoA04jRV8VyGJzQ2wF7E5+GKUAg1eClQdNhhOTt7DP/jh/5sXPvsy3/H97+fH/+lHOd08SZWvUDSQqUdoUAImTHDY3sWT//ZZfumffJJmcfv5gRz+5s98iA999BhV/jLN2gxGJ2/JIoRKg4Q2xmdgOnjpUtbznD07z+LKPAudLljtjwF747JdbERk3StXAFXshHLnofO8eTbQardYzl7H9mb52KO/wDG5GyhR6xEmtp6sTxKbG2AvYnMzPJsgHi8OxWBVOJSd4Bd/+rd5+g/P8qGPPcqP/v0PcrF6GVWHCxajsQm4diWIYquMo/lRnnvyLF94/CLPPv0ir764zG2n5nnbY/dw/6MneOy73syl+iVKXaTNNEZvzQm0vPGIn8T6AiMdjFmhLjOWV2ZZWIKV6grW9jD6xhebzYIj0O8eHIVGEfzUIY5OrHJHUeCyORbd61DN8LF3/BInzB2oWQMahNmNE20iic0NMExs1HYxm8XGhZ2vjxERBBpxqDQYSiZ8gV2bZ7I4wZp/BZ35JlUt2PooJuSglsZClVXUpiLDYUqYm5hFVKgrQ6iFdpGB7WLyhkvLy4R8lqAtnC4j2jsgMd0/VCCIR/wU1hdY6WBlleCVupqk062RYhUthVxmD77P1AGyU0o3ehLTz6uVCWEyW2K+KRCZpZxcpVqb4Ice/SWO25Mgq32xmdtypgFJbG6AYWJz8zybwfeKFQsiIXaH0AywhFCirouRDEIWv5MKKhKbNiXekVEIPmAtscMaBlVP0NjMbV1GXQOSYaWJfS5uQYIoElzsBYwHAooiaqO0iO93wbl6PcR6/c32/VGw39fadI6rvwe3Xsy7vu29ixXB4mHlCD/43n/MEXcPLjRgPFBsOcuA1Br1BkT6ndViz8849UEwnmBKcIIQ+0lE11lREx8cQTEa+56AYmycFUdRAh4VEOMQ4whBsVaxprxlhQaIfZHEg9QxLyTec5DQ71ciqBGCbd7QQc3Vgu+HuC94RE2/U2McWGWDQ/ovINTAkIaCJDYjYseLYkfEzWDwJQY+2X4wFje2D2zch4jsPbDL/ijCfl/rOs9x1dwSNup2ZPjjkMRmROz4Ke+ISIwr239kKcSwq5Ls8dlOYjNi3siVionEFq7xqCexGTE3owdx4sbYOVdNCtqvx9uOSL84Fv/YnryFJDaJROJASGKTSCQOhCQ2iUTiQEhik0gkDoQkNiMmtUYl3ohsfqo3qo6HP+tJbEZMao1KvBHZ/FRv9MAZ/qwnsRkxybNJvBFJns0YMVzjE4lbm+TZjBGDlQVTMSrxRkY1LtWbPJubQexKuT02kXjDMlxiNkhis99cLeevFpdIvNHYqLy5Kkls9purOTVXi0skbjk2amc2a8qWx3vzmunbSGKzX+jmrIyLgghgMAQCQcLGdvP+tbbbw27xw9K2n3O37fawW/ywtO3n3G27l/392u5l/1rb7WG3+GFp28+523Z72C1+WNr2c+62HewPFukbEuhPMgZ1f8kWC/2ldxUfB2Lq7pNnpWlB94tNuVjWHbK8xKD8mz//Vb7R+hS4ZpsgbUf7M8EmNyhxkGjf59jwWnbDmF58iapDQo7zM+jyLH/tfX+PyexOWs0comB2m0E1ic2NMJgO06yLjQJ10yXPFKXH733613mx+Ty4YS1T1yjsJhIjxYPElTUGKGws1dz31eN6UDb+pRbTtDDlFB/98N9m1p0i8zNYa3bVrCQ2N0TTN4tdF5ygMV4pMcZz7soZSreyLiWDxirVuK/9OCVEL3Rb/LrhNonZlvgBuimNrcdtXGPT9mZeq//5QVz/0PVrqV7lmN3OtX27PX2frrWdzedG+9urXGsz289506/Vj1AMIrH4s3H69Vlq1o9ugEBApAENGAwEw/HpUxQyjfEtBItxV/fgk9jcEHXfu7GAAyAExRiomx7GKNbYq6wQODD75r/9trhE4qAwm4pSm9kiUf21JwA8gRqDxwB1XWPJMJJjxCF2+3kiSWxuiM1iEw0WwuAtpIRQ0TRKkbW2H7iTq9snkTggBl56n/XncUNsNLiN16SA0hC8j/MTqwEVrLO7Psv/P+SOeImxajxdAAAAAElFTkSuQmCC;" vertex="1" parent="1">
          <mxGeometry x="-140" y="84.22" width="443" height="425.78" as="geometry" />
        </mxCell>
        <mxCell id="tViWV4BQa0rAtpK_9Age-10" value="" style="endArrow=classic;html=1;rounded=0;exitX=1.02;exitY=0.604;exitDx=0;exitDy=0;exitPerimeter=0;" edge="1" parent="1" source="tViWV4BQa0rAtpK_9Age-7">
          <mxGeometry width="50" height="50" relative="1" as="geometry">
            <mxPoint x="449.9999999999999" y="359.75" as="sourcePoint" />
            <mxPoint x="547.9" y="360" as="targetPoint" />
          </mxGeometry>
        </mxCell>
        <mxCell id="tViWV4BQa0rAtpK_9Age-11" value="" style="endArrow=classic;html=1;rounded=0;exitX=1.02;exitY=0.604;exitDx=0;exitDy=0;exitPerimeter=0;" edge="1" parent="1">
          <mxGeometry width="50" height="50" relative="1" as="geometry">
            <mxPoint x="430" y="335.5" as="sourcePoint" />
            <mxPoint x="546.9" y="334.5" as="targetPoint" />
          </mxGeometry>
        </mxCell>
        <mxCell id="tViWV4BQa0rAtpK_9Age-12" value="" style="endArrow=classic;html=1;rounded=0;exitX=1.02;exitY=0.604;exitDx=0;exitDy=0;exitPerimeter=0;startArrow=classic;startFill=1;" edge="1" parent="1">
          <mxGeometry width="50" height="50" relative="1" as="geometry">
            <mxPoint x="279" y="384" as="sourcePoint" />
            <mxPoint x="360" y="383" as="targetPoint" />
          </mxGeometry>
        </mxCell>
        <mxCell id="tViWV4BQa0rAtpK_9Age-14" value="VGA" style="rounded=0;whiteSpace=wrap;html=1;" vertex="1" parent="1">
          <mxGeometry x="1030" y="510" width="120" height="60" as="geometry" />
        </mxCell>
        <mxCell id="tViWV4BQa0rAtpK_9Age-16" value="" style="endArrow=classic;html=1;rounded=0;entryX=0.5;entryY=0;entryDx=0;entryDy=0;" edge="1" parent="1" target="tViWV4BQa0rAtpK_9Age-14">
          <mxGeometry width="50" height="50" relative="1" as="geometry">
            <mxPoint x="1040" y="379" as="sourcePoint" />
            <mxPoint x="1090" y="459" as="targetPoint" />
            <Array as="points">
              <mxPoint x="1090" y="380" />
            </Array>
          </mxGeometry>
        </mxCell>
      </root>
    </mxGraphModel>
  </diagram>
</mxfile>
